<mxfile host="app.diagrams.net" agent="Mozilla/5.0 (Windows NT 10.0; Win64; x64) AppleWebKit/537.36 (KHTML, like Gecko) Chrome/130.0.0.0 Safari/537.36" version="24.8.2">
  <diagram name="Page-1" id="y5vcNTlstIUAYty0pfew">
    <mxGraphModel dx="2555" dy="943" grid="1" gridSize="10" guides="1" tooltips="1" connect="1" arrows="1" fold="1" page="1" pageScale="1" pageWidth="827" pageHeight="1169" math="0" shadow="0">
      <root>
        <mxCell id="0" />
        <mxCell id="1" parent="0" />
        <mxCell id="45SI-ryJiPIYLQKIN5sb-180" value="" style="rounded=0;whiteSpace=wrap;html=1;dashed=1;" vertex="1" parent="1">
          <mxGeometry x="217.22" y="2490" width="270.78" height="88" as="geometry" />
        </mxCell>
        <mxCell id="45SI-ryJiPIYLQKIN5sb-179" value="" style="rounded=0;whiteSpace=wrap;html=1;dashed=1;" vertex="1" parent="1">
          <mxGeometry x="-80" y="2490" width="278.78" height="88" as="geometry" />
        </mxCell>
        <mxCell id="45SI-ryJiPIYLQKIN5sb-178" value="" style="rounded=0;whiteSpace=wrap;html=1;dashed=1;" vertex="1" parent="1">
          <mxGeometry x="-377" y="2490" width="278.78" height="87" as="geometry" />
        </mxCell>
        <mxCell id="45SI-ryJiPIYLQKIN5sb-157" value="" style="rounded=0;whiteSpace=wrap;html=1;" vertex="1" parent="1">
          <mxGeometry x="837.25" y="310" width="135.5" height="200" as="geometry" />
        </mxCell>
        <mxCell id="45SI-ryJiPIYLQKIN5sb-153" style="edgeStyle=orthogonalEdgeStyle;rounded=0;orthogonalLoop=1;jettySize=auto;html=1;exitX=0.5;exitY=0;exitDx=0;exitDy=0;" edge="1" parent="1" source="45SI-ryJiPIYLQKIN5sb-152" target="45SI-ryJiPIYLQKIN5sb-148">
          <mxGeometry relative="1" as="geometry" />
        </mxCell>
        <mxCell id="45SI-ryJiPIYLQKIN5sb-152" value="" style="rounded=0;whiteSpace=wrap;html=1;" vertex="1" parent="1">
          <mxGeometry x="32.75" y="640" width="758.5" height="70" as="geometry" />
        </mxCell>
        <mxCell id="45SI-ryJiPIYLQKIN5sb-158" style="edgeStyle=orthogonalEdgeStyle;rounded=0;orthogonalLoop=1;jettySize=auto;html=1;exitX=0.5;exitY=0;exitDx=0;exitDy=0;" edge="1" parent="1" source="45SI-ryJiPIYLQKIN5sb-148" target="45SI-ryJiPIYLQKIN5sb-24">
          <mxGeometry relative="1" as="geometry" />
        </mxCell>
        <mxCell id="45SI-ryJiPIYLQKIN5sb-148" value="" style="rounded=0;whiteSpace=wrap;html=1;" vertex="1" parent="1">
          <mxGeometry x="214" y="500" width="396" height="70" as="geometry" />
        </mxCell>
        <mxCell id="45SI-ryJiPIYLQKIN5sb-133" value="流程" style="rounded=1;whiteSpace=wrap;html=1;" vertex="1" parent="1">
          <mxGeometry x="1056.5" y="2700" width="184" height="140" as="geometry" />
        </mxCell>
        <mxCell id="45SI-ryJiPIYLQKIN5sb-126" value="流程" style="rounded=1;whiteSpace=wrap;html=1;" vertex="1" parent="1">
          <mxGeometry x="824" y="2700" width="184" height="140" as="geometry" />
        </mxCell>
        <mxCell id="45SI-ryJiPIYLQKIN5sb-100" value="" style="rounded=0;whiteSpace=wrap;html=1;dashed=1;" vertex="1" parent="1">
          <mxGeometry x="308" y="2230" width="180" height="190" as="geometry" />
        </mxCell>
        <mxCell id="45SI-ryJiPIYLQKIN5sb-99" value="" style="rounded=0;whiteSpace=wrap;html=1;dashed=1;" vertex="1" parent="1">
          <mxGeometry x="114" y="2230" width="180" height="190" as="geometry" />
        </mxCell>
        <mxCell id="45SI-ryJiPIYLQKIN5sb-98" value="" style="rounded=0;whiteSpace=wrap;html=1;dashed=1;" vertex="1" parent="1">
          <mxGeometry x="-80" y="2230" width="180" height="190" as="geometry" />
        </mxCell>
        <mxCell id="45SI-ryJiPIYLQKIN5sb-97" value="" style="rounded=0;whiteSpace=wrap;html=1;dashed=1;" vertex="1" parent="1">
          <mxGeometry x="-276" y="2230" width="180" height="190" as="geometry" />
        </mxCell>
        <mxCell id="45SI-ryJiPIYLQKIN5sb-96" value="" style="rounded=0;whiteSpace=wrap;html=1;dashed=1;" vertex="1" parent="1">
          <mxGeometry x="-380" y="2230" width="90" height="190" as="geometry" />
        </mxCell>
        <mxCell id="45SI-ryJiPIYLQKIN5sb-2" value="" style="rounded=1;whiteSpace=wrap;html=1;dashed=1;fillColor=#dae8fc;strokeColor=#6c8ebf;" vertex="1" parent="1">
          <mxGeometry width="140" height="80" as="geometry" />
        </mxCell>
        <mxCell id="45SI-ryJiPIYLQKIN5sb-8" value="插件" style="rounded=0;whiteSpace=wrap;html=1;dashed=1;fillColor=#ffe6cc;strokeColor=#d79b00;" vertex="1" parent="1">
          <mxGeometry x="60" y="290" width="90" height="30" as="geometry" />
        </mxCell>
        <mxCell id="45SI-ryJiPIYLQKIN5sb-9" value="页面" style="rounded=0;whiteSpace=wrap;html=1;dashed=1;fillColor=#ffe6cc;strokeColor=#d79b00;" vertex="1" parent="1">
          <mxGeometry x="-520" y="360" width="90" height="80" as="geometry" />
        </mxCell>
        <mxCell id="45SI-ryJiPIYLQKIN5sb-10" value="页面" style="rounded=0;whiteSpace=wrap;html=1;dashed=1;fillColor=#ffe6cc;strokeColor=#d79b00;" vertex="1" parent="1">
          <mxGeometry x="-400" y="360" width="90" height="80" as="geometry" />
        </mxCell>
        <mxCell id="45SI-ryJiPIYLQKIN5sb-24" value="页面容器" style="rounded=0;whiteSpace=wrap;html=1;dashed=1;fillColor=#ffe6cc;strokeColor=#d79b00;" vertex="1" parent="1">
          <mxGeometry x="363.5" y="270" width="80" height="130" as="geometry" />
        </mxCell>
        <mxCell id="45SI-ryJiPIYLQKIN5sb-27" value="" style="shape=image;verticalLabelPosition=bottom;labelBackgroundColor=default;verticalAlign=top;aspect=fixed;imageAspect=0;image=data:image/png,iVBORw0KGgoAAAANSUhEUgAABLAAAAI9CAYAAAAq34HzAAAAAXNSR0IArs4c6QAAIABJREFUeF7snQWYXEW6hgsChBCcoEGDBgsaNLi76w3ursEXCK7Bd3F3Z3ELIfhCCBBYPDgE3RBc7/PW3so90/TM9Eh3n+5+K08/M+k551Sdt6rOqfrq//8a588///wzmCQgAQlIQAISkIAEJCABCUhAAhKQgAQkUEUCv/3+e/j8iy/DOOOME+I/fo4zTgj8VMCqYs2YtQQkIAEJSEACEpCABCQgAQlIQAISkEAkoIBlQ5CABCQgAQlIQAISkIAEJCABCUhAAhLINYGGELC++uqrcOCBB4YxY8ZUpTJmnXXWcMABB4SePXtWJX8zlYAEJCABCUhAAhKQgAQkIAEJSEACtUygIQSsDz/8MMw///zh22+/rUpdLbTQQuGmm24Kc845Z1XyN1MJSEACEpCABCQgAQlIQAISkIAEJFDLBBSwKlB7ClgVgGwWEpCABCQgAQlIQAISkIAEJCABCdQtAQWsClStAlYFIJuFBCQgAQlIQAISkIAEJCABCUhAAnVLQAGrAlWrgFUByGYhAQlIQAISkIAEJCABCUhAAhKQQN0SUMCqQNUqYFUAsllIQAISkIAEJCABCUhAAhKQgAQkULcEFLAqULUKWBWAbBYSkIAEJCABCUhAAhKQgAQkIAEJ1C0BBawKVK0CVgUgm4UEJCABCUhAAhKQgAQkIAEJSEACdUtAAasCVauAVQHIZiEBCUhAAhKQgAQkIAEJSEACEpBA3RJQwKpA1SpgVQCyWUhAAhKQgAQkIAEJSEACEpCABCRQtwQUsCpQtQpYFYBsFhKQgAQkIAEJSEACEpCABCQgAQnULQEFrApUrQJWBSCbhQQkIAEJSEACEpCABCQgAQlIQAJ1S0ABqwJVq4BVAchmIQEJSEACEpCABCQgAQlIQAISkEDdElDAqkDVKmBVALJZSEACEpCABCQgAQlIQAISkIAEJFC3BBSwKlC1ClgVgGwWEpCABCQgAQlIQAISkIAEJCABCdQtAQWsClStAlYFIJuFBCQgAQlIQAISkIAEJCABCUhAAnVLQAGrAlWrgFUByGYhAQlIQAISkIAEJCABCUhAAhKQQN0SUMCqQNUqYFUAsllIQAISkIAEJCABCUhAAhKQgAQkULcEFLAqULUKWBWAbBYSkIAEJCABCUhAAhKQgAQkIAEJ1C0BBawKVK0CVgUgm4UEJCABCUhAAhKQgAQkIAEJSEACdUtAAasCVauAVQHIZiEBCUhAAhKQgAQkIAEJSEACEpBA3RJQwKpA1SpgVQCyWUhAAhKQgAQkIAEJSEACEpCABCRQtwQUsCpQtQpYFYBsFhKQgAQkIAEJSEACEpCABCQgAQnULQEFrApUrQJWBSCbhQQkIAEJSEACEpCABCQgAQlIQAJ1S6AmBKw///wz/Pbbb4Gf7UkffvhhWHjhhcOYMWPac3qHz+nTp0+47rrrwhxzzNGua40zzjhh/PHHb9e5niQBCUhAAhKQgAQkIAEJSEACEpCABGqdQE0IWL/88ku45557wtNPPx1+/fXXNjMfPXp0uOKKK9otgLU5w4ITpp122rD22muHSSedtM2X6tq1a+jXr19Yc801w7jjjtvm8z1BAhKQgAQkIAEJSEACEpCABCQgAQnUOoGaELD++OOP8NZbb4VTTz01XH311e0SsWqxorp37x522WWXsO+++4ZZZpmlFm/BMktAAhKQgAQkIAEJSEACEpCABCQggQ4TqAkBK93ld999F84666wwaNCg8PXXX3f45vN6AVwGe/ToEY4//vjQv3//0K1bt7wW1XJJQAISkIAEJCABCUhAAhKQgAQkIIGyE6gpAQsa3377bbj55pvD+eefH1555ZUYG6ue0njjjRf69u0bDjvssLDOOuvU0615LxKQgAQkIAEJSEACEpCABCQgAQlIoF0Eak7A4i6Jg/Xaa6+Fww8/PDzwwAPh999/b9fN5/GktdZaK5x22mlh7rnnDl26dMljES2TBCQgAQlIQAISkIAEJCABCUhAAhKoKIGaFLASoa+++iocfPDB4cYbbww//PBDRcF1Zma4DE4xxRRhn332CUcffXRnXtprSUACEpCABCQgAQlIQAISkIAEJCCBmidQ0wIW9Nlh8PLLL48uhe+++24g4HutpQUWWCAMGDAgrL/++mGSSSapteJbXglIQAISkIAEJCABCUhAAhKQgAQkUFYCNS9gQefnn38OQ4YMCYceemgYPnx4+PPPP8sKrbMujovgCiusEM4+++zoMkj8K5MEJCABCUhAAhKQgAQkIAEJSEACEpBAUwJ1IWBxS4hWxMU66qijwr333htFrTwndhbcZJNNwjHHHBN69eqV56JaNglIQAISkIAEJCABCUhAAhKQgAQkUFUCdSNgJYpffPFFOOecc8JFF10UPv/886rCLZY58a6mmmqqcNBBB4Wddtop/m6SgAQkIAEJSEACEpCABCQgAQlIQAISaJ5A3QlY3OqYMWPCXXfdFa2bRo4cmZtdChGvFllkkWgltuaaa4YJJpjAtikBCUhAAhKQgAQkIAEJSEACEpCABCTQCoG6FLDSPRMPa//99w9Dhw6tuohFfKu+ffvGgPNzzjlnQMwySUACEpCABCQgAQlIQAISkIAEJCABCbROoK4FLOJivfzyy+HUU08Nd999d7TMqkaA92mnnTZstdVWcafB6aabrvVa8QgJSEACEpCABCQgAQlIQAISkIAEJCCBsQTqWsBKd0ksrGuvvTaceOKJ4csvv6xo9U8yySThggsuCOutt16YdNJJK5q3mUlAAhKQgAQkIAEJSEACEpCABCQggXog0BACVqoodifcZ599YlysP/74o6z1h8tgnz59wqBBg0K/fv3KmpcXl4AEJCABCUhAAhKQgAQkIAEJSEAC9UygoQSs33//PTz33HPh7LPPDrfddlv49ddfy1K33bt3D5tttlnYd999o4hlkoAEJCABCUhAAhKQgAQkIAEJSEACEmg/gYYSsMBEDKwvvvginHXWWeH8888P3377bfvpFTlziimmiLsMbrPNNmHKKac0WHun0vViEpCABCQgAQlIQAISkIAEJCABCTQigYYTsFIlI1xdd9114eijj46CVkeDu7OrYO/evWOcrfXXX78R25L3LAEJSEACEpCABCQgAQlIQAISkIAEykKgYQUsaOJCOHTo0HDssceGp59+ut0uheOPP35Yeumlw8CBA+NP4l+ZJCABCUhAAhKQgAQkIAEJSEACEpCABDqHQEMLWCAkmPsrr7wSzjnnnHD11Ve3WcRiZ0HcBQ866KAwyyyzdE6teBUJSEACEpCABCQgAQlIQAISkIAEJCCBsQQaXsBKJH788cdw7rnnhpNOOimMHj26VZdCXAYRr3BB3GWXXQKB200SkIAEJCABCUhAAhKQgAQkIAEJSEACnU9AASvD9JdffgnXX399GDRoUHj55ZebFbFwGVxsscXCrrvuGrbddtvOrxWvKAEJSEACEpCABCQgAQlIQAISkIAEJDCWgAJWQWNAxBo2bFg4/PDDw+DBg//SVLp06RK22GKLcOihh4b55pvPXQbtTBKQgAQkIAEJSEACEpCABCQgAQlIoMwEFLCaATxmzJiw1157hdtuuy189913Uajq1q1bdBc84YQTwkQTTVTmqvHyEpCABCQgAQlIQAISkIAEJCABCUhAAhBQwGqhHXz++efhqquuCueff36YbLLJoni1/fbbRyHLJAEJSEACEpCABCQgAQlIQAISkIAEJFAZAgpYrXD++eefw4gRI8J4440XevfuHSaYYILK1Iy5SEACEpCABCQgAQlIQAISkIAEJCABCUQCClg2BAlIQAISkIAEJCABCUhAAhKQgAQkIIFcE1DAynX1WDgJSEACEpCABCQgAQlIQAISkIAEJCABBSzbgAQkIAEJSEACEpCABCQgAQlIQAISkECuCShg5bp6LJwEJCABCUhAAhKQgAQkIAEJSEACEpCAApZtQAISkIAEJCABCUhAAhKQgAQkIAEJSCDXBBSwcl09Fk4CEpCABCQgAQlIQAISkIAEJCABCUhAAcs2IAEJSEACEpCABCQgAQlIQAISkIAEJJBrAgpYua4eCycBCUhAAhKQgAQkIAEJSEACEpCABCSggGUbkIAEJCABCUhAAhKQgAQkIAEJSEACEsg1AQWsXFePhZOABCQgAQlIQAISkIAEJCABCUhAAhJQwLINSEACEpCABCQgAQlIQAISkIAEJCABCeSagAJWrqvHwklAAhKQgAQkIAEJSEACEpCABCQgAQkoYNkGJCABCUhAAhKQgAQkIAEJSEACEpCABHJNQAEr19Vj4SQgAQlIQAISkIAEJCABCUhAAhKQgAQUsGwDEpCABCQgAQlIQAISkIAEJCABCUhAArkmoICV6+qxcBKQgAQkIAEJSEACEpCABCQgAQlIQAIKWLYBCUhAAhKQgAQkIAEJSEACEpCABCQggVwTUMDKdfVYOAlIQAISkIAEJCABCUhAAhKQgAQkIAEFLNuABCQgAQlIQAISkIAEJCABCUhAAhKQQK4JKGDlunosnAQkIAEJSEACEpCABCQgAQlIQAISkIAClm1AAhKQgAQkIAEJSEACEpCABCQgAQlIINcEFLByXT0WTgISkIAEJCABCUhAAhKQgAQkIAEJSEAByzYgAQlIQAISkIAEJCABCUhAAhKQgAQkkGsCCli5rh4LJwEJSEACEpCABCQgAQlIQAISkIAEJKCAZRuQgAQkIAEJSEACEpCABCQgAQlIQAISyDUBBaxcV4+Fk4AEJCABCUhAAhKQgAQkIAEJSEACElDAsg1IQAISkIAEJCABCUhAAhKQgAQkIAEJ5JqAAlauq8fCSUACEpCABCQgAQlIQAISkIAEJCABCShg2QYkIAEJSEACEpCABCQgAQlIQAISkIAEck1AASvX1WPhJCABCUhAAhKQgAQkIAEJSEACEpCABBSwbAMSkIAEJCABCUhAAhKQgAQkIAEJSEACuSaggJXr6rFwEpCABCQgAQlIQAISkIAEJCABCUhAAgpYtgEJSEACEpCABCQgAQlIQAISkIAEJCCBXBNQwMp19Vg4CUhAAhKQgAQkIAEJSEACEpCABCQgAQUs24AEJCABCUhAAhKQgAQkIAEJSEACEpBArgkoYOW6eiycBCQgAQlIQAISkIAEJCABCUhAAhKQgAKWbUACEpCABCQgAQlIQAISkIAEJCABCUgg1wQUsHJdPRZOAhKQgAQkIAEJSEACEpCABCQgAQlIQAHLNiABCUhAAhKQgAQkIAEJSEACEpCABCSQawIKWLmuHgsnAQlIQAISkIAEJCABCUhAAhKQgAQkoIBlG5CABCQgAQlIQAISkIAEJCABCUhAAhLINQEFrFxXj4WTgAQkIAEJSEACEpCABCQgAQlIQAISUMCyDZRE4Pfffw8//vhj+Pnnn8Mff/xR0jkeJIHOJNClS5fQtWvX0K1btzDuuON25qXLfq1ff/01/PDDD4Gff/75Z9nzMwMJFBIYb7zxYt+ZcMIJawoO/YX3Du8f3kP2n5qqvroo7DjjjBPGH3/8MNFEE8WfptogwFj1+++/j2NW6tBUvwQmmGCCmnu31W9teGcSKD8BBazyM67pHEaNGhUef/zx8OCDD4bhw4cH/v/LL784iajpWq3NwjP5nmGGGcIiiywS1lhjjbDkkkuGqaaaKrcDUybbb7/9dnj44YfDo48+Gt54443wzTffhN9++602K8BS1ywBJm+TTjppmG222cLSSy8d+8+CCy4YBa28JgSrF198MTzwwAPhySefDO+//3747rvvXEDJa4XVcbkQf3nXzDPPPGGllVYKK6+8cph99tlrbiGljquo6K2NHDkybL755uGnn35qtFtvqPtlUWODDTYIAwcOzO14sKEqxJuVQAUIKGBVAHItZsGKFZOHE044ITz99NNx0t2nT584gOvevXst3pJlrnECo0ePDq+++mr8MPFeZ511wlFHHRVmnHHG3N0Z/eWOO+4IZ511VnjttdfCJJNMEhZffPEw00wzBVYKTRKoJAGe5yw+DBs2LHz44Yexz+ywww5h7733zmV7pK+fffbZ4brrrgufffZZmHnmmaNwPfXUUysaVLLhmFckwKIdYsjzzz8fLQEXWGCBcNBBB4U111wzYBlsyieBF154ISyxxBJRuF911VWjBbepvgh8/PHH4e67745C5WWXXaaAVV/V691IoFkCClg2jr8QYDUD8WqXXXYJI0aMCGuttVY4/PDDw0ILLeRgzfZSVQJMJJ566qlw3HHHxZ9Yk1x55ZVRGMpLooxMvPfdd99o0r7tttuG/fbbL0w77bROvvNSSQ1YDp7rY8aMCTfeeGM488wzwzvvvBPb6N/+9rdonZWX9J///CeW6YILLghzzTVXFAq23HLLOPnUDSgvtdR45Ugi8Omnnx6uueaaKGpdfPHFYcMNNwxYaJnyR+Bf//pXWG655cKBBx4YjjzyyFyK9fmjVjsl4n2AVTvjQD6XXnqp74jaqT5LKoEOEVDA6hC++jyZCQSr87gOHnDAAfF3Jt9OHuqzvmvxrrAiGTRoULjooovC+uuvH0499dTQs2fPXNwK7k677bZbjHlFuVilJ3aKSQJ5IMBE/LnnnguHHXZYXKg4/vjjw84775wL6wRixGF5dfLJJ4e+ffvGsuHqqECQh5ZjGSBATKU777wzDBgwIEw55ZRRaF1mmWUcH+WweSBgLb/88nEBlvrS+jmHldTBIn377bdh2WWXDYsttpgCVgdZeroEaomAAlYt1VYFysoEAmHgxBNPjJPwY489NhcTmwrculnUGIGPPvooukA98cQT4bTTTgv9+/evuoUgk5vtt98+lomJuKvzNdaoGqS4iFi4Q/3P//xPmHjiiaMVI25R1U6vv/562GSTTaLlImWad955FQaqXSnm/xcCuIhfe+214eCDDw6rrLJKFLEmn3xySeWMQBKwjjjiiFhXClg5q6BOKA4CVr9+/cKiiy6qgNUJPL2EBGqFgAJWrdRUhcqJWwkBfllZvPzyy+MEwiSBvBIgHhYWTsS5uOqqq6oelJqA05tuumnYbrvtwimnnFL18uS13ixXPghcffXV0Y3w0EMPjRYK1U64BhM3DvEXcc0kgbwSIBYWi3xs0nHDDTfESbQpXwQUsPJVH+UojQJWOah6TQnkn4ACVv7rqGIlZFWeYIhMHAiIeMYZZ+QqNkrFQJhRzRAgrg+WVwxUEY9mnXXWqpX9559/jm5ZCGnnnXde2GyzzYx5VbXaMONSCLz33nthvfXWC7PMMkuMjVVNV1cmIquvvnrACvj6668Pc845Zym34DESqBoBFvkQfhGAiXNoQPeqVUXRjBWw8lUf5SiNAlY5qHpNCeSfgAJW/uuoYiX8/fffw4UXXhjjXhHwkkGZsUcqht+M2kkAiw1cXR966KEYB6FaiYEUohVuUFi2EJfBuHHVqg3zLYUA8Q632mqr8P7774chQ4aEHj16lHJaWY754IMPwsILLxxj1hAce6qppipLPl5UAp1FYOjQoWGLLbYIG2ywQQy9oItaZ5HtnOsoYHUOxzxfRQErz7Vj2SRQPgIKWOVjW3NXJq4Du1MhXrHTzj777FNz92CBG48AO/6x0QCuHIhG1UrshoP7LT+xZmEybpJAngngBsUumezoSUys6aabrmrFffvtt8Pcc88dLYCJKdS9e/eqlcWMJVAKgVdeeSXu0rzCCiuESy65xHihpUCr4DEKWBWEXaWsFLCqBN5sJVBlAgpYVa6APGWvgJWn2rAspRLA3YiYUwhY1YxDgnCFCxRWLQpYpdaex1WTQN4ErLnmmitss8024fzzz1fAqmbDMO+SCCQBC6vBSy+9VAGrJGqVO6jWBCxCIuAJwYeESyofLbmbbzMKWJXrT+YkgTwRUMDKU21UuSwKWFWuALNvFwEFrHZh8yQJBAUsG4EE2k9AAav97CpxZq0IWAhX3333Xdy9mDaFO/W4444bevbsGeaff/6w9NJLx10us0LWa6+9Fv7973/HWIHsIFsocnHNESNGhDfffDOixrqVDxvfsFnTjDPOGK3Ei7m9EoeQBUHierK730wzzVSJ6mpXHgpY7cLmSRKoeQIKWDVfhZ13AwpYncfSK1WOgAJW5VibU30RUMCqr/r0bipLQAGrsrzbmlstCFhJaDr66KOjaPT999/H2+R7RCk21iA0An9nt+UkVPH/k08+Oey9997h1FNPbbJhDBZcjz76aNhpp53CJ598EuaYY464q3ifPn3CIYccEv7xj3+EjTbaKFq6Fos1iDX54osvHr788svw97//PWy55ZZtRV+x4xWwKobajCSQKwIKWLmqjuoWRgGruvzNvX0EFLDax82zJKCAZRuQQPsJKGC1n10lzqwFAevTTz8Ne+21V7jzzjvD7LPPHlZZZZVo8YT107vvvhs3p/n888+jFdYNN9wQZphhhoiOWLVJwGLHcCy2SIhXCGEHHnhgtNBaZJFFwoknnhhWXnnleM2DDz44xhjceOONo5BVTMD6+uuvo+UVAhYbO7HRR16TAlZea8ZySaC8BBSwysu3pq6ugFVT1WVh/4+AApZNQQLtI6CA1T5uniUBCChg5bsd1IKAde+994btt98+MP7G2mmdddaJVld//PFHdCu8++67447gn332WbjsssviJhfNCVhc4/HHHw8HHXRQePnll8N8880XTjvttLDSSivFHcV53itg5bvNWjoJSKA0AgpYpXFqiKMUsBqimuvuJhWw6q5KvaEKEVDAqhBos6lLAgpY+a7WWhCwBg0aFAWneeedNzz77LNRvMomRKxdd901sNsy4tXVV19dVMDiy8ceeyzsuOOO4b333gsLLrjgWLdBAsGTFLDy3V4tnQQkUDoBBazSWdX9kY0mYI0cOTKwdTum0lNOOeXY+uV7gliyI1Y2sQLGgJWgmbPOOmtJ7YHrvPjii2H06NFhoYUWClNPPXVJ57V00JgxY8Jzzz0Xpphiihi8c/zxx+/wNWv5AgpY+ak9XBSYNDBQxhWio7sn8Ux68sknA31y1VVXjUFtS01fffVVXIWebbbZwiyzzNJsWcjjpZdein10mWWWiX2ra9euYbHFFmsSV6TUfGvpOAWs9tcWbYsJJzvQFb4r2nJVYt28//77YdSoUdGFqEePHjH+DW1ywgknjIGX29qPeFe98MILYZ555onvqo8++ii+65gkTzfddK1ej3ZB7JxpppkmTDzxxK0ej7XIL7/8En766ae4Cyv3QpBo3J3aWnbY4RY0bNiw6EoFk7wmBay81sx/y1ULAtZZZ50VBSz6y6233hr7KP0+9Rv61tNPPx2ef/75+JxZc801471lXQhxJSQA/H777RcI7r7kkksGhLG+ffs2qSAFrHy3V0snAQmUTkABq3RWdX9kIwlYTBDOPffccN5554UrrrgixhcgMVhgEMDA9JprrmkyYb744ovDscceGwYOHBh22GGHktoDA3rOueqqq6IZOLEO2jOgz2bGzjLEL6DMZ599dph00klLKku9HqSAlZ+aJVbHtttuGye/DLg7Kq4iADNQJw4HcTx23333kvvPkCFDYj+lz/FpriwIwvvuu28UDAYPHhx/ZwWbeCPTTjttfuCWoSQKWO2DyvvjkksuCQMGDAhbbLFFOOecc9rd1mnjp5xySnxH4O6z7rrrxvfQaqutFnr16hXditrSjygbrkbHHHNM2G233eL7jGufcMIJMR/Kmywyit09QtSNN94YLrrooihCEwg6Ccdcm3ECQjWCLzFyEMs+/PDD2OcR4ug7/Nxggw3C3/72t7HvJwRlxK1iiXciwlqyPmHRh+cI/Zfy5zUpYOW1ZmpHwHrggQfCdtttF+gfjOkQxLGeSrv/NddXk4DFu22NNdaI70n6Dc+MSy+9NCy11FJ/eW4oYOW7vVo6CUigdAIKWKWzqvsjG03AYueWM888M9xyyy2hX79+Y+sXQYRBAVsME3+A1TAG9SussEIg4CYxBrLbCrOyzeTg448/LtpGWE3GqoPBOYOK5gQsLKrYIYagmy0lBilMbhjoEIRzsskm+8vhDHpSUM96b7gKWPmpYfrHZpttFie1b7zxRqttkIkwAWURiwk+WywxMf7iiy/iNuL0u+baNX9jgs4KNongt+y0hMhAvyq2XTjHIWDtsssuUXBjy/FHHnkkbLPNNuHwww+Pz4F6TgpYxWuXd+G1114brRiaSwQ65pmPuISVUHMiE+0OEYoJaXOCEe2THcFYTEFgQsDq3bt3tKC67bbb2iRgUadbb711dCdChF1xxRWjwMYCCnngYpSdFJMX76Tse4lzKQeT6vXWWy+KdViHEBiadyFCFomfnE+iXxJnh/ccVo/sksZ7Ci4cRx9DSCuWunXrFm666aZ4PAnLmQ033DD2P8qd16SAldea+W+5asECCyGY/k/fp2/RD+lLfLDa32effWIMKywzs8+YJGCxQyGLmjyP6GcEZWfxhvdg4VhTASvf7dXSSUACpRNQwCqdVd0f2agC1s033xzdhRCqGDTgbsHWxAwCGFQjFBF3gOCXrEZjCZKdAAwfPjwcccQR0W2iI4mBx/HHHx+3L24pJQGLiQKm4sUm5ogIBAPtqLVXR+6nUucqYFWKdOv5YH2x6aabxv7xzDPPtHoCA3ZEWMSCJGD98MMPcfckBCvcn7J9jQE6Vl6IWlgestqc2jgCFn2TiT+pUMDiONyqENeyiUE9lpjs+MRP/k+ZcPfFioVAuEzM6zEpYBWvVd6FPFewcE2JtoooyyQSN/JCywhE1g8++CC6o9NuU7vk+Uy7am5hgut2loBFuRGbeB8hBmGJQXmbE7AQqLAsnn766aPwjJBEop/hioSAd/vtt8cdzIjDg2UXbYZ3JfeFeHX//ffHyTViE/0RMY/7LxT0Lr/88vCPn2MJAAAgAElEQVToo48WBc61sHzE8iQJDwpY9fjEqew91YKABRGeHewciBsg/Q4LRhaDsOBnTIogvP7660dXQ/oqKQlYvDd5P7HgynuR99smm2wSF2fTjoWJugJWZdufuUlAAuUjoIBVPrY1d+VGELBw12Bi/c0330SLCyaqBMZkssHqMvE+EKIw62ayi2k3g3oELQYUxBpANEJsSpZPWJEwAGEgwe9MsJuzJilsFAxOmPCQLxMiJs3E32kpJQGLiQ+uHcVMzHG7wP1CAaty3ZA2tfrqq0c3GVxwGFA2Wnr99dfj4JmJ7F133dXq7TNRhhdWiinxO/Gu6GNMrrNxrxiAH3fccQHRmb6IhVVq4wzi6T9J0C0UsJgM4ILI9xybjTFCGXg2EPOHxLFcB8EaS6zCwLqt3liNHKCAVbyiaJdY5tGns5M/3NpY4KB/Z61weRYjnmJhhMUfYk9qX/ykXSH6wJt4NoivCFo8/9siYKX4h8Q+TG01lQ8xiXhxm2++ebw+QhbWGbTrYgIW7n9YIfMOxDqM47PxpmDAOw/rMdr/nnvuGd0H+T5ZiNBv6IOUBcGPd2Jz7xzunfdjsZSsTmDLMViU8D5GVMNiLCXejUzmYZmHpAVWHmqh+TLUioDFHTBmpI/w/qMfsIgzdOjQuJCKoMU4j/FocldOAhbnIjCz+Mm7jZAVjCdPOumksPPOOzfpj7zXDjvssCjME4aCvo34XJgQtlnU5RmBCE4/zGuCFx4UPMMoayOMefNaF5ZLApUkoIBVSdo5z6sRBCwG3KwUM/BcbrnlooUVE+4HH3wwxvxgAk4ckqxbBBMMVrUYQDBQZ2WZ2B5MZgpflgyYMPlmAFBKYmKAqwWrzaWmJGDhjsgKebEYWN27d6/bSXchJy2wSm05HT+OfsEgOPWPwivSr3BfYuKMa2BziX7DJLS5+B6IAbjlEvsqbRvOtbg+K9GsLOPqV0zsZSKACM3fEaxwXdpjjz1ifvyfiQGTY/oIiQkzbYig3PRrLL9IlJGguQyMtcDqeNtp7Qq4YsMb901c3VL9tHZepf6OcIOgiqXQUUcdFYXNlLCa6N+/f1y8uPfee+PmGsUSmxGkODe8b3h2t0XAYvEFy1r6VuGkEndGynbHHXdECyysuni/FBOw+A4hGMswYk/BGzel5J6LWxPtn/IxLiAV6wO4LRF/B+EYd8VJJpmk3dVB/9tqq63ihg08X+iXPB+yFsa4VCISYhWZh6SAlYdaaL4MeReweJfyPuKdxTMj+z5L8eawakasItQFizq49+IemAQsxBssI7F65L3H8xMhi7EqQjseBGmcSr/nvUocV/otVpHF4jzyLGGhlh0Q6W/E5ctrUsDKa81YLgmUl4ACVnn51tTVG0HAYoLBqhQveibZuAYyiGdCwve4LyUrKwb22cSA4p133onxrFjBwiqrUMBitYyJRZ8+feLOZy0lBv8IZ+SPGFaYUpyRwu9xWcQ9hJhcTKiKxcDKnlPvK1IKWJV5zDCppL0i8mAJUiyl3cuYOLe02xkTY9o97rJcFzclxOSUWIFm8sGgPGvJhosW32OFkXXJYhWZCTnWjJy7/fbbRysO+jmCFIN5rBL/+c9/xuDT/ExCFWVGjCDGD/HtZp555rgKjuCV3Q2qMpQrm4sWWC3zRqDAsiEl2hMiEu07u8smlkq0S6x1WRhJE1EmhyyYpF0Keb9gGcsixHXXXRfF0VIFLN4HXAthlokp75iUuC6TUjYmYYHlnnvuiUIZz/6sgMV7i/ceizT0AXY4POOMM2JsxiQms1iDAIY7Eosr9DOug+UYFhnZxHOAfsc76IADDhjrgpiOoS+l85t7n6VjmajzTGDxB4vmNFFPYhWTcvos996cQFjZ3vNfQX2ttdaKIgHWH61ZT1e6fI2eX94FLN5VLMjw/MAVN7nQFtYbsVh5p9GXiYmH2JwN4o67IOIzfQwhGDd+FgQQoRC30k6mvGsRvxG62aGQ8e8cc8zxl2ZCX6dd85wjPiVx9PKaFLDyWjOWSwLlJaCAVV6+NXX1RhCwmAAzEOBlzwsctwlWjtnKmBV/JhqsSvE9g4RsYpWMwQBWHK0JWFhhITC1lBi84KJUTMAimPRbb701Nlhu9jqIaIgIDOIR0VqyVGACzkSHFfJ6TQpYlalZBr9M3ukbTJiLJXbyI04QCRcEXAmLJVwcsIIiXhX9CosrJuBMVlNbZTDORJbNDVIgaCa3TBKzlh4Iugy0GXRjmYUwjHULkxcG/ogETNBx78T9AhGbVeVkuYjocPrpp8d+f99990U3KlyryIcA0i3t2FYZ8uXLRQGrZbbEpWHbeiaWiKMpMeGk/fDspZ0yieKdkm2XWGXx/GUCSPsjcSwCDEIUz3DeE6UKWPQFLJAQyBBLUnnoE7xDeCfh8sj3CM0paHxWwGKyjAjHIgyLILgTFW4sgoBFf6AP8T5EzOJdRlB3+lg2cT88C7j3YmIv1pP0OSybcdlvznKTayL2MVGmLxMLiLLyXMAdk3woL5YhCljlex7U25XzLmDxrqKd0955FrB4muLQpbqg7eMyz46iCMmpbycBizEgInSynmQcz7uMRRksqLgufTi97xDAsfjnHYwLIflnE+8EyoFwz9iR+JQprmQe24cCVh5rxTJJoPwEFLDKz7hmcmgEAQurDAQsBuaYYTO4ZnAwePDgaHbNihX/R6girkA2Mfhm8s6AujUBi5Xp5nY9S9dMcbKKCVisahPDoFgsLQY0TEoYsDC5bsnCioCfWGkRU6hekwJW5WqWPtBcfDe+J0ZHsqRicszAubnd2VIcqiRgsYrMxBwXKfLBGop+QAwcrBqx0GAwzmAa96gUA4jBOP06CVjQ4Jr0Z1aiCXzLBgy4JOFeQV/HOjK5RGH9yCScPo2YTWwjdl5bYokl4s5Q9WzBqIDVuoCFizntggUNnr20NVxSsVBg8khCjKXNIcLyzKXN8J6gDWcFLI5FhOHdgiiGBQTHthbEnbaK5QXxrRBVsRhGYMWakMkmruT0B94HTOgKBSwWaJjQ0q8Q3XCrpV8gGhVr3/QHJsFsYsDxnI+wTH7ZRF4IcVhgUa7CyTcWWIjSWHzBprkYWFwTVyhYIUIjHOK2BHcm2JSbdxjiGgLW/PPPX7mHXgs5aYGVi2pothB5F7AYcyM+0YcQbhGNeEclIZy/Y62JdSMiF4uWvOfok80JWMCgn/D8IQ4lgjZCFe9C+jpCOO9Y2CByY5GFUMV4lXErzxnKw3MKa1HE7GJhKvJS8wpYeakJyyGByhJQwKos71zn1ggCFkExeSkzoWW1mkkzghUTWtwjeOEjXiEq4RaQTUxQsNxgMFFMwIIf1lFc7/vvvy+prhk0MBHCWiVr6YElCBPwYivWWJAQ54Tg1rixtOS2gMsFMYnYNatekwJWPmqWQLP0GSbbCCO4JjAhzQa7LlbSrIB15ZVXxokqg3Qm9ewMyECdANK4RGC5gsUVYgLuTVikIGAxkcwKWORTGMSdSfmWW24ZLUGwOmEyjiUKIgQTbQbtPA8oD5NxJs+FInY+SHdeKRSwWhewmPgRfwaBhbZHu8O9DUtc2gyTQton1n6Iq1gN4b6HyMVxhQIWiw8sonAtNgtBGGpNwOIcxCTeSymoMu+LZ599NorGvEcoC26J5ImAhUDGRJad/3AtHDZsWOwvtG36QXPCciKSLI4J8s5kGCG50Bqx1BhY5M2EmWtyD1iGwC/r/o5wRd9ncs77jSDTCIDLLLNMPI+/MfmmXxoDq/OeAfV8pbwLWLBnYWb//fePLoT0SRZWEZSwzGQ8yXuPfoZlMH2R5xApCVgs6iAyJQusVJ+vvvpq3GCB8xF8eTZwbRJ54UZIvDkssXDTR6T68MMPA9b/5M2xWGEyNs3zIo4CVj33YO9NAs0TUMCydYwl0AgCFq4MrEbx0mdSwoQ1TU4Qiwhwecopp8QJSNquOAFi9R33qGIxsBhgY9nByjGTjbYkBi24WmRXlcmrOXcLJj4E4EQsYIDRUgwsBh7p05Yy1dKxClj5qC2EXwQmYk3RdploE4QdgamlAXBWwMLiCmGJST8/GWTjOkEbp0/gVssEGMsVJuPsuIT1Ce5arQlYXA/LKgbsTILZZZTVbibmDOARIfidSQP9nGDchduQ54N055VCAas0AYvnLAsHWOQx6cNqj0kniwi0bcRb2j/B0GkziESISCyYFApY5IighNDF35iQtiZg4bJIjEaEWq6b3hW4xCP64h5LXDhEMwQrxDTKyd8QuZjk0X/Ik/5ZaCnVHAUWYpgA09dYKCl8LzGxZgEGEY4JctaFMu0syLU5jw/Hc78IfZSNPkkeiN1MwNNzggUiBDliSi600ELxnYoLIefzvE8T8c7rCe27khZY7eNWqbNqQcDiXcn7hv6Dex/vOPorC0EsQM4444zRbXjttdeO8euS5TDPG9z7EHoRg4u9Y4lzh+iF5SNCPMI5Yjf9iecI70EYsXjLu4B3I880+igbKtTCBiYKWJXqTeYjgXwRUMDKV31UtTSNIGClnV1YScatoVDAwpwbEYsXPC90BvoITAyys3E+ELlww8ju7sK1cOdIuzY1V5kMWLg+E3fOZ9DPRIYBSikp7UKIwMaECWuSet0lrRQeClilUCrvMVh64N7EjkqIS1j8IbAy0Waimtz9ipUiCVi4TzD551r0CcQprsnEOfUz+i87ifI3BvBYYtCfGMS2JmARK4gycQ5t5sknn4zWiYhuTBAQkckf1wkmy/Qt4vrUc1LAal3AwpUNK0LEItoiix+IV4XtEqsFJpS46hG3jYknbbmYgIUwQ0wpLJs4vjUBi7aKpRUB0XHRTc/79D7j/1gUcz0ELCwsmJzShhGAEIj4P+5CxSypmqOAS9Gdd94ZBV76NJNsxLe0uELfRfAlf6yYsxZaG2ywQbQSyX7HtZhEI6IhTnMMlh9cNxvLEbdBJvVYqHFdJuBYYFEe+i6CWh6SAlYeaqH5MtSCgJVKz7iR9o2YhLUw/YY+weIN78Pkcp89nnP4vrnxXxpr8pzgelmrS77jmcVzg/cnvzPeJT8+hfnltaYVsPJaM5ZLAuUloIBVXr41dfVGELBShfDyJlBzVsDib6wIs8rL5BiRikk1AWwZ9DOIwNqD3dWYoBTGBWDXJlyeillOpdVnLEVYESfYNatrWHoRJJgV9FJ3MEoCVgrYSzwDroGrRb1bjBTrUApY1X3MIMYSL2fAgAFRTKXvYJFB32Gyy/dM+JuLCZcELNwgUjwqJqhMxBGriqW00xvxPXA3ot81J2AhOLD6TN9GBGAiTLmwmCQ/YnXRhzgG60a2KsfiBveLek8KWK0LWLQL2gjPbGLQMCnGIqpYQrRKGxPgioOVXzEBC1cd3Ph4hrMxAtZGiE1YeCFs8Q7hOvQDdsfEbREhmDbLjmLFEu+tJGBhXUHf4NpY69InsQojj7YIWLyrEHYRkRDAuA6CG4Jec6I0fRarLYQqLDCTgPXTTz9F93ti7PA91pDE8sIimvcq+bBIhJsgghnCG8IW71naKf2Wa/Bd2tWx2v1TAavaNdBy/rUkYOWbZH5Lp4CV37qxZBIoJwEFrHLSrbFrK2D9t8JY/WJCwcCaQTsxAJjgsiqFdQkm1tmU3Cpa2iacFXTcIohLQLwdJkUEjOdaCGMpfgE/C2MZFDajJGARE4GBPhMcVstwqyAwL1YmxXaEqrHmWHJxFbBKRlWWA7FYQhhissAEF+sJJq1M4Ik3hxUKddRcLI2sCyEbDhDXDUsurK+YOGe38MYSkmvhtsQGDCQCvBfGwKIvYr2B++Kss84a+xgCL/0ZV0Em81iDMOFn8kx/JD9cLnDJwO0i7fKW5/gfHa1QBazSBCwCh2P9hHCF1R4xnBBcUkqWSrQzBFVEUETbYjGw0juGwO9sCsIxuLE3J2DhMotF4OKLLx5jMDb3figUsCgv/YD+RV9pTsDivU8fRnQmkHRKnIuVMm6HCE30G66DgMXiDwJUsUTcKqwacUHKCli4WdIfKT+WaghxiIIIXbRD4k9iKYYbFSIefMkH4RveCFgIe5zLcXlIClh5qIXmy6CAle/66YzSKWB1BkWvIYHaI6CAVXt1VrYSK2D9Fy2xQ1ilJl4WK9kM7JkwZwUsAm8ysUWMwvIDl5CWXAdZySaoNCvHWFtlRatshTJJ4e8tTZqTgIVlGJMeXDiYKDD5xhqGCT3xUgoDw5et4VT5wgpY1asA3B0Qe7HAwpqJCW6ytGLijLtTCpKOIEz7LpyAZwUsJui4bGE5wiSWSTNWGymNGjUqCmQEuUXsop8gLmcFLCa79ElEByxaKA9iMUIWsYEoL1Yp9BmugUUIE2LiYZEvk3bKnALaInzVqyuhAlZpAhYCEwH9eSfwfKX90bZSQthCxMV6COEUK13eIc0JWLR5BNTbb789uqLTBpsTsHD7Q7QhHk1Lu8kWClgcT+Kd0JKAhRUY1oYcj9VkauuIcvRF+gHvN3YsROxFwGIhBwuyYgn3RURg/p4VsLjX/v37x+8pDwIZ70WC09NfsYaGIe7BCHuUhfh3iOFYdXHv9GXy7tWrV/UeepmcFbByUQ3NFkIBK9/10xmlU8DqDIpeQwK1R0ABq/bqrGwlVsAKcbWaATIxSRCSGEgzwC8UsJgE426ERQfuRlhXtbRFOJYjTAhwG2xuMsxknEkPA/qWrLCyAhYTcK7JAB+XK1asiR3CDlSl7ABXtsZUwQsrYFUQ9v9lxeSTyTqTTIK1E1yWiTZWgdmEmIQrLhPWJZZYIk6AcY3Ktu+WBCxi5GDJkRKTdCxbEJWaE7BGjBgRrTew/EKYYlKMFRcWL/RZLLwQqig/ZaH8iAdcj2fgJptsEl0MsWykbyNUcFw9JgWs9glYuNDh1pcSQi7/J45MKQIW5/G+QFzCehYXxeYELMQtEu+HlmIdtlfAwvUdQZcFD/ow7yf6N0IU/Qgxiu/5rr0CFnwIMI8QyLuVWDxseII4RhtkEso7FgtiBL1kaZVEOIRrrNCwikTkbm1n00r1VQWsSpFuXz4KWO3jVktnKWDVUm1ZVgl0HgEFrM5jWfNXanQBiwkFg/YjjjgiBs/EggOrDQbPhQIWK8kMvpms4H7RXOyr1Ciw/GAijGsFllPFEhMUdpJqzT2imICVrkdZiBGCqIVFTHNxh2q+sWZuQAGrsrXJRBb3QMQdBF7aLMIpFirZgM2pVAhF/J3237dv39gHcHNN7krFBCwsM7DAQpjNBnfmWIKxI0ph3UGfYfMDRKsUA4uJPHnhnouwRlw4dg5FDEP4Ysemp556Kk7UCUyNqMW9UDb6DRNrNnNAOKCPIwTnxeKjs2taAavtAhbtkhhPtJWUaJcsdODGze6VWGDhGoc7XTYGFu9Yjs0mRCysmnBbRUTFwos+xiIEbnbZoO3pPNo9IlDWUrcUAQshGYEo208RYbBqxCUQ60Ouy6QQ4Zh+gwsjLraUPQlYWEtxTrGE1Rl9LOtCiHsgizMIWcS06tGjR3zPwYu4Yvfdd190J+SesUzDAhLXxbTYg+UbAhabQuCmDN88JAWsPNRC82VQwMp3/XRG6RSwOoOi15BA7RFQwKq9OitbiRtZwCJgLJYYJ510UhR9GOgTr4PE9ukESWfiwTEMvpk0s5sZIlcpiYkB18aNilg7HUktCVhcN7kyNsrOhApYHWlNbTuXtoU70cEHHxzjVDH5REhi4llMvEpXR4ii/TMZZuJPYHfcXBGxiglYHM+ElqDNxRKiFP0PAQYxDJEsCVgp7g/lYYLPtehz/J3+hwsTeRJgG7Ga79k2HCsTJtjEOMKShoExbkt8jxtxPSYFrJZrFTET8Sa5EGJJi+CJZWGxxDb0xJ6i3bHoQdynJGDBmvaHWJNNWBshiCGWIugkcQaRFfEWd8VCl3KCxbPjLW59KTUnYNFnacNYILKoQTwrykli0Ya/Yf1Fn8Q6CutIBCeEOiygWBDB4gmhLQlYlDEr4GXvBzbs2Ej8u+RCyDODfNm0hL6GpSZlp/8jmGEFhtUjgjju9cTBIv4dZefDe5eyIe5RVo7JQ1LAykMtNF8GBax8109nlE4BqzMoeg0J1B4BBazaq7OylbhRBSxWuJmU4ALCoJzVX1ap0yAZ1z9Wj4kxxe6DTH7TqjkuD8USE28G5FiLkDgXIezmm29u1gKr1IpFwMK9kYl7ciEs9dx6PE4BqzK1SpsnFk+KSYUlIZNSxN9SAp3TF7B0woICaxX6R9pxDWsLJsfstEbcnZYS/Q9BgWDZTNrZIIFJPn0sBV5P5yNmDR06NFpsIbYxQUaMYpJN3yUuD/dBgGvuA+GK3RDPOuusuJkDAhf3awys8rcxRBxiBBKLDJEia3lX/tyL54CQgktpErBaKgdtDdGVxQ/aOi7dWFBhDYjlEO2Jds61OpqweqQtZzcUaU7AQiDDUph4UsTqoi0ny1zeU7R5BCWsqnAlpJz0B65PPCpcdhGZsgIWxzdnBUXfZrfdZCWJkJw2OGnuOcE7Fout559/PgpziIa48sMK4Q+xnHLzNwTovCzOKGB1tCWX93wFrPLyzcPVFbDyUAuWQQKVJ6CAVXnmuc2x0QQsJhasjjNwx0oDlyEmz6wSZ3djYgLAxAQ3QF6WDMJxLSR4NEHciyUG+6x4Dxs2LP6ZATfuS0wMOrp6jPsWk2p2IGRVOq2m57ZhlblgClhlBvx/l6cfYEmBex39hPY//fTTt7prZrZ0TJgRnJjcI1Qwwee6WHwgSOFeSCye1oSCe+65J1p3MDFmcwUmvFhFMtEuTKlvM+lfbrnloqUYIhgWLli9EBMLUStNrhECuD4bNWCNxXmlCHSVqYXOzUULrJZ5Ipzg/srzFgG0tUT8wYEDB4bRo0eHrl27RkEIkZZnPu38o48+Gruo0dq1Wvo7Yg4iUtZFnDyPO+646PaHOyLWXCkh2A4ePDgKRNR5VlCibMSn4/2EaMi7i+OwPsNyEVGRxPiAZy3CM6JWdnfQbFlZDEIExgJtv/32K+n5wHOB9zD9F/fDbt26xU1PeCZQHoRpLLdWWmmlXL3vFLA60orLf64CVvkZVzsHBaxq14D5S6A6BBSwqsM9l7k2koBFBbDyzOCYwXIaoBfGFUkVldyS0v+Z0LbkMsVxDMpTvJMUs6TYBLutjYGJENcmfyYw9Tq5LpWLAlappDp+HG0PtyPaXWvtv7nc6Es8axB1U9uln/Ad/aOlDQzSNTme/kvi+NbO43jyyl6bcvAplh/3ySe5IXacXD6voIDVcr3QBnhHtNa+0lU4nnZJu0rP/Pb2k7a2GPKkb9LWeacVtuvCd1j2Xcax2fdIoRtuOhYW3B/iXHNWUORPOfh7W2Iwcu1soHpYJnf49H3e3nUKWG1tpZU9XgGrsryrkZsCVjWom6cEqk9AAav6dZCbEjSagJUb8BakQwQUsDqEz5MbmIACVgNXvrfeYQIKWB1GWNYLKGB1Dt4kaKedUxGX+S4J/MwdELYRrxHDEa4RsJPwz3d8+C6J350lRitgdU4dexUJ1BoBBaxaq7EyllcBq4xwvXTZCChglQ2tF65zAgpYdV7B3l5ZCShglRVvhy+ugNV2hEmsSrFeiefHLqC4FeNyT7w6xKq0wQK/80HcQtBCmEKkQsRKYhXCFR/CXbABC+EvcMmeZpppxlpzt9faWQGr7XXsGRKoBwIKWPVQi510DwpYnQTSy1SUgAJWRXGbWR0RUMCqo8r0VipOQAGr4sjblKECVmm4EJ4QgtgNlM00iGNH3FfirY4aNSqw+yoiFVZUuCcjRiE4YWGVxKlkccU8AnfgFBaA39N3ycWZ84gzy47ec845Z9zFmN1b55hjjsAOq2ymVKrrtQJWaXXsURKoNwIKWPVWox24HwWsDsDz1KoRUMCqGnozrnECClg1XoEWv6oEFLCqir/VzBWwiiNCsEJgYsMSdgzFuuqxxx6Lu32y6Una6IHNExCU2O10lllmCb169YofNk5BhEqWVlmXwSRWpXh5iFaIX2wygQXXO++8E95///3w8ccfhw8++GDsphZsTMGGEgha7Ay85JJLhvnmmy+KXIhjzcXGVMBqtRt4gATqkoACVl1Wa/tuSgGrfdw8q7oEFLCqy9/ca5eAAlbt1p0lrz4BBazq10FLJVDA+n86uAYiIrG7Li6Br776anjhhRfCE088ES2kpphiirir9jzzzBNFq2mnnTbuQIqINN1005VsEVVKi0BAwzWR/oOV12effRYFLXZxHTlyZBTWEK0WX3zxuCsxZeCDiEY5s2KWAlYpxD1GAvVHQAGr/uq03XekgNVudJ5YRQIKWFWEb9Y1TUABq6arz8JXmYACVpUroJXsFbD+Cwjx6tlnnw2DBg2KotXnn38eraxICEPbbrttWGKJJaJwNdVUU0XLqrQzaWcFW2+uqtKOv1hsIVzhxohF2HXXXRfLzN9xW8QSa6GFFgr77LNPWHHFFcdeTgEr333Q0kmgXAQUsMpFtgavq4BVg5VmkYMClo1AAu0joIDVPm6eJQEIKGDlux00qoCFYPXTTz9FMWjEiBHh6quvDvfcc090+8OaavbZZ48ueptsskkUsPKYEK7efffdcNttt4WhQ4fG2FxYahGPa/nllw/bbbddjJuFuLXGGmuEpZdeOlx66aUxiLxJAhKofwIKWPVfxyXfoQJWyag8MEcEFLByVBkWpaYIKGDVVHVZ2JwRUMDKWYUUFCcJWIcddlg45JBD4o539Z6IOUUsq9tvvz3GtXrrrbfCDz/8EAWetddeO+4AiIBFoHQsrfKeiJ9FXC7iZhFY/r777gsPPvhgLDtB33F7fOCBB8LGG2+sgJX3yrR8EuhEAgpYnQiz1i+lgFXrNdiY5c+TgMVK4DfffBNuvPHGOFA0SSDPBBSw8lw7li3vBBSw8l1Dw4YNi8JN//79w8CBAwNByRGx6tFKB5Hq5ZdfDhdddFEUebwtORYAACAASURBVBB9Jp100rDmmmtGF0FiSbHzX3INzHfN/bV0WJVhlYVAR+D5K664Itx1113RKou5yzbbbBMuv/zyuqzbWqsryyuBShBQwKoE5RrJg5fAOeecE1itOumkk8L+++/vy6BG6q6Ri8mgZc899wwPPfRQWGaZZaqGggHjuuuuGz799NPo1kgAUpME8kwAdwwmdy+++GJ45plnYuDeaiXcReadd964kv6Pf/wj7khlkkCeCRBPaIMNNgirrrpq+Pvf/14TFi155tnZZfviiy/CHnvsERCyEK6wPOId3a9fvxgQHEGnVsUsBB2e34w3iBV1ww03hOHDh8d4VzxHsbaiXc4666yhe/funY226tdj8eWjjz4KgwcPjkLWggsuGE444YSarc+qA7UAEqgxAgpYNVZh5Swu2+riK88Ln0CJxxxzTGBrW5ME8kzgqKOOCpdcckk0K19ggQWqVtTvvvsu7LTTTnFXH2IxrLbaag6mqlYbZlwKAYL5brbZZjGgL24YuJVUK7GSvtRSS8WdrxClZ5hhhmoVxXwlUBKBe++9N+y4447RwuX444+PO6eZ8kMAMYdnHALPo48+GscI/H+mmWaKcZSwTiJ4OWJ5ly5d8lPwFkrCOB3h6sknnwz3339/HG8g5Ew99dRxzIFohZgzzTTTxJhX9Z5YeP/yyy+jdZbvjHqvbe9PAv9PQAHL1jCWAC97XoobbrhhXKG64IILYsBHkwTySoCB3FprrRXNyv/5z3/GQVy1EgNLLBgRfpnM7L777k5oqlUZ5lsSASxIsHhKFiTVnIDTh//nf/4nWoNde+21cWJpkkBeCTBhPuWUU8KZZ54Zd3fbeuutXbDIaWUxtiWW0scffxwQHXm+vP766/H93Lt372ittPLKK0cLrYknnjh3wg879LHb3siRI8PDDz8cA7K/+uqrsb1Rfp6biFcIOMSGqlWrspw2H4slAQnkkIACVg4rpZpFYhvbzTffPO74gUk8MX1MEsgjAVberrrqqnDggQeGnXfeOYpG1Q7SSr9BDGAgTNlcEcxjy7FMEGCXqn333TfccccdcbECIava6dZbbw277bZbnJAhDlS7P1ebh/nnl8CHH34YrRdZRLnlllui5aAp/wRYaBo1alR0K7z77rsDgd6xYOJZg1shu/PxoT6T+x1xo0jlFoYQ2kiIo1h008YIyP7UU09FK7IPPvggIGYxrmAHvvXXXz/07ds3un6Xu2z5r1lLKAEJNBIBBaxGqu0S7pUX6OOPPx7jorDDx3nnnRdf5NVcmS+h2B7SYAQYxA0ZMiTssssu0c2VmDlYDVZ7EEf/Oe2008LJJ58cttpqq3DEEUdEK8Zql6vBmoe32wqB0aNHxyC4xDtcb731wtlnn13V+FepuCyg4JKFJTB9iMWUeozfYgOtXQKIC1jy/O1vf4vi76GHHhrjhSq21lad8q7GdRrX5eeeey7GACQoP7H4sAadbLLJohVonz59Qs+ePcP0008fn5F8z5iD+sZFrz1jY/JGSGMcg2UYiwljxoyJZaFtffLJJ3HHPUQrntXdunULs802WwyRQDB2BDbKw/eOLWqr3VlaCUigcwgoYHUOx7q6SgrmTkBELEn4udJKK9VMjIC6qgxvpigBtog+9thj4xbRuG+wA01e4rUxAGVCg5n/RhttFMvZq1cva1ICuSDAhOnUU0+NixPsUnXllVfGiVqyMqhmIdMCCu63iFnEYtxrr71iOU0SyAOBd955Jxx55JFRvNpkk03igoWhFvJQM+0vQ3IxZCMWBCysnogvRdwshCXEKuJk9ejRI+5kSHwp4mjNPffcYcYZZ4xuhzyjENs5juDwaTyCSMYOgfzEWg9BinywrnrzzTfjz6+++ip+R9B5/o6wRTxCxt2rr756mGeeeaI12BRTTBEFszw8q9tP2zMlIAEJdJyAAlbHGdblFZg8MPFmZxNWHHHrwJ2Ql3R7VpzqEpI3VVECDOoY6N14441xs4GpppoqukDhQpi3xDbP7IyImwKTm0MOOSTMP//8cYDr4DNvtVX/5WGCxio/LihnnHFGeP7556OoiuXVKquskjsA7Co1YMCA6Nqz3HLLRSEL6wfju+SuqhqiQMmla8SIEdFV/ZtvvomuWxdeeGG0jDHVJwEssbDKwiIUzwR2/EPQQpDCxQ9RigVfnq+0keQCCA2CwmMdxd9T4t3Ph+/5idCF+MW4gM/MM88cll566WhNjmjF300SkIAEJPBXAgpYtopmCTBIY2cq4pKwEoW5NCtAjbCzic0ifwQYTCKsMvgjcDsxe5h8Y0afx/Tee+8FLMXoP7gD0HdqabejPDK1TO0jwMSKSRe7NSEE0XewHll00UXbd8Eyn4V7DbFpbrvttmjpgmsNVg+6zJQZvJcvSoD2SBBtFlAWX3zx2HfY7AbrG1P9E0g7/yFeYSHFOAQ3P3Y0RMhibMICAdatiFocw/iZsQouh1hT8ezCKgsRHosuBCuexcSzYjGOxWHGB3zfkR0RCa2AJRe7LFZzU5v6bxXeoQQkUE0CCljVpF8DefPi5sWMWTUTcVbuMXU2tY0AAxzMxbEimm+++eIgxtQ2ApjvL7vssjFwKTEpGAzm3ZqJ+maAy25vTMTZ+Yj+ZGobASaOBMgn7ger1Ka2EWBCRIBito1nty0mVUyi8hw/Jbn1UPcPPfRQ/GCRlbVoaBuFxjwaXojpTLZ591D3prYR4F1D/CGEX34iMmiJ3jaG9XQ0z6ZCq6v0XfqesTOJZ2+yuuJ5m565yQor+11nMNp+++1jTC9cw4mXZZKABCRQjwQUsOqxVr2n3BFg1xviNBGz6cEHH4wB8k0SkEBpBO68887AwHyPPfaILjwmCUigNAJYguCCiTXoI488EuOdmSQggfokwA6uBKS//vrro7WgSQISkEA9ElDAqsda9Z5yRwD3g5122ikMHjw4PPzww3FnG5MEJFAaAQWs0jh5lAQKCbB4svPOO8c4Pk8//XTcVdgkAQnUJwEFrPqsV+9KAhJoSkAByxYhgQoQIDYCO2tdc801UcQiUKdJAhIojYACVmmcPEoChQQI3L/11lvHMADE4sMV2yQBCdQnAQWs+qxX70oCElDAsg1IoCoEzjzzzHDQQQeFc845J24Nb5KABEojoIBVGiePkkAhAdyJNt1007DIIotEN8K8xw20BiUggfYTUMBqPzvPlIAEaoeAFli1U1eWtMYJsAX3MsssE1ZYYYVw1VVXGUy3xuvT4leOgAJW5VibU30ROOOMM8IRRxwRrr766ihkmSQggfoloIBVv3XrnUlAAv9PQAHL1iCBChEgDhbbbxPI/dprr9WNsELczab2CShg1X4degeVJ8DutyuttFL45JNPwmOPPRZ3ojRJQAL1S0ABq37r1juTgAQUsGwDEqg4AbZVxo3wxBNPDMccc0zYe++9deeoeC2YYS0SUMCqxVqzzNUk8Oeff4bnnnsurLfeeqFfv37R6neiiSaqZpHMWwISKDMBBawyA/byEpBALghogZWLarAQjUCACcWwYcPC5ptvHuaYY45w3XXXhSmnnLIRbt17lECHCChgdQifJzcgge+//z4ccsgh4aabbgrHHXdc3InQ+FcN2BC85YYioIDVUNXtzUqgYQkoYDVs1Xvj1SCAFdaAAQPCeeedF84999w4qRhnnHGqURTzlEDNEFDAqpmqsqA5ITBkyJCw1lprhd69e4cbbrghLpqYJCCB+iaggFXf9evdSUAC/yWggGVLkECFCRDMfdtttw1sb37vvfeGRRdd1JXxCteB2dUWAQWs2qovS1tdAp9++mnYY489wv333x9OPvnkuOttly5dqlsoc5eABMpOQAGr7IjNQAISyAEBBawcVIJFaCwCP/30Uxg0aFA4+uijw2abbRZOOeWU0LNnz8aC4N1KoA0EFLDaAMtDG5oAVr4XXHBBdBskgDuWvlNPPXVDM/HmJdAoBBSwGqWmvU8JNDYBBazGrn/vvgoEiIX17rvvhh122CEMHz48HHjggeGoo47SlbAKdWGWtUFAAas26slSVp8Agdv79+8frXqvv/760KdPH98t1a8WSyCBihBQwKoIZjORgASqTEABq8oVYPaNSQARCzcPLLBef/31cOqpp4att946dO3atTGBeNcSaIGAApbNQwItE/jjjz/CK6+8ErbYYovw9ddfRytffjdwuy1HAo1DQAGrceraO5VAIxNQwGrk2vfeq07gkUceCfvuu2/45ptvwplnnhnWX3/9MOGEE1a9XBZAAnkioICVp9qwLHkkgDXvMcccEx544IFwwAEHRMted7nNY01ZJgmUj4ACVvnYemUJSCA/BBSw8lMXlqQBCfzyyy/hvvvuC7vuumvo3r17OPbYY8NWW23lqnkDtgVvuXkCCli2DgkUJ4A17/PPPx/23nvv8Oqrr8bg7YccckiYYoopdB200UigwQgoYDVYhXu7EmhQAgpYDVrx3nZ+CKQJyH777Rfee++9cPDBBwcGIVNNNZUTkPxUkyWpIgEFrCrCN+vcEhgzZky4++67o2DF7zvuuGM48cQTwwQTTJDbMlswCUigfAQUsMrH1itLQAL5IaCAlZ+6sCQNTAARa9iwYeGEE04IgwcPjlZYWGXNP//8WmM1cLvw1v9LQAHLliCB/ydAvKuRI0fGIO2XXHJJfEfsvPPOYZtttnFHWxuKBBqYgAJWA1e+ty6BBiKggNVAle2t5psAk5JPPvkkrqAzMZltttnCwIEDwxprrBHGG2+8fBfe0kmgjAQUsMoI10vXFIHff/89DBkyJBx66KHhtddeC/PNN18466yzwiKLLBItr8YZZ5yauh8LKwEJdB4BBazOY+mVJCCB/BJQwMpv3ViyBiVAXKyrrroqXHbZZXFXqR122CFst9120Rpr/PHHb1Aq3nYjE1DAauTa994hwHsBF/PrrrsuXHjhhQGr3dVWWy0MGDAgvhtMEpCABBSwbAMSkEAjEFDAaoRa9h5rjgCTlbfeeitOVhCzpp122rDeeutFIatnz56hS5cuNXdPFlgC7SWggNVecp5X6wSwzP3000/ju+Dmm28Ob7/9dlh00UVj0PYll1wyTD311Fpd1XolW34JdBIBBaxOAullJCCBXBNQwMp19Vi4Rifw888/h0ceeSScd9554dlnnw29evUKm2++eVhnnXXC7LPPrkVWozeQBrl/BawGqWhvcywBXAXff//9cP/994drr702vPTSS2H66aePFrlMUmeccUaFK9uLBCTQhIAClg1CAhJoBAIKWI1Qy95jTRNgBf7LL78MTz75ZDj33HOjW2GPHj3C+uuvH7beeusoZE044YQGe6/pWrbwLRFQwLJ9NAIBnvVY344aNSrcdtttUbh68803o5XVpptuGoO0zzHHHO4y2AiNwXuUQDsIKGC1A5qnSEACNUdAAavmqswCNzKBjz/+ONxxxx3hnnvuCcOHDw9TTjllWGWVVaJLSZ8+faKF1sQTT9zIiLz3OiSggFWHleotjSWApS3P9pdffjla2j744IPRVXCeeeYJ/fr1CxtuuGFYbLHFQteuXaUmAQlIoFkCClg2DglIoBEIKGA1Qi17j3VF4Ndff40WWUx2brnllvhh56npppsuLLDAAmH77bcPyy+/fOjWrVtd3bc307gEFLAat+7r+c5xE0SouuSSS8LgwYPDBx98EL7//vu4ELH77ruHVVddNboKYmHr7oL13BK8Nwl0DgEFrM7h6FUkIIF8E1DAynf9WDoJtEgAlxMmQDfccENctX/nnXfiBAgha9111w19+/YNs802W7TU6t69exhvvPEkKoGaI6CAVXNVZoELCLBr4I8//hj+85//hM8++ywMGzYsPPDAA2HIkCEBC6xpppkmLLLIItHaig07JppoIhlKQAISaBMBBaw24fJgCUigRgkoYNVoxVlsCWQJYJXFTlVvvPFGGDp0aHRDIXYKK/zsYMg267ig4Go455xzhkkmmcQ4KjahmiGggFUzVWVBMwR4/rKg8Pnnn0eX7+eeey688MILMTg737OwsNBCC0WLWRYbZp111jDppJMaz9BWJAEJtIuAAla7sHmSBCRQYwQUsGqswiyuBFoiwCo/QYC/++678OGHH4bHH3883H333XHixGQKKyyCvi+88MJh6aWXDksttVTc2WqCCSZw0mTTyi0BBazcVo0FyxDg+ctiwjfffBN3DWTjjeeffz68+uqr0fLqt99+i5ZWq622WlhzzTWjxdVkk00Wra20jrUpSUACHSWggNVRgp4vAQnUAgEFrFqoJcsogXYSSG4rWGM9/PDD4emnn46WWUymfvrpp9ClS5e4q9Xiiy8eg8DPPffccYKFhRYxtBC2+Bh/pZ0V4GmdQkABq1MwepFOIIDbNiIVCwW4BLJYgGA1cuTIMGLEiGhhxc9vv/02ilJYVLFIgPXriiuuGJZccskwxRRThPHHH78TSuMlJCABCfw/AQUsW4MEJNAIBBSwGqGWvUcJhBBX/8eMGRO++OKL8Mknn4T33nsvvPvuu+G1114Lr7zySvj666/jDoY9evSIH4LC9+zZM34IKozl1gwzzBAnXghfiFoKWzatShBQwKoEZfPIEkD854PlKs9OnpnEGESo+uijj+KugcSy4nnKs5NnK8ezcyAxCOeaa6743CQIO89S3AUJxm6SgAQkUC4CCljlIut1JSCBPBFQwMpTbVgWCVSQAJYETMywxMJagGDwuLywuyHuh6NGjYrWBclSC/fDqaeeOsbT6t27dwwOP9VUU8WJWQoSj9UWH91hKliRDZCVAlYDVHKVbhHRiWfcDz/8EONSYZ2KKMUHsQqBnw9xrDgG6ytEfJ5zPP8Qp3gWYlm1xBJLRPGfZyWWq0nor9Ktma0EJNBgBBSwGqzCvV0JNCgBBawGrXhvWwLNEcA1ZvTo0eHLL7+MlgZYaREcHrcYrLYQuxC2mMgRu4UPlltM5nA/ROTCUgu3GQLI8x0uM+nYJHKNO+64sQjFrLi07LJ9ZgkoYNkeihFAfMqm7P/5PQn0uPohUiWxnmcbH0SqZEmFNRUiVXq+IVYhQOFOzQdLVIR73KwJtj7zzDPHZ93kk08eBav0PLOmJCABCVSLgAJWtcibrwQkUEkCCliVpG1eEqhRAslaC6ssrBIQshC3mAR+9dVX0YUG0Qs3GsStZKnABJIP1ghM9rBWQNjiJxM/Ahgz+UuiFi42Xbt2HRt7i/Oy/2dCyUQx+0HsKvyO/ycXx/T37P9rtBoattgKWLVd9ckdr/AnzxW+42fhp9j3iOY///xzFKL4mT4IVMmCKv3kOcRzCZGK51ayquIcLKiwEuUnzxwEeGJV8TxCbE9u1IhWiFW4AvLc4rnCM8gkAQlIII8EFLDyWCuWSQIS6GwCClidTdTrSaBBCKRgximgcXbiiBVD9oNbDjFkcE3kg/jFd0wG0ydNDhGtmFimn9nf06Qz+5Pfs580OeW7dM0kfKW80vnZPFJsr7ZUH9dHYGMSjAiX/cnv6f/pb+ShdVlbCP/3WAWstjMrPINYTqmvYmXJ70kQKvyev3M8H/p5Sz+zx6XrpGtznSRiZ6/Dd+maHJv+n35P5xT+n+ulD0IUv/MznZ/Kkn4ijhODCmupmWaaKf6OuzNiVRKssK5CwOLY5PqXngtaVXW83XkFCUigcgQUsCrH2pwkIIHqEVDAqh57c5ZAQxPAQgL3xBQQGVcePuzolXX5Sa4/TFazFhvJQiNZdRT+Lf0dyIWWH+m7Yj/bWinZaxfLK/2dvyFgpckzFmjJCg3Lj8LfmVQnESyJZPxMFmmIcQhx6WcS7grFurbeTx6Pr1cBK4k6WYEoK+gkIQaBptD6iH6RxBxiN9FvsIZMVpH8nv0gMJOylohJTC38riMia3Zzh+z1yTtZRqZypP8X/iy0mkx/TxaZqV+kn/QfLKTSphPJcgqrz47cSx77gmWSgAQk0BwBBSzbhgQk0AgEFLAaoZa9RwnUEAEm7Vn3oGRlkaw50q5gzf0stMZIO4llXZSasygpjKnTGrbsLmXJaiRrPZLKmL7jHgrFueb+z7nJEgTRCoGKTxKwshZfiF3pg0VJEsn4SWwyXKKIRcaHa9aaO2WtClhZcZM2XSguYYWI2y3WivxMLrjNCbhJsEqWTrRpxJ3kCtecBWByzU2Wh1nRM/1eaMnYVuuj1KayFpXJAjK5+Ba6ABeKsK39P7X/1AeSoEvZFapae1r5dwlIoN4JKGDVew17fxKQAAQUsGwHEpBAzRFoTmhqy/ctBYBuC5B0nVJ+ZsW05ly0kriGVQ0WNMTuSZY1SQBB8MCihg+iB/HHsGhDKEvWLeknglWyXEkuVbPPPnuYY445YnwfrFQQuPiJ+JUEiDwJAnkWsFKdIipRF6muCAj+/vvvx90933nnnWhpSJ1mRSgEqJTgjdCUxEfqKm2QkI3LlOIzIUxitZes8LKWd8VcZws3TWjJUqojdZ89ty0bNDSXZ0fK0pZ+7LESkIAEap2AAlat16Dll4AESiGggFUKJY+RgAQkkCMCyZ0sBbTGYgcBK7mRFbqPIXwhqPCTY5OIgoCCaIJYggUXFlqIWrPMMsvYn8QNQlRBTOHYFFuskjiqLWClTQzgDT+EqrRDJ26wfNjYgKDhKRYcxyIqJSshGKZdOpNVHPGY+J0Pv+MKB2es67Luom21hqpk3ZiXBCQgAQnkg4ACVj7qwVJIQALlJaCAVV6+Xl0CEpBARQlkLcGy7pjETEoiF0JLErnS7myfffZZ4MOObfwd8QUhBasshBeErGS5xU9EruSSmI1tVI6brbSAlVw/YYEwhUCFJRW/E6eN75MVHNZtcJh22mnj7pr8nrWSSiIVHJPbZ3KBg1XWEqoc7LymBCQgAQk0BgEFrMaoZ+9SAo1OQAGr0VuA9y8BCTQsgexOklgMJXdELLUQbN54442x7m/sHon1EcIWFluINOzuttBCC4W+ffuGBRZYIAo4CDqdbTFUbgErCX0IVP/+97/D8OHDw7Bhw+KOmQh93Df3hJslQh7i3dxzzx0/M8wwQ3Tlw8IKC7UUqwxLNZMEJCABCUigUgQUsCpF2nwkIIFqElDAqiZ985aABCSQcwK4G2KRhXXWm2++GUaMGBFef/31KGx9+umn0RIJKyKEHESsJZZYIopac845ZxR8cInraByjzhawEO6wRsOS6rXXXgsvvPBCePbZZ6Ngh2CFhRSWU7169QpzzTVXmG+++cK8884bBTvc/RDwOnpPOa92iycBCUhAAjVGQAGrxirM4kpAAu0ioIDVLmyeJAEJSKBxCRDniR30Pvjgg2ix9NJLL4WXX345WiwRUB5rJayxsMxaYYUVoqA1/fTTxxhP7bHO6gwBCyGOMmNl9dxzz4Unn3wylpu4YVhLYVGGSLXIIotEIQ4BjuDpKbB949a2dy4BCUhAArVAQAGrFmrJMkpAAh0loIDVUYKeLwEJSKDBCRBfC+Hqk08+iZZZr7zySnjmmWfC888/H3DPm2mmmcKCCy4YVlpppbDiiitGFzxcEUtNHRGwEK5effXV8NBDD4Unnngi/k5Ae8q07LLLRnGtd+/esUyIWASzb4/IVuq9eJwEJCABCUigHAQUsMpB1WtKQAJ5I6CAlbcasTwSkIAE6oDAb7/9FsWsiy66KNx///3RNe/777+PsaL22GOPsOmmm8bA57jjtRYvqi0CFkHsEa1wbST4+rnnnhvz53sswHAH3HHHHcPKK68cxSpdAeugsXkLEpCABCQQFLBsBBKQQCMQUMBqhFr2HiUgAQlUiQAWWFhmYflEcHRiTeHCh5i09NJLh+WWWy6sssoqMYZWc6lUAQvhCuuvxx57LAwdOjS8+OKL8bpYWi266KJRvGIHReJymSQgAQlIQAL1REABq55q03uRgASaI6CAZduQgAQkIIGyE0g7HhI8HZHpjDPOCE899VTMt0+fPuHkk08OCy+8cNzFrzC1JmBhXYWF19lnnx2uvPLKaOnVs2fPsN9++4XVV189xrIiMHtb3BbLDsQMJCABCUhAAp1IQAGrE2F6KQlIILcEFLByWzUWTAISkED9Evjxxx9jnKxrr7023HPPPVFc6t+/f9hmm23C3HPP3SQOVUsCFjskEt/qsssuC//617+iGMYgfu21146B5E0SkIAEJCCBRiCggNUItew9SkACCli2AQlIQAISqAoBLKfYGZAdAYmVhWshwdUPOuigsNZaa8UdAEnFBCwsut58881oufXAAw/EXQ633XbbsPHGG8fYWsUsuapyk2YqAQlIQAISqAABBawKQDYLCUig6gQUsKpeBRZAAhKQQGMTQMgaNWpUuPnmm8Ppp58efv3117D33nvHD4HWiwlYI0aMCAMGDIhuiJtvvnnYbbfdYoyrCSaYoLFhevcSkIAEJNCQBBSwGrLavWkJNBwBBayGq3JvWAISkEA+CRCEHXfAI444Irz//vth++23D8ccc0wYPHhw/J3dC48++ujw+OOPh7322ivuNHjggQeGXXbZJQpdJglIQAISkECjElDAatSa974l0FgEFLAaq769WwlIQAK5J/D666+HI488Mjz88MPh8MMPjwHZscbCyorYVghZX375ZTjhhBPClltuGQO0myQgAQlIQAKNTEABq5Fr33uXQOMQUMBqnLr2TiUgAQnUBAFcCt94442w8847h7fffjv069cv3H///WGjjTaKMbOGDBkSBg4cGHbccccw0UQT1cQ9WUgJSEACEpBAOQkoYJWTrteWgATyQkABKy81YTkkIAEJNDABgrIT+4oYVuOMM04k8fTTT4etttoqfPzxx+G3334L3bt3j8HZDz300HDwwQePPY6/cb7xrxq4AXnrEpCABBqcgAJWgzcAb18CDUJAAatBKtrblIAEJJBnArgE3n777WH++ecPiy++eBhvvPGioHXqqaeGmayY3AAAIABJREFU448/Pvz0009h3HHHDSuvvHK45JJLwswzzxxv59133427GE433XRhpZVWCl26dMnzbVo2CUhAAhKQQFkIKGCVBasXlYAEckZAAStnFWJxJCABCTQigR9++CEGb7/jjjvC6quvHmNfzTjjjGHkyJFhk002CcOHD4/ugqeddloM2o64df3114dzzz03/s4Ohr17925EdN6zBCQgAQlIIChg2QgkIIFGIKCA1Qi17D1KQAISyDkBXADvvffeKE6NGjUqWmIxGMeq6vLLLw8XXnhhFLT4/fPPP4+C1d133x3Fqz333DOcfPLJoVu3bjm/S4snAQlIQAISKA8BBazycPWqEpBAvggoYOWrPiyNBCQggYYl8Omnn4YddtghBmwnYXE122yzxbhXI0aMCJNPPnmYc845w5tvvhm++uqreMwMM8wQbrnllrDkkkuOjYnVsAC9cQlIQAISaFgCClgNW/XeuAQaioACVkNVtzcrAQlIIL8E2H3wrrvuCptuumm0rCol7bXXXuGMM84wgHspsDxGAhKQgATqloACVt1WrTcmAQlkCChg2RwkIAEJSCA3BH7//few6667RldB3ApbSrPPPnv45z//aeyr3NSeBZGABCQggWoRUMCqFnnzlYAEKklAAauStM1LAhKQgARaJfD444+H/v37hw8++KDZY7t27RoOOuigcOSRR4YJJ5yw1Wt6gAQkIAEJSKCeCShg1XPtem8SkEAioIBlW5CABCQggVwR+PLLL2NgdmJbNWeFRUD3q666KqywwgrGvspV7VkYCUhAAhKoBgEFrGpQN08JSKDSBBSwKk3c/CQgAQlIoEUCxMK67rrroog1evToosdusMEG4eqrrw4TTzyxNCUgAQlIQAINT0ABq+GbgAAk0BAEFLAaopq9SQlIQAK1ReA///lP2H777cOdd94ZELSyiZ0H2alwgQUWqK2bsrQSkIAEJCCBMhFQwCoTWC8rAQnkioACVq6qw8JIQAISkEAi8OCDD4Ytt9wyfP3112OhTDDBBDH21fHHH6/roE1FAhKQgAQk8H8EFLBsChKQQCMQUMBqhFr2HiUgAQnUIIHvvvsuMCBnp8EUC2uuueYKN9xwQ1h44YVr8I4ssgQkIAEJSKA8BBSwysPVq0pAAvkioICVr/qwNBKQgAQkkCHwwAMPRBGLwO7jjTde2GWXXcLJJ58cJplkEjlJQAISkIAEJPB/BBSwbAoSkEAjEFDAaoRa9h4lIAEJ1CiBb7/9Nuyxxx7h+uuvD9NNN10M7r788svX6N1YbAlIQAISkEB5CChglYerV5WABPJFQAGrAvXx+++//yUI8bjjjhv4ZBMuMoVbxo8zzjihS5cufyllsWtyHMdnU6l5EySZYwsTFg+FqdRrlno/5M2xhYGaK3U/v/3221/usVjebbmfQpbUC/VdWD/FrlnNtlGsvRVrG21plx25n0ZuG53dz2jkpT43OtrWS31mldI2aAOIV3vvvXfYaKONwj/+8Y/QtWvX2GdLvZ9SWXb0OdjZzw3usSPP4LbcTzWfg6XWT6ntslJtoy3PwY62jWLvyHprG5353KANlKN+ij2zyvGOLLVPNPeObKltpHFIsTFJBYbEZlFGAgpYZYTrpSUggdwQUMAqc1X8/PPP0WLgrbfeapLTWmutFZZddtkm3z3yyCOBTzbNNttsYfPNNw+TTjrp2K+///77cM0114T333+/ybH7779/mHrqqZt8x3Gvvfba2O8YuCy22GKB/NMkkD9++OGH4Yorrgg//vjj2GMZAA0cOLDJ9fj7VVdd1SRvBp3rrbdevG5WoHnmmWfCXXfd1eT8mWeeOey2225Nvvv000/jBBUXoZTIe6+99grTTDNNk2NhOWLEiLHfkTccV1999SbHvf766+HGG28M8E+JwRqBn7MJln//+9+bBImeaKKJwoYbbhjmm2++JscWu59pp5027Lvvvk2Oe/PNN2P9ZCeE1AvBqLEgySZ2WHv22WebfLfSSiuFVVZZpcl3uFE9/vjjTUS+WWaZJWy99dZh4oknHnss9XP55ZeHjz76aOx3448/fth9993/kvctt9wShg0b1iQf4gptsMEGgXNSevfdd+P9/PTTT2O/m2KKKeJ9E1A7pV9++SVwzWz98LeNN944LLrook3yeeihh8LgwYObfDf33HOHrbbaqknetAniHX3yySdNjj344IMDZcimiy++OIwcOfIvbQOW2YnRG2+8EdtG9n446cQTT2xyPeIvXXDBBYHd8FKibay//vph/vnnb9LWn3zyyXDPPfc0OX/66aePoks2vf322/F5kM17yimnDP379w+0pWyijC+99FKT+6FtrLjiik2OI2/aR7a90c7oZ9n64X4uvfTSMGrUqLHnd+/ePeZNv8ymYvVDf6C9ZdO///3vyJK6T4m8t9tuuybPLP5+xx13hOHDhzc5n+fGkksu2eQ7nhn0tWyiPT/99NPRfZC6J33zzTfh2muv/UvbOOCAA0KPHj2anE89ZvsEz4JlllkmrLrqqk0EomJtgzo/8sgjm1zvhx9+CJdcckn47LPPxn7P8xSBrbBtFHuu09a33XbbJtfkGcxzMNveqJ8999wzTD755E2OJW/6ZUo8L2nnyy23XJPj6N/wzNYP1zziiCOaHDdmzJhw3nnnBX6mxDtns802C7169Rr7HSLKo48+Gj/ZVOy5/sorr8S2kV2UmXHGGcMWW2wRaPMpMVG/+eabw8svvzz2O94ja6yxRujXr1+rbWOeeeaJ5ZxwwgnHHovVHs/BbFvv1q1bZJnNmxOKvSOXWmqp+I7MLjIVa+vFnv/0bfo4fT0l7ofnP20jm26//fbwr3/9q8l3ffr0ie/8bPr4448jy+w7kr8PGDDgL23j9NNPb/I+S20Dltn3M32RPpltG1yz8DkIyzPOOCP8+uuvTdoGz/U555yzSTl5Dg0ZMqTJd7SfnXbaqcl3sKStZ59Z7CzK5LuwrV955ZWBfpkSz/K11177L8+N1C6z7Y28d9hhhyb1yP1ceOGF8fmR0mSTTRZ3PM2ON7gO7+fC+llkkUXCJpts0uR+YHnbbbc1uZ9ZZ501bLPNNk3aJeMN3pHZ++FCPDcYP2UTz7ZXX321yXe8R3lmZt/PjJ94R37xxRdNGPEcLHxH0ja4b/oKnOGz4IILBvpl4eJak4z9T80QUMCqmaqyoBKQQAcIKGB1AF4ppzJpZDB67733NjmcgcSBBx7Y5Ltjjz02HHPMMU2+Y0LCYLhnz55jv2eggsDCxDWbGBQymM8mxAgGYSkxIGdAd+aZZzaJIYOIsuaaazYZ1DEhK5zkM/hZd911m+TNYOr888+P180KBXyHCJVNTAyeeuqpJt8xSWcCgvCTEnkz+Zp33nmbHLvpppvGAWBK5M1AjZg42XT33XdHMSQ7IWMgnx2EczwsKdM777wz9vSpppoqXHTRRXFQmU1MgpkAZROT+kLB5r777ov1kxXPmLDedNNNcbCYTbhGIaBl01FHHfUX4fCwww4Lp5xyShMBa+mll46D5qzwQf0g5mUH3UzcqN8FFligST4M2BEts4nBD/fOOSk99thjUbRh4J8S4hmDaybDKdHWES5uvfXWJtdENCGv7AAZQeCEE05ochztj3OzedMm6D+FwgdCFROEbKKvDB06tEnboI/Rr7JCDvXDJDp7P5xUaAH4+eefh759+zYRa5n8Ul9MYLKT27POOisgIGcTE9HCciMM0YZHjx499lAmEYgMhYIpYhF9PyXa79FHH/0XMWXQoEHh0EMPbTIRpa4RfLL1w/0gfmUFbYQeng+0pcI2WCj28ixhwp1NlJuJOYJOSrRxnnfZZxZtAxEVsSCbEE0K+xT/p69lE5Pvww8/PPTu3TvQ9kgIOEyiCxnTZgon1osvvnh4/vnnm7Dcb7/9wnHHHddkgkm5uZ9s26DOv/rqqyblQUhYeeWVm4guCMm09cK2wTOdNphNtPXCdwKiHc9BhKyUqJ8XXnjhLwIjQmZWAOZ5SR6HHHLI2HNpz0z+4ZmtH8R02kI2MQlmYp4V5BAUqK+sYIrYxKJG4cIGIiTtLZsQpWCZtUZlko4QkxXFEFCY6PN9SjwrTj311LjbZDYVe16us846sZyIECkheK+22mpNBAAm7LDM5s3xhe9I8kZ4RrTJWrHQT+iTiBApIUgh1GUTfZs+Tl8v5FEofCDIIrxnE8wQL7LPS8rN+yz7juScDz74IMw000xNzp999tmbiJu0DeoL4Td7zauvvjr2yez9cKHC5yDiGf0pu7hF20AgRADOXpP3VOG7GHdf3iHZxHODtp59R7J4wvMl9e90PEIiz+yUeJYzfil8btD+6c/Z9kbeDz/8cJN6pG0gXr/33ntjr8mzih1Ps+MNxDX4IBZnE22VfpVN1NeOO+7Y5H5YWGMckm2XPDc4P3s/XIc8OD+bGH8UPm95v/JszL4jGT/xjsyKYoyL+D8LoNmU2gbjNI7hWUCdITBmRbEmJ/mfmiKggFVT1WVhJSCBdhJQwGonuMLTGAQiKCEgFVozdFIWXkYCEpCABCQgAQlIQALtIoBlGSIeC4lPPPFEtHpD4NcCq104c3eSAlbuqsQCSUACZSCggNUJUFlBPvfcc+OHVUFWjR0MdAJYLyEBCUhAAhKQgAQk0OkEsDJrLk5Yp2fmBStCQAGrIpjNRAISqDIBBaxOqADiPuBagOUVAYZxOzJJQAISkIAEJCABCUigVghgoVW4wVCtlN1yhmhRhzs6MeawrDNJQAISqEcCClgdrNWvv/46BuMlwPbZZ58dXx7Fdn/pYDaeLgEJSEACEpCABCQggU4nQOww4o4SY5T4gGxCYqo9AgpYtVdnllgCEmg7AQWstjNrcgbBsRGwCNTJi78woGoHL+/pEpCABCQgAQlIQAISKBsBNuxhYxU21mCXxsLNKMqWsRfuVAIKWJ2K04tJQAI5JaCA1cGKYTcndq9hZxx2M8rudtbBS3u6BCQgAQlIQAISkIAEykoACyx2JWZXZ+K4sqOp49myIi/LxRWwyoLVi0pAAjkjoICVswqxOBKQgAQkIAEJSEACEqgUgT///DPce++9oX///mGrrbYKp512WujWrVulsjefTiLARlIvvPBCjMe70EILddJVvYwEJCCBfBFQwMpXfVgaCUhAAhKQgAQkIAEJVJTAkCFDwsYbbxzWXnvtcMEFF4Tu3btXNH8z6ziB77//PrC7JHXXWjxeA/Z3nLdXkIAEqkNAAas63M1VAhKQgAQkIAEJSEACuSDw9ttvh4svvjjMN998YYstttCFsMK18sMPP4Q33ngjzD333GGiiSYamzvxyT799NMwySSThB49enS4VL/88ku45557Aj8333zzDl/PC0hAAhKoNAEFrA4SZwUjrWK49XAHYXq6BCQgAQlIQAISkIAEGozAc889F7bccsvQs2fPcOutt4app546EuD7TTfdNGyzzTbhuOOO+1/27gPKuqJKG/DB8I8REBAQEMlRAQElgyTJkiUoSE6KZAFBJINIFiRIFEmKoIDEIYgkyTkjQZSkIKDj6Oiafz3lVFt9vpu6+96Ou1h39ce959SpeqtO1a633r0rfff73/++evPNN/shRHU188wzV+3WIu+8805S2lHcPffcc9UMM8wwwZCO6gYCgcBYRyAIrCG0oJgBDz74YHXjjTdWK6ywQvibDwHLuDUQCAQCgUAgEAgEAoFAIBCYaAjYCL/ggguqnXfeOamijj/++KSA8/3dd9+dvhOf7KCDDqomm2yyatddd63OPffcPjdBboOf+9znqh/96EfV5JNPnuC75ZZbKsH560meP//5z6szzjijWnPNNavtttuueve73z3Jde9973ur+eabr5pqqqkmWnNEfQOBQGCUIxAE1hAayCRgAtlnn32qI488stpyyy2HkFvcGggEAoFAIBAIBAKBQCAQCAQCEwmBv/3tb4mcEnvs4osvrj7/+c+n9QWSiWKKayFF1ic+8YkUZP++++6r7rjjjurQQw9N5NN+++1XfepTn6rOPvvs6j/+4z8SdHPOOWclJhbCq0w23z3vrbfeqpBUU0455SSqLddMMcUU1UknnVStuOKKE6kpoq6BQCAwBhAIAmsIjWRn46yzzqr22GOP6thjj6222WabIeQWtwYCgUAg0F0EkOziavz5z3+u3njjjeRe8KEPfahrDzEGiqMhMaLzseu+yzu/DOR2wWRbFYghrezyEAOEe4R65ef6/zjuvWtNGhkFAoFAIBAIDDMCf/zjH5P7oPlafCpxr84///z0QUJx9Xvf+95XzTHHHMmdULyyhx9+uPrxj39cuXeDDTaott9+++ob3/hGH2FFicUdEQFlHh5IQpjdeeed1Q9/+MOk0ooUCAQCgcBoQiAIrCG0RhBYQwAvbg0EAoGeI4D42Xrrravf/OY3ySB2NPpaa601yY7sYAtiF/h73/teIpPmmmuu6tvf/nYil04++eRk/DKa7RbbTR5sEudjr732ql5//fVqvfXWq1ZbbbX0vG9961sVcmuWWWZJv8eJWYNFOO4LBAKBQKBKSh/ECEUOpU+7WEqBWfcQuPnmmxOBte+++6b4VFwJKaCosh566KFqhx12qNZee+30uwDviKpMYP3nf/5nuo5ia/nll+8rFAIL+XTKKaf0CwrfSakvvPDC5KYYBFYnaMU1gUAgMNwIBIE1BMSDwBoCeHFrIBAIDBoBxM2zzz5bvf322y3zEBfjq1/9anXPPfck0koMjR133LGtYomBPPvss7fdtb388sv7do0XWmih6v7770/KK6SVnWE7xkizr33ta4Oqq3qK1UHdapeZgkyMDwusT3/60+lZCy64YHXddddV00477aCeETcFAoFAIBAIVNWvf/3rRJSI6SpYeHkSXuDTOwS48yGvXnjhheq8885LsXXNmXvuuWcKUSIGVg7ifvDBB6dNImorBBaCSVu5F+k000wz9SOwvvCFL1RHHXVUUnaZTztJ5m2E2i677JLKs8Yaa3RyW1wTCAQCgcCwIRAE1hCgNolcddVVaXdjp512ikF+CFjGrYFAINA5AogpJNFNN93U9iaGq4/E1Y4bXj0mRj0TpBDDuN3pRL0msMTo+PKXv5xcKhjf1FdcKl566aW2BNb//M//JNcLu9jt6msBYTHgeTlRj8HB/c2S65GDzZLncn1EuMHyIx/5SL9guer0u9/9rnrqqaf6Fhd2zZGBA3X5aNsR4oJAIBAIBFog4FQ66h+EhVhMoWrtfXexjrABYz5feOGFk2LK3GuOP/PMM6sXX3wxzU1iUS211FLVF7/4xWrJJZesDjvssPT94Ycfnk4n3HjjjdN3yKecuBUuvvjiKa8f/OAHHVdmkUUWqbbaaqvqZz/7WSI0zUeRAoFAIBAYTQgEgTXE1rBIsvgRNDEWHEMEM24PBAKBjhAw7thZvfbaaye5vtxlbUbctLtm0UUXrS699NJ+u7mNCtZLAovRTW319a9/Pbm2IJLOOeec5EbxyCOPtCSwKNPsRsNHkNt55523JYlFOfaVr3wluVrmJFbYCSeckHa+m7nS3HbbbdUqq6zSss0QWBaCXHLWWWedtECcddZZ+2J5nXbaackFMieLBQuHaaaZpqO+EBcFAoFAINANBILA6gaKA8vjr3/9a3XAAQckwvD9739/2nShLKacpsJCWIl/ZbOEIm7qqadObvuUyQgsdsB3vvOd9B2FdTlX5TiRl112WWWuLhNF8+23354IL26HZZxK4QDMSaHAG1hbxtWBQCAwfAgEgTV8WMeTAoFAIBDoCgJ2bY877rjqrrvu6pffb3/72+RugPyh5LFTm4/UzhcidxAvSCGk+2c+85lJiKrZZpstuS8wlnPyTIZ1SdQPhsDK5FkrVZRr1IPrICNdgHhEErJHfXzXzIXQguD0009PbhOMdDvb3BjLupSgqZOdbvWFSU4MeosIBFizwPcWfI4u7zRZLFCRHX300RWMYWrhIdZITup1zTXXhEtkp6DGdYFAINAVBILA6gqMA8rE/POrX/0quQ2aWymtkFU2b5ZYYomk8DXPH3HEEdXKK6+clFHzzz9/igFpHhTjcv/9908xs8TFyicQloUQ//JPf/pT2kgx75pf5bvttttW0003XdqsKtV25ltzVTvl8oAqGhcHAoFAINBFBILA6iKYkVUgEAgEAiOJgGCvXBAQWVzWLrroomqZZZbpKxLDFTlCbSQougDol1xyScVloFmyi8tQPuaYY6pPfvKT1e67797npjAYAsvzHRNut5h7Q6NdXoHbne7KlYKBj+wRUyuXsxGB5YhxZVVnxjwyigHuXq7edpUbJSc0UnnlZ+Vr3Gtn2rHkYm81SnUCi+FvEZINf3grP0KxVL2JLQJP1wWBNZJvTDw7EAgEMgK33nprIvypSqlPQ4EzfH3DZgallBiVOfB6Pl33jjvuqDbaaKNqyy23TMHayxhYXOpt1lBT/eQnP0lq43qiLLYBZLPF/TZkxDszB08//fTV1VdfHe6iw9fU8aRAIBDoAgJBYHUBxMgiEAgEAoGRQED8JGRVJkfstHIn4DqHSGEMi42RE4IHIcPoRawgt5xqVMZ5onCae+65+1wKHn300eT2Jk6T4L7utWsrDZTAUk47xwxuxjlSavXVV+8HHffIE088MV3z2muvpUXUfvvtl1RKeUFVJ7DUF2F11llnVaeeemqFAJO4QtqdpnrKi4F6Oz3xxBOpfo899tgkTfixj30suSIut9xyHRFYCD6qMXHGJHXRRkg7JzbCXIKvRQO3wiCwRuLNiWcGAoFAHYE//OEPSe2D1BD/DyEfaXgQMGeJpWsTyjwmbiJ3wldffTV9Z17nLojI8hvVcD6FUExIyiwEF9e/erv99Kc/Tb9xSXRSMJVWJrDMVeZM7otlym7vcRLl8LR/PCUQCAQGhkAQWAPDa5KrIwbWEAGM2wOBQGDQCJx88snVsccemxQ+OXE/yMHIkVGM3ZwQSG+88UYyjCXGq99LVwGqKAFfs+shl0NxOJBErndk92c/+9l0/0AJLOVEgnGZQA7Z8aeQysnvjGkxQbg8KK9TlW644YZ+CqqSwFpggQWSiyBXv3vvvTcFrFcf5BUjH1nUjLzyXIsFroLIP/cx/hFNns1433vvvVOg3EaprsBaddVVU5yuHL9KHkhDmFk8IBslwdztti+99NLJZSRcCAf9CsSNgUAgEAiMaQTMN+YN8wC3f/9vLqKiNneIs4vgopzysVHy8Y9/vI/AsgGFwLKJQ1FdbkiZU23isBXMh5RY8s4EFvJrxhlnnCTOo3mVy/5UU001prGNwgcCgcD4RCAIrCG0KxnvBRdckCS5Bx54YPWlL31pCLnFrYFAIBAIDAwBcTGQPSWBNbAcJr2a2kgQ8Ux8GecEmOX25t/c87iXMIIHSmAJRjvffPMlsmillVZKgWizqspmwBVXXJFcB59//vm+glEpcY8oT0QsCSxEmw+lE8KI8mzFFVdMpBZDv1USL4v6ikLKvfLhVmHH+pVXXkm3ItCop7go1lOdwKL04opYD8D+5JNPJtcc+UgWIZRdrg8Ca6g9Nu4PBAKBQGBsImDesTlEWZXjUlI4i3fF5c+cef3116fNGepev0077bSJgMoKLAQUhZa558orr6zmnHPOPjBeeOGFar311kunGZqvzL9SJrCo7sTBrKu25GFtU26AjU2Eo9SBQCAwHhEIAmsIrWqXxO69BRcVhMklUiAQCAQCw4VAJrAQS4gnp9tJCCIG6ssvv1xRBWUjlPKK+sluLuOYqwgiiuF84403pqDndQJLftwIkULcGTyDcgqhNBACSxm5L1BKMZbtCiPfqJyolCiSfCdeh2tzakRgPfDAA0lhlV3yXKsedosRRUg2yq52LjACxVsoZMUawisrwOAhCeZuJ3qLLbaYZJe6UwLLQsMGh78SJZtYXWLNBIE1XG9LPCcQCAQCgdGFAAJLjKuDDz44xVoU51HwdgorGx1iNAq2bu7gdu5793A3zASW78xRNm0osBZeeOFUSfPoueee26fw9W9uiObcTGDZbBE7qx7vzLzn+RHIfXT1lyhNIBAI/AuBILCG0BOCwBoCeHFrIBAIDBmBTGAxSMW24urHhY47giDhVESIl29+85tJQYScsVPLPQ954uQ97oB2ZzfZZJOkEGpEYFFHUSpRSImNcd5551XrrLNO+n/3eeZCCy1U3X///YlUQiKJb+UkI0Y19znxrOSB/OJCJ5A78kh6+umnk2EtHpXkGYxvCqmSwKI0e+SRR5JRTgWWY3+pv9P7BGO329zs1MAScOVEoGX3QIY6ksnpjjYk4JSJtHXXXbcvLkmZRycEFtLQqYiHHHJIX2wuu+iws1iJGFhDfg0ig0AgEAgExiwCXAS59tuAEZ/Kho6YjOZJBBa3vznmmCPFn7T5YV7abrvt0nzr5EHzIBLKPRRYs88+e8KCusp1FFzy5RZ4/PHHp78RxH3MdpcoeCAQCASBNbQ+EATW0PCLuwOBQGBoCJQEFlLHqXliXTBS8yl8lFYIFLu0dnn9TnGE9JlnnnkS0UWthHTiptCIwFJKpFhWmYoLhfzh+tAJgSXG1J133ll9+ctfTgorxA03Re550u9///tqjTXWSMFquUMg3CiTKL8QWFRjEpJOORBuWX3FZRD5hSBy0mA71VVGnJuiAPcMeUk+gserI3Jp8803T4sHCT7cCpF0rQgsbhfyzAQaohApqO5Z5eV+6jEnI0499dRBYA3tFYi7A4FAoEsIUPQYR21q2HSwARGp9wggpJBW5gubOWJQ3nzzzenAExsgXPn22WefFKDdvJ0JLPO1uUmMSHEebWAdffTRqd2QWhTS1FvLLrtsZRPGvE1BbVOJSttvYlHGKYS9b+N4QiAQCHQXgVBgDQFPkwg3EBO+xZyFXKRAIBAIBIYJ0rhdAAAgAElEQVQLgUxgMVbttAoSjlSimLLjKiA7MsuJUhRGCBkEEPXSs88+2xckHVmDoBGrqRmBxW1vgw02SPchmxBmt912W0cE1g477JDIJwa4Mmy//fbJiM5uC5RV1GDIHnWiFhMT5MEHH0xuFZdeemky4u0ul+6FcBakHRlUBoNvh788xN+CmV1qyXNuuummlA+S7fOf/3yqq0QRhujbeuut+05n9H1dgdXuuX4XYNepilzPpVBgdYJaXBMIBAK9RsB4RiVrfBf30LgXqbcImPsQUBTJ5lgEFuXVvPPOm9z2zzjjjERIiW+VN1AygYVw5HaP5LIZxHXQnGpzhzrLfIUUE+rEicPmfhtDQgWYN823NojYCDZTPMcGEPdBNkWOrTnLLLP0m/d6i0jkHggEAoFAewSCwGqPUdMrDPBcdCx2LHrsZEQKBAKBQGC4ECiDuDsG2y4u45URyvhFrAvaWsax4O4nvpN4VMauTNAwVrkyNCOwjHWILqciURqJWfXMM890RGBxY9x9992TIc0F4pRTTkm7xeUR3dwfsiuicpUEFgOf+yPXPvcwtrkkGoORc9ddd10KbNtpUk+xuJBo/i0x9inV5A8LJJvySvBTXuW2uMhpoAQWZZZ87aaLPWIhEgRWp60W1wUCgUAvEQgCq5foNs7bnG0eckIgBfFiiy2W4lNKFFhUyEceeWQ6ZZBKWCoJLK76Nl/KOV7sS6pn8yLVlbkXGUl1ReWMDNPWTiA054qFibySPyWXza/swi9+JrV0nEY4/H0jnhgIBALNEQgCK3pHIBAIBAJjFIFMYCk+tRXFkrhRiB07qyXZUq8iIxcpZbd16aWXTm55CKlmBBblFJWUHWFEDHLHvZ24EAokL94Vt735558/xeuww9wsPfXUU/0ILKcQihEiFojTC+W39tprJ7JuMAQW1ZVyI8ZyHC0YlCouO+GC6+bE9YJq61Of+lRTAgsedsBLYs7CwuLAwgR5BV9kY16IBIE1Rl++KHYgMM4QCAJr+BvU/OMEXYQR9/nsAk9NzY3TPC5OYxnX0bXiPdr0oYQWHqBMFFliY5lvEWMIqnri0k5xLe7k448/nk47ZA+YZxFdNnaULc/XncSVHH704omBQCAwUREIAmuitnzUOxAIBMY8AmUMLMHH33777URE2WFlxLZKyBY7vSussEJyGbHD2yoGFrdErodUXYxbKiIuC1RZrYK4M75ff/31tIvMIN5yyy1TPpRYAyGwKKzUjasEw1vQ9sESWFwfEWBcKcpU7mJnYiv/jnQSX2THHXfs2+2uK7CWWmqp6rDDDusjDhFZdrPtYvvAvHxGKLDG/CsYFQgExg0CQWCNrqZEMpmH8inCZekQTuZdwd3NMY0IKu6DCLB2yTzkOflTnxORanEaYTsU4/dAIBAYTgSCwBpOtONZgUAgEAh0EYF6EHfBzKmw1lxzzbSTytWuVBUxVO3scr/jKsBFYbfddqteffXV5CLXisBi3Apuzh3wzTffTCoobn5cFVoRWFRH4nIhnRjC3BoQZ60M4kYKrBlmmKEPObE/OiGwnJYoYLx4H3lnWz3UwW91kqpd01CRwSAvGDo5hbBVnkFgtUM8fg8EAoHhQoACh3u5TYIll1wy4h4NF/DxnEAgEAgEAoEBIRAE1oDgmvRiCxDxUuysl24jQ8w2bg8EAoFAoC0CJYFFdYVQuvvuuxO5hMCidspxnGRGsSSWlGDq/n3ggQemf1M2tSOw3C+ouXga1Ehc7sTFcJJRKwKL8mqJJZZIB17YUXbCUruxslsEFrc97hECE1NPIfTk7VQmpJ2E2LJL3chFgooN4SdOicQlU8B47ppSEFhtu2hcEAgEAoFAIBAIBAKBQCAQCHQNgSCwhgAl8srx7hdeeGGKpyK2SaRAIBAIBIYLgXYEFsVQPu0uE1gURJnUGiiBhawXP0pAWB+nAnYSA0ssD3E1uCG2ch3MuHWDwFJW8arE+KDe+vWvf50O2hDDa5dddukL3i4AruDsgt3Xk3KINUI9JiHexBZxIiIFWxBYw9XT4zmBQCAQCAQCgUAgEAgEAoFAVQWBNYReQMFgIWiB6HSsbbbZZgi5xa2BQCAQCAwMgXYEFle3OmFELeWDgBkogVUv3eWXX94xgTWQmg2EwFpggQWSW+J0003X7xHibnEfpKBCUj3yyCMpUC6XxwsuuKDPfZDbJXfCySeffJIiiim22WabVeqZE1XXJZdcktxsgsAaSKvGtYFAIBAIBAK9REBAeAe5CAifDwvp5fMi70AgEAgERgKBILCGgHoQWEMAL24NBAKBISPQiMC65557qtVWWy3FqWqVHJktILuTBbkGciEUW6o8hdAY98ADDyS3u0bxosTMOumkk5KLnZOQuAsiiU4++eTqzjvvTMdyb7zxxsmlsVESnHb55ZefxNBuR2A5Wtzpg8qHSHI6oNOSclwtZbjmmmuqTTfdNBnzSCcnCmZ3QqosyfVcGrlaNnNrtEmx9dZb9xWf26STnwS+v+WWW/qOPHcB3LlyTjPNNB21bcTA6gimuCgQCAQCgUCgAwR23nnn6r777qu+//3vpzkyUiAQCAQC4xGBILCG0KpBYA0BvLg1EAgEhoxAIwKL4ggpQ2XVKokBNcUUUyQC6emnn04xopzKh2wSr8pv3P723Xff6nvf+14ii7qdGNhXX311cu0rUzsCixvjLLPMkk5aRDzNO++8icDKJJTvuQwKVi/tt99+1aGHHppILGrZd955J32vjki3WWedtWnVPMsJjTkOFuWaIPBOMUSElS6an/3sZxMh2EjN1egBCCwunVwYc3KqlJMMlS1SIBAIBALDhYC4iTYsPvrRjyaX6nzwxXA9P54zdAS+/OUvp80joU0+85nPDD3DyCEQCAQCgVGIQBBYQ2iUILCGAF7cGggEAkNGoBGBhRQRa6rdCXuCvVMeUWq5/s9//nMqj1MDkTzcD0YrgZVdAU8//fSk+GqVpp122qTQEnj9b3/7WyKvMjYIL4HZWwWVd62FXfkc8b8+8IEPJNwcVZ4TcovLZrsg9WV5KcQy9r53IAjyaiB5DLkjRQaBQCAw4RG4/fbb05wgduJRRx2VxrhIYwuBILDGVntFaQOBQGBwCASBNTjc0l0WNFxIqBW4yTgaPlIgEAgEAsOFwHe/+90UUJwrHFe3DTfcsONHi5WxwQYbVNwAJYTJ9NNPX51zzjnJjVCeCJrLLrusuvnmm9sSRR0/uLhQnA5B0utqI4owweEffPDBFL/KYRkCsZdJ+QVUv/baa/sCspe/K79TB3fddddqu+22i3ggg2mguCcQCAQmDAJi+jmxlXs0FzREfaSxhUAQWGOrvaK0gUAgMDgEgsAaHG59d1FhOe3KrnnIrYcIZtweCAQCA0IA0YPkoRKiMBKHqtNEjYQYevHFFxNZRTnEbWSuueZK41lOxrh2KqdOn1m/znONmzl2Vf6d4kmg9N///veJ3HJARj0YvTpTLnF7LFVV8pAfNZR7KawEs48UCAQCgUAg0ByBILDGfu8IAmvst2HUIBAIBNojEARWe4ziikAgEAgEAoFhRAA5ZWMAcYaMEgy+TnINY3HiUYFAIBAIjHsEgsAa+00cBNbYb8OoQSAQCLRHIAis9hjFFYFAIBAIBAKBQCAQCAQCgcC4RUDwbzEQV1hhhXSQRMTAGntNHQTW2GuzKHEgEAgMHIEgsAaOWdwRCAQCgUAgEAgEAoFAIBAIjBsEnFz78ssvp9hX0003Xahex2DLBoE1BhstihwIBAIDRiAIrAFD9u8buLmY7MWhmXPOOScJMjyErOPWQCAQCAQCgUAgEAgEAoFAIBAIBDpCIAisjmCKiwKBQGCMIxAE1hAaUHyWc889t9p3332rI488stpiiy2GkFvcGggEAoFAIBAIBAKBQCAQCAQCgcDAEQgCa+CYxR2BQCAw9hAIAmsIbYbAcuT8brvtVh1xxBHVjjvuGJLrIeAZtwYCgUAgEAgEAoFAIBAIBAKBwMARCAJr4JjFHYFAIDD2EAgCawhthsBy1PtXv/rVaqeddqr233//dFpWpEAgEAgEAoFAIBAIBAKBQGAsICAkxltvvZVOfp1qqqnGQpGjjA0QCAIrukUgEAhMBASCwBpCK5vwr7/++mqrrbaqFl100eqHP/xhNfnkkw8hx7g1EAgEAoFAIBAIBAKBQCAQGD4E/ud//qc6/vjjq0MOOaQ66qijqm233bZ697vfPXwFiCd1BYEgsLoCY2QSCAQCoxyBILCG2EAvvPBCUmDNNNNM1aGHHlpNM800Q8wxbg8EAoFAIBAIBAKBQCAQCASGB4FXXnml2mGHHao77rij+vnPf14tvvjiw/PgeEpXEQgCq6twRmaBQCAwShEIAmuIDfPPf/4znUI49dRTp8+73vWuIeYYtwcCgUAgEAgEAoFAIBAIBAK9R4A3wRlnnFHts88+1cYbb1wde+yx1X/8x3/0/sHxhK4jEARW1yGNDAOBQGAUIhAE1ihslChSIBAIBAKBQCAQCAQCgUAg0EsEkFeXX355td1221WzzDJLddFFF1WzzjprLx8ZefcQgSCweghuZB0IBAKjBoEgsHrQFH//+9+rhx56qPrABz5QzTDDDNWHP/zhpMyabLLJJnka46FR6vTabl+nLGMhz07L2Iv6jOSzx1t9RhuWw/U+9qIdG+UZ9ek/ug6lvw0Vy160+UjWZyjPhkUjPDvNs9PreoF5L/IcbfUZal+P+vx73BntWCrf7bffXh199NEp7tUqq6wSsa96sC4YriyDwBoupEf3c/7xj39UPpHGLwLGbtzCRFXLBoHVg779zDPPVFtvvXU60eVjH/tYIrAYdKeeemr1kY98pO+J//Vf/1WdcMIJ1QMPPND3nVMMN9lkk2rVVVftZ0Tceeed1UknnVQJtJnTxz/+8RR3633ve1/fd7/97W9Tnv7mpHN/4xvfqD75yU/2q62g81dffXU6dUbyIqy00krVlltu2c8VUvk8+5133um73zPJzLlN5vSXv/ylOvLII5NLZTbakHiC3C+zzDL9nv3LX/6y+sEPfjBJfQQQff/739937VNPPVUdccQRFaxy+uhHP1rtsssu1Zxzztn3nefZObziiisqbp05rb766pUJvQxGes0111Rnn312v/LMPvvsKc/pppuu7/v//u//TkbdI4880lcf+Xzzm9+cBMtzzjknYVmmJZdcstpmm22qD37wg31fP//886k+f/rTn/q+E/jfc6aYYop+z4bPrbfe2i/PzTbbrFpttdX61eeGG25I8v/cjm6Ye+65kzsA/HN67bXXqhNPPDG1T5lgPtdcc/X77uSTT65uueWWvu/Ue+WVV648/z3veU/f948++mjqb/p6mU477bRqyimn7Pvqz3/+c+qrzz33XN93cPnKV75SLbvssv1I05tuuqk688wz+/UN7SKwbNnXn3jiiYRb2S/FoNt111379Q0PPPfccyvtXvZ1OOobpdsvLPWN+nsGyzK+nb7+ne98p9I/y76uDy200EL9sPjpT3+aTist22fhhRdO/a1eH3WUd07qrb9NP/30fd/97W9/SwdG3Hjjjf3yNG584Qtf6FcfO+vnn39+v/IYB77+9a/362+vv/569b3vfa9ffdx00EEHVfPMM0+/+4877rjKeJSTvmHc+NKXvtRvIm3UN/SdU045pd9hF3ncgGVOcNliiy2q5ZZbLtWHIeZ91DcuvPDCfu+4vusE2HIS/81vflMppz6fk/dMO3rXy6Q8xqPcjuqz1lprVRtttFE/LMWGOf300/uNRcZzbVYe3qE/eqfERyyfLb7MIoss0ved/vCLX/yiYX3222+/fn3j4YcfTn0dBjmJu7jbbrul+Is56bfGonrfWHfddasvfvGL/erzk5/8JPXLMukbO++8c79311jl2ea1jNH/+3//L2FunClTfdww762wwgrV5ptv3q8++ob2qb+7sCzHy7/+9a9pzLrvvvv69Tfz6/LLL9+vPj/72c/SHFASBp/+9KerPfbYo9/pwNpFXy/nSG1+2GGHTaI8MVaX87P+u/baa1cbbrhhvzHr17/+deobxrmc1N0Ybv7P6e23307vs/ctJ+M+9YuDYMrk3VWfcj6beeaZ0zha9nWbZdrHuFD2DeMgG6HePr/61a/69fX111+/0j/KcfDKK69M40Z9Ttlzzz0n6evKY17LSX333nvvScZgY9ZVV13Vr32WXnrpavvtt6/0p5wefPDB1De0fU7q/a1vfWuScQO+xqKyzY0bSJiyPuoCzzJ99rOfTfFL6/YTW6esj3v0jTnmmKPf/d/+9rcrc1BOuW+st956/ebIu+66qzIfln3jQx/6UJo3/c3Ju2C8LfslLJFKylqSgo3mlAUXXLDSPiWWTz75ZLLTSnvDnGIctLmak3YWA2vaaaftV/Z+FY7/GRMIBIE1Jpqp54W0Jrj55psbbhT1/OHxgGFBwLxnvDf/T8T420Fg9aCbWTwhciwiGKp50cFwLheiFv0mm+uuu66vFDojY2mnnXbqZ0hceumlabFP3ZXTvPPOWzFGSwPZwkCejz32WN91SAz3M/jLtNdeeyViKhupjHjG0jHHHNPv2crHKPzjH//Yd7tFhkXVjDPO2PcdI8kCmjGfk4UdQ23TTTft+85L96Mf/SgZj6XRPd988yXSpKyPRaM8Gf6lMev+xRZbrJ8BdsABByRjrTT4LdQtQkrS5fvf/35a+JXJwpKRW0rnGZQWfRbN5eLWorOO5e67715ZvJVpgw02SN+VRA7j3OL41Vdf7bsUCXj//ff3I88s6vUBC5gy6VcWmGV9zjrrrIRludhYYoklksFeLqyRRxaSDOoywbzE0m9Ix5L48DyLLKRNaSCbIJFaJVHg/hdffLFffd54441EvJWLQQs3A2+dREI2fe1rX+vX17XLPffc08/gv+2229JCsuyXFmzKXa8Pw167575hcQPHww8/vB+WiDN9o94vYVkuBvV1iz471znpt55t8VQmz7DIqxOr55133iT1sfgpFxuzzTZbIjn8zQmZ693V7mWbI00s1kuyFr7IkDLpu56NCM5Jexlfyvr4Td9HxJYJUWY8ycnz9A31LAlTpJC2LfuGvmN8LJ/95ptvJlKgHDcs7IxD+pa2Qix6t42nxrZyZ1FbIyfLZyM8lLNciJrgBSeuEwVIZuNJfsdtInifLVBLLJE9O+64Y7+xyAaFflkaD/qjPmB8zMk7brG9xhpr9BuzjI0W5iVhqj7I8JLIUX99vSQ3jf/IPH9zMtcoOxK27BsIhXp99Bf9st43vH8lkW9haxws28eiH+bGmTIhlmCZk0W3seS73/1uv/roG2LtGBdy8n7dfffd/TZ5jPv6JeIjJ2MRAsr3Zft4BixLMkM7IOpKwseGhHHQXFnmabMA4VUm/VI9c9J/jSXmmpJQuOyyy1Lf0JfLuv/ud7/rt8mj/3qfvG85eReQqOaFMnl3tVnZ1+eff/60qVH2dX3DXFNu8iCd9Q1zapm0xQUXXNBvPkNE6h8llk6j23fffSeZU2BZvrt/+MMfKptE5rWyryMTkS45aRPPQEaW7aMPIHdKEom94d0tCR/E6rXXXtvvPTNOmiONRWWexg3flwQW0tD3ZVpnnXXSRklJIukTbB2kYJnMNfVxAzHr+5yMG8Zlz/LvnGCBvC77BpsA+VVuaMLSRsDjjz/ed+9UU02VbAhlLevTaE6xwaR9yg1A4zmMS3vDXKpM9Y2JfhWO/xmzCASBNWabrmsFN/fbgEN0G9fNWxGfuWvwjnhG5jt2AbtR+5q3SkHHiBdwmAoQBFaPgNaxGFgWwnnhaqe8NBINMoyWcqeRUcyoKUkcRWScurY01BhJFlClIe25jORyQeR3O2ulkShPBhWSpszTcz2/zFP5LMrKBbjB0A5evT4Wq+Xi33WMsHIx5tkWYvKs1wfBVw608pJnuRizgLFgrMsm4W3BU6+P55dJncuFk98M8AzzkhiSj2eXqodmWMqvVBPIU509u6wPAlKeJZYw1I4llp4Nn3LBKk9tU5JSvvNcbVnWGzYWoWU7GvD0obJ93A/zOpauK58tH32D4V3mCRvXlvWRZ6O+zoguCdhmfcPCBZ5lfbSL/lY+eyB9o1H7wLFcQCh3o2d7z+o70/pjSU67V330y3IB4XtEtU9ZH9fob53URzvW+2V+d8t+rW1KFZ/fvA/lwsl3xgHlLPvbQPqGepeLZXWwCKyPG436hmuR3p2MG/KTr75F3WJxiCBB0JSpUV/Xz5SzXPx7pnYsCVj5NOrr+kZJPOcx2DtZjkXy1C/Ld1x5veNlX3cdEqveN7SPcavduwtLedbHS32oXCz7vVHf0C/q9dEnS7K0Wd9QH1iW44Z21C/bjRvy1IbGwfq4Ic/6uG4cLLFsNkfKryQecl+vY9noPWs2RxoH630D5vX5udO+0WgchCVCsN4v1ackpZrVR/mUs45lJ32jWV/XNzoZN7S1/lZ/d+vjut9dV+8b+mW5EZXnSO9Fu76h3t7d+rO9j+VYJE9Y1u2nRs+Gt3Gwbj8ZD8p3V576Zb1vqHfdNtA3YFnmqXz1cUMfNw7W+7q+UdpufodPvW80enebzSnes3J+NpfAshw3emQGR7YjgEAQWCMA+ih7pPcdgUXgQM1KKR0E1ihrpCEWx5xCsW5Dy4ZLXSE8xOzHxO1BYI2JZopCBgKBQCAwMRGwoKM8pBZCYtVVQxMTlah1IBAIBAKBQCDQH4EgsKJHZAKL2p2HRX2zJxAa+wjYWONdYXOXZ0sQWJOljaO0eeTv/zaLPjn22z5qEAgEAoFAIDAGEKByEMOPK43YLVysIwUCgUAgEAgEAoFAEFjRB/ojkAks8fSosOrq0cBr7CPALhZigF0cBNZkVfovCKyx37GjBoFAIBAIjBcEuEeJ8cMQE18mCKzx0rJRj0AgEAgEAoFuIhAKrG6iOTbzCgJrbLbbQEodBFZVhQvhQHpMXBsIBAKBQCAwrAgIJC+IuNg0QWANK/TxsEAgEAgEAoExhEAQWGOosXpU1CCwegTsKMo2CKwgsEZRd4yiBAKBQCAQCJQICOLtZDnBKgW+DgIr+kcgEAgEAoFAINAYgSCwomcEgTX++0AQWEFgjf9eHjUMBAKBQGCMIvD8888n9dX999+fTtLad999w4VwjLZlFDsQCAQCgUCgtwgEgdVbfMdC7iNBYDml2Ml4Tkytn3jcKWbud3ptq6DzNjWdZmtDs37Ke6fPGQ/XBYEVBNZ46MdRh0AgEAgExh0CJmgnDp500knVvPPOm44K3nXXXYPAGnctHRUKBAKBQCAQ6AYCQWB1A8WxncdIEFh33XVXtf/++1errrpqtfvuuw8YQAQYtf3f//736vDDD09EWKP01ltvVcccc0z10ksvVUcffXQisXJCgL3yyitVu/PnZphhhuqNN96onHBdTwKBTz311NU000zzrxPt/i89/fTTKYzFYNJ0001XzTLLLNW73vWuwdze8J4gsILA6lpniowCgUAgEAgEuoMAA+S6666rNt9882rWWWetvvSlL6UTV3bccccgsLoDceQSCAQCgUAgMM4QCAJrnDXoIKozEgTWL37xi2qdddaptthii+oHP/jBgEv91FNPVcsss0y10EILVT//+c+r973vfQ3zePXVV6vNNtusevbZZ9PBPsionE477bTq4IMPTuqsVmmPPfaofvrTnyYSrJ6c2PjVr341bZa+5z3v6fvZMy+66KK+k+7YqD6Z5PK3/K78/2233TaRbu9///sHjEuzG4LACgKra50pMgoEAoFAIBDoDgIvvPBCtcsuu1S33XZbOib4ve99b7X11lsHgdUdeCOXQCAQCAQCgXGIQBBY47BRB1ilXhBYr7/+eiWkQzN1E1ttr732qtZcc80Uq7RRQupMO+201cwzz9xP3UQJddBBB1XHH398deyxx1YIn1L9VObVisC64oorqnPPPTcRWBRTPosvvnj15JNPVoipRRZZJOWLaEN+qVOZ3nnnneqee+6pdtttt6QmY3fmtOmmm1b33ntvtffee1eTTz558gigAFt77bVTfsiun/zkJ9Xtt9+e6v/Rj360YscecMABaQP2uOOOa6oqG2DzpsuDwAoCazD9Ju4JBAKBQCAQ6BECZNoHHnhg2iFjjDMGbrnllmrLLbcMAqtHmEe2gUAgEAgEAmMfgSCwxn4bDrUGvSCwLrzwwmSXNXK7U97/+q//ql577bUUv4r7XaPEhU5MU2p6sa5yevjhhxPxxR0QAbXAAgs0haAVgYW48lFGZBjVEzvyyCOPTGWiDHv3u9+dyCbXiadVpieeeCKRUVtttVVDAuvuu+9OJF0msJBSX/jCFxKJJV8E1p133plILkQdAgsx550MAmuovXrS+//xz39Wr73+h3+p4vznL7dPf/+3nSNp98sTOQYCgUAgEAhMUAT+9Kc/Jfn2j3/840RWMTzEQiApDwJrgnaKqHYgEAgEAoFARwgEgdURTOP6ol4QWMibK6+8chLSJwPJBfCSSy5J5BMyqlFCLnz605+u1lprrT73PETSIYcckuKdfu1rX0shIl588cXq97//fcM83nzzzWQXvvzyy4kUEq9KWmmlldJfpBQCC3nl9OrLL7885UkRdeaZZ6bnIpsapccee6xaZZVVGhJYVFRcCOspuw36vlmMK4oyyrJmcb0G0xlDgRUKrMH0m7gnEAgEAoFAoIsIMAIYLd///vcrcQyWWmqpZIDMPffcaUclCKwugh1ZBQKBQCAQCIxLBILAGpfNOqBK9YLAaleAwcbAoljafvvtk0veCSeckGJoIbKuuuqqho9EUP35z39Op1JPMcUUfaQR5T47kiLq+uuvT/cKCE/phSRjR3IJ/NjHPpZOtf7whz88Sf6NCCx5PPPMM9Wjjz6aTlmsJ4qwM844I5FTO+ywQ8M4V87jzAQAACAASURBVNRYc801VzqMqBl51g7f+u9BYAWBNdA+E9cHAoFAIBAIdBmBRx55JMUd+PWvf51OsXEKjeDtebIPAqvLgEd2gUAgEAgEAuMOgSCwxl2TDrhCY4XAUk6K+7PPPjuRTQgsJBBXvnp8qgxCVmD97ne/S26C2V1xxRVXTATWaqutllz3qMDOOuus6utf/3pSji299NKJxLrsssuqBx98MLkB1lMjAkteDhNqVh6nJyoLZddMM83UVIXlNy6GSLdupCCwgsDqRj+KPAKBQCAQCAQGgYCdMUEvBWy3w7XRRhsl2bddsjJlAotxQw7eLMDnIIoQtwQCgUAgEAgEAuMCgSCwxkUzDqkSvSKw/vrXvyZllGDu9fT4448nIuozn/lMteGGG/b7mQpq/fXX72fXcfM755xz0sal9Je//CURWAitViqlVjGwMoElGDsV15577ln98Ic/TK6GysTFTxyv++67LxFm6lMmQd+RVdtss01fDKw33nijOv/885Pqq1FCev3sZz+rFltssWr55ZdvSmBNOeWUKQxGs9MVB9rgQWAFgTXQPhPXBwKBQCAQCAwRATJwhoiYAgJrkmaLE7DTTjslI6dOUAWBNUTA4/ZAIBAIBAKBcY9AEFjjvonbVrBXBJYYpTvvvHN1zTXXVG+//XY62e/9739/stfYdDYkkUTUSJL/F9w9xzGlgpJcy82Pu6ATCYWKuOCCC1KcKASW32+44YbK89Zdd91+Ad87JbAEYt9vv/1SEPcjjjiiH4F1xx13pI3QG2+8sV9ML2qqV155pdpjjz0mCeKuLldffXWK81UGsqfQcjrhPPPMU80333z92gY+6oPU63YKAisIrG73qcgvEAgEAoFAoAUCb731VjIc7L45XXD++eevtt5663Q6zQc/+MGGdwaBFV0qEAgEAoFAIBBojUAQWOOnhyBNMhk0kFr1isBSHoojCiyqeaoi4R6alZGdJ64pYof7HDe6TGD5fwTTd77zneq5556r9tlnnz4Ci9qJEuqBBx5I3yGxcoD0TggsNiYXwvPOO6+6+OKLq3333bfiYkj9JLYq1b/N0ttuu6363Oc+1y9ulbqsscYaKZZWqQRDWinLAQccUC277LLV7LPP3tIT4Nlnn00nEp5yyimVAPDdTkFgBYHV7T4V+QUCgUAgEAg0QIC82+4Wo4XkmjHEiLBDNeOMMzaVXssqCKzoUoFAIBAIBAKBQBBYE6EPsJfEa/rUpz5VzTHHHAMKm9ArAqvE/Zvf/GaKQUWRJO5UXTWPRFp77bWrhx9+uBLgffHFF+/XbOJGObiHOumkk05K7n5ZgYU4uvnmm5PLHRXWpZdemogmz+iEwGJn5hiqCCuhJ8S9QmCxO++6665kezrpkEJLkPUyeX79RMGSwKLQWmaZZVq2CXIMeXfiiScGgdWjF/Yf//xn9drrf0jtkP7zd7LJqsrf//UGRQoEAoFAIBAIBAaJADm4I48ZMeeee24yGhZccMEUo2CFFVZoSVzlR1533XXV7rvvXm222WbV3nvvPciSxG2BQCAQCAQCgcD4RSAUWOOnbdlMhx56aDrYhiqIq12j0/PqNR4OAkscKbGi2HZUTksuuWRSYqEN2Hj7779/IocEURd3qplKi32I5KkTWNz5EEDyQRb592yzzdYRgeUwIMHd3bvpppumuF3IwCeffDKVze8ILGW3mTrddNO17TQlgcXtceqpp255j7AYnnX66acHgdUW3cFdEATW4HCLuwKBQCAQCAQ6QCDHu3rppZcqRglD5hOf+EQyGuq7XM2yYwwIsCk+lnsjBQKBQCAQCAQCgUB/BILAGj89AgFCoY6A4bK2yiqrVJtssklSZYk91SwNB4EltpUwEFz/bEh++9vfTkHMKavEnBI8nRueWFOIp2apGYHlevXfbrvtql/96ldp4/Ib3/hGipdqI5OLnu9nmGGGvqxzEHenGHoPuO5RV1FdcblDqFF7ZRfCRgSW8rBTqbVKVVlJYO26667VUkst1VaBJb5rKLB69z4GgdU7bCPnQCAQCAQCgUAgEAgEAoFAIBAIBHqOQBBYPYd42B6AiHKy3/bbb5+CjSNUBAanfBKKoX5acy7YcBBYnoUwoozaa6+9kiKJC+AZZ5yRArBzGUQYtVM3tSKwPIMr4qc//elEVFHiO2GwHYGF2JplllkmUX05URCG2YWwEYFlo1VcLqSc2KyZxCoJLP9udxI2bN773vdWZ511ViiwevTGBIHVI2Aj20AgEAgEAoFAIBAIBAKBQCAQCASGA4EgsIYD5eF7hphPG264YVIb5SRGkxhPiJzPf/7z1bzzzltNMcUUfb8PF4HlgX/9618TmSZYOdLGs5dbbrnkOtdKeZUL247Ach3CCUEmv9dee60tgSV4OgKq7rYoNpYA8a1cCLkZbrTRRunkQ/k0IrAQW/WYXvUecc8991Q/+tGPqu9973tBYPXodQkCq0fARraBQCAQCAQCgUAgEAgEAoFAIBAIDAcCQWANB8rD+4yrr746uQ5SI5WJmxulkRhR3Nqc9icNF4ElwDpXwQsvvLBC2HiuhGjiPih4+pxzztlSrdQJgYUYy0RSJ0HcuRmKt1qSespFESbwfCsXwnvvvTfFzUJQySOnUoGlfmJstUrK8MILL0QMrB6+KkFg9RDcyDoQCAQCgfGCAEOj05hV46XOUY9AYLAIlEb3YPOI+wKBQCAQGAgCQWANBK2xcS1iaIMNNkinMTc6Wy27Fu62227VV77ylRQvC+H129/+Nim3uB12I3m22FeUTFRM4jvdfffd1ZRTTlmttNJKlZMJf/zjH1fnn39+evb000+f3B8FoUf6fOQjH6mox8rUCYFVXi8uFuXZ888/X91666393ChzDCy/7bvvvtUHP/jBfs+65ZZbqiuuuKK64447Umyx5557LgV3z3FVleWiiy5KBwwdeeSRKf5WIwJr/fXXrxZeeOGW9vBDDz2UAsSffPLJocDqRudrkEcQWD0CNrINBAKBQGAsI2AyF5DzkUceSUchMwZM+pECgfGMACPYEd7ibdjVbhfDoxEWDOjjjjsuHS/u+G875c0SQ9lR4iuuuOKgYHUUOSOZS8nGG29c/fKXv6zsFju1qlWg33YPY4Bff/31qVzcMdrF/GiXX/weCAQCvUcgCKzeY9zrJ1BaPfbYY8n+Mr6L1YR04dKWVU6NysDtDXllzL7tttuSC103CCxB0KmWzItOH3z88cfTaYDc+sxxa665ZrXYYoslgkqw9EcffTTNn5Rj7EfzHwJL8HnXIYDyaYqdEFj3339/IspsoJpbxZXyLOX56Ec/2gdFJrDMW+JP1ecs9RA3jFpsjz32qC6//PJq2WWX7VNTwdZzXn/99USOzTPPPImoUxdzKkw9c7311qvmn3/+lt0ARk6R5OK5wAILpLYQhN9c340EZ4Hzzf0PPPBANcccc3Qj2zGVRxBYY6q5orCBQCAwEAQM8ibID3zgA5PcZjL7wx/+UE0++eQNfx/Ic8b6tbB4++23Ex4MpmeeeaaygDUxOv3P7ybtM888s6dVFU+B9BpZZlePAcJwYJh0uovICFEP1zNyepE8g3xeudpJyZs9XzDSv//976mMrZRtTsQRt4EcvtlR1L2o40TNU5s6RYlxqP+3M1TrOOkbl1xySbXFFluk2CVcFqaaaqqmcCKZHCF+yCGHDApyxj3D+LOf/WzaNXZsOSN/l112qbbaaquOjl1v9GAnTDn5SUBbu/pBYA2qeeKmQGBYEQgCa1jh7srD2FdiOyE9uLAhqhAngo4jYhBA7AA2QyMFVlmITGK5d+aZZ+4KgcWOFudKgHZzGTJqySWXTOQVV7tG9otyUkvZUPExl3KpUybEEXWWxD4XJ8pcc8wxxyS3w7pKSyB78/Ff/vKXdA88nDB48MEH99sc8kzkGGXVTjvtNIldD1NlocS69NJLq1NPPTXZvWViZ62++uopML25mRuhQPXaSBqIsrq8lj26++67J5ugGykIrKoKAqsbPSnyCAQCgVGHgAnc4pFhYIJkCJTpqaeeqnbeeee08DNZIbImUjIhC1hpp4nRZNHrAy+EiQUrmbTF8aKLLpoW8nb3upWQN6ToTpdBzJjs7Rbuv//+1RJLLFEdcMAByThBmjHcSNE/9KEPtX283UrtqrwHHXRQ2+sHc4HdR8YIwo0hNNDEaHPEsh1KhmGrXTmS9xNOOCEZWxNxl22g2A71ev3w8MMPrw488MBBEVg5qK2xx6lM+mLdIC/LqI8bfwZLYFFHrrzyyumkJu8Kgxx5JfDtt771rfT8PPYx7BHEjRZBDHfvdy4rAsux5UcddVQQWEPtVHF/IDBMCASBNUxAd+kxNujYAuJIUSsZv43X4lr5IItmmmmm6rTTTqt+8pOftFRgURchbpAkxm72VTcUWKoqLyos5aH2paDqNKSETR12JZvb5mTpfmcuUm+k3VJLLZUC0tc3SzzbNfn0P3MV+66Rza6MbFs2ZN3mtzn77LPPJlzZYJRWiMGcPNd8jKRDBEpszzrJNZiml7fydmLDdpJ/EFhBYHXST+KaQCAQ6DICJMZ2NtrtJnXy2OymU59MEVh2dZwEYkGKAMlKLJMWlYUdHxO+xepQ3G06KedwXQNT9fOxmBazwM4VPBAvFrF2okjS33zzzTRhMyoYJOTYjBOkHlm42AC9Ul7ceOON1brrrpviDBx66KGJxNJWFCRcoU466aSkpNp8882T5Nt1FuMzzjhjyzLZ5eM+hRSyc5eT3UDGDeKsUSJt75SgYwiJ6wBXzxtoot6yg4h8EASVm1mzZPdPvZGMCy200EAfNW6uR6p6X8n42yU4eacbKS+9D4ge/a9R8v5QHdoNX3755ZsS28aLHXfcMRnDZXrwwQdT23rflNX71Cq1IrAY2U888UQilpul3/zmN4n0tbAQA4VbBzcIhKfTlIyPXBgsbrgAe8fkywC2sFAPYyc3QTE7sqIwCKx2vSx+DwRGHwJBYI2+NmlUIrYXO4zC1WYDV3UBz20YsosolfJmgnhSvjcn1ZPxm53GZrOpxk3PHGbs73YMrLGB7MQoZRBYQWBNjJ4etQwEeogAksTpHhZincZdofrZZptt0kKqUbLjYceGe5UFWatk0t522237JnuTt4+8EQQWkwwBO1hICoSMBZ6TRuyIIBCc3uL7TneUeghnx1nnOqonUoaxwvUPQUWFhKyyw2QhzVgSV8Hi3fVOrrGDRdHDUKKCmnbaadPH7pOFfyPiCvFiQZ3l1PXCai9xA1opTtzjfvJvyiKxgrhbWUxTe/geeaVNfYcQ4BolroH+5ff68czqqb/ARN0RC+p32GGHpSIix2BDmaIOZYKHnT3HQAsOKsHJbqHvGyU7gog2RgQ5fLNkt22uueaaBA9EGpfMrJqBf7MUBNa/kNGHkZit8M7upgLKGpMa7dBqW3Ej9KdGSR/yDiGGuEc02zHlEoBYtLDISX/dZ5990lijz3Lh01f0k2bJgsNYqD/lXdrcH9QHEedIcu9Uo3fSNbDRx+1Mu877hVxFTCOlkfVOheI+YSdbHQXatSCyUw8nLru+N55LyDcBbi2muIuUz/b+iR2Sd6k7HrTiwkAgEOgpAkFg9RTermTORjn66KOTett4a/w3Z7GdbCCUoQLMKcZoAdNLu8s4b8NNe7vXJkUOWj5cpxB2BYzIZFAIBIEVBNagOk7cFAgEAv9GgG87FcInP/nJtIPfSdBjC6VmJIjJ97zzzkuLQyeJONmkVUI6lYQJlys7WpLn2OWyUFtnnXUSIYawIKu2QLMII1vOC0f+83VyZLS0dY7ZxfihJqLKoGTzsSjN8REyKajuDCHKCyqQueeeOwX31FaMJLipd/60q6f8rrrqqrQoR4o1SiussEIiDtrJpC24naqDJCCL56KIWLCIp45BICDZclJfz73hhhsSIck9y4I7t7EFOrIqExj6kHrlfmERf8011ySyrq76Q2baraTu2XLLLVOe+jQFGlKsUZJHDqbaKi6VHVVlzvEe5KV9tt566+qCCy5IZUbAtiJOg8D6VwvATd9vJudH2Hp/kblOQqI8apa0XTP1p++RT4hSyr9WMbC0W9l23sO11lorxV9DkHlP9FvfN0v6rH6a86E+pE7Vf9XF4oVqSj/xntQTl0C/eeeMl9xNysSNwsLIOFDW2aKJCytln/5p/FhuueUS6Z/fq3zyaJ04g7N+2W5zod2YEr8HAoFAdxEIAqu7eHY7N7aNmIIU8Gxm9g71a7NNP9fZuGMz5WTcpUwXfqBRDM0gsLrdaqMvvyCwgsAafb0yShQIjHIELIIsrAygL730UtpJomKyuHLMb7lYH0xVTL4WcFz7uMb4dJqUzRG41DRIm1IhoMxIH5JrbmjlwtPCmIKM24xTQ7rlNleqpCwG88eilYsfDPOHixR1EEPFx+KXCx0SxeLcv6kq8n3yUhe7bhav1FMf//jH+33UE9GTfe+HUi/top2dzEahpZ3r+VG4IYIauW6VbYgYoOygNBEYlEFmIW5RrZ6CbJZ5w5Eiiquh3UaLfCQct0e/OSUGQaWMlGZXXnllIlJdK8EHOdaob4q9gKz67ne/20dgcRG049mMLNFWFv9IRcdVN0vKIEA3ZUwmBf7zP/8zKc6UH+GrzE4cakaoIA3FyKBUQ+rBhSJmsMHjO32XxtJ11IdUd4x9cZ8o7Qbb1wcbA8v76t1ATFI2amf9gyufcbJZcr24H9R4krZVl5LAQgp7T0q1V87PmMBd1vWOAKfoMr4gh6kp9ZNGWHjX9C2nSnkvjI/eb2pGiUqQm6XFU3ZdVQ/XIAepzFoFpx9L/SfKGgiMFwSCwBqdLWlesTmAdHKSnU2A7PLXbK5iZ1DgiqXIlmXTGnvFuDJfNFPABoE1OvtAN0sVBFYQWN3sT5FXIDAhEDCpWsRQGCCExIuxiOKD320CywQvuHE7l7QMfCawLPYuvvjiFFMgJ2XlNmi3C1lRqoSccEKRNRgCC5EEkxzsEemR/13+9W8fJFV256M68iEjNyEhpywkfSxCGShIEAtMCgp/fXyHsEJMIXEyQYXMQh5lvAa7iG/UkZUJOUU1JJYOFVFdfYRQU7ZWiqIcwFzbKitlmPKqu5MP1Zkcvp60LZJLuyEbkUBZMQWr7O6HfOKet8gii6RFtgQH+TYqVyMCiwGoTZqRSggTBJy2Qz41S55XumNqd3GKKAyRcFzZHAktRluzpBz6l53WjDfXg6WXXnpCjDftKum90S+NExSACCNKu3ZJf0beeCfLpM0F1NVGiPBSCeg67yFVVvluKQNFErJde+nTCCzXGhtbHX3ufaY2tbCRqLeyK0hWYLUisJBkiFrkErdAJDKyF4nHxYSarJEisk5geXbZ3x2A4PALH31VomZde+21k1IrCKx2PSx+DwSGH4EgsIYf806eaGPOxoR5QTxW43OjTcAyL+ETqLVsaLJ1bCaYe9ptEAaB1UmLjO1rgsAKAmts9+AofSAwzAhY4Niht+Cye+//EQcWWr0gsCzaPUvsG7v97WJUZQKLLNsul9hWOTl9xAJXOZEGiJ+cPIOKpySwTBDcEbPbEmIKAeFv/vh/C2D1t5Csf5A1ObZWdtVTB0SERSXiiTrHXyok7j8W31lJRT2BFELYIGByHJxO3f662T3y6Wri8YhRRcLerj0aPR9RZVGMYCzdSBGMFvsIg7yAb1V+RqAjl/PCOy++BVXnxkURqJ3LxBCsxyNCYjASSxfCdrgNNoj7TTfdlEhUcZEYpHAQUwwx0CyJW8TNkiuZvqHtkQit4ma1K/94+l08Pe33u9/9LimQYNMJcWtB4dr7779/Ejj0S+Na/WAH/Z1aj0K03P02duiP3PWMU0hqCxXvc3Z9dL13vF62VkHcM4Flw8D7Vndn5BIsgK/x8dprr02HFjiRUH8xpn3xi19MZH2jnfpGBFYGQpktsLyj8rRw8n5RuHHFdugAojAUWOPpTYq6jAcEgsAafa3I5uHebUOEYtu834mNY+y1GWHDENnVKlxBWesgsEZfH+h2iYLACgKr230q8gsERhyB7N6XVSnN/malT131k78v/2aSyncWcNzSsqvJL37xi+Ru5Wjcbiuw7DRZOFE0UAFYPLU6Ga90IRT3pVyAqieygOFAil2qupAeFp8lgcV1jzsPssFvlBH1T/5eORFS8s4f35X/n/+dFVNZLZX/Wsh2svAeqQ6GtOOGx+2NSxt1G0WUeiKd2imvcrm1EUURsiqTTrBGQuhnlCwCn7dL8IaliVy7MfQk5cyx2LLLFcOPayjViJhhZULMUVSpU1Z0+d0i3g4ogqQezB1BIS/f111c9SvP4hZWEgLcJgWm59qlzALGU2C1O/1yvMTAgqf4H0jEPLbk465LY951XNcQSwxx1/jrfUZMlrvPFHCMe8SV/mMc8o52krS7+xCE1FaUmQKdN1okeL5+IHYeIkmb5Ov0YYcPIEu5U19yySWJkMwElv7mHmQ69WJdHdYJgWXBo6/nuunjxjPKLGMiQpmrif7EvUQgeXVCtHkHOnEhLDHTPhSO3Aip0RxJrp7+3/Oy0s0GQ6RAIBAYPQgEgTV62kJJjNM2VCnObTgIBdCJfeNedknexBxIrYLAGghaY/PaILCCwBqbPTdKPS4RsHDLi7Ws5LGQKN3LMtlUuqvVlUGIAfeUxFSdlPKbZ9RdpMr/r/87K4koVRhJOXHXE6+KT363CSyLfAG4KQGQJWK9iHHFhYVyqb4wywQWckFg7jLIMNJBcGc7Wauuumq/ha5A22LY1BVY3CThRMHgk5VQ+f/zX4tZxEX9bw6UPh46LMWKRa2FuZg4+XRDi2pxdwSrhmujk99a1V+bwVl7IRHEuWoWHBphiAAoSQrvAhIjq5iyqyF1HLJTm2gn5JuFvnowJOVVJnUr3fK0O+UL9z4xyPy/umlnz8jqsZyP73IgfUSC/HIShF4ZqQJXX331pPZDxmQCi/pMMG2EKbezMo0UgaU+mUDK41J+B8ryqRsVG1x9vKdw4mLKzTUnY5J3V/8xHhnvtCNMuLrl5JkObsjqOeXwnlMBGXty3/A98smONiKFWyWSa6AJ8alNlNX7X19ceI720Z5UnMgk7qNlUid1Rx5RQ3FHzgQWwo7rCIWUcVKMLuNITu0ILDHUEG1lEHdxs5TViYw2FHJMFcQV1RVlmXw9M8dfq+PSSoFlrOSWiKD1bGQsHJB43HP9Rk2QD1IYKOZxfSAQCPQGgSCweoPrYHN1gIeNK5uk7Ank/2CU6wN5fhBYA0Fr8NeaE/NHLnmNNPgcO78zCKwgsDrvLXFlINBFBPKJchZ/XNQskC38cvDuHMgbOYWQyp8cJ8nirxw4y4GUQsEC0l8fCg+f8t/5u0zINCNmSqImq48sNpFKOfWSwKJu2XvvvVOcoRNOOCEtppTDAs2CTqykerBvi2Q7XggNp7zkJFYXgkCMGAvAkmjh/kNJNpgYWF3sFqM6K25zSCYxo/QlZKIFrMCkVEVUNNpEe3Uij8+V1afdgxjQL/MJiY3AQD5qOwq6nLwLVHIIEsmiW9BThMZll12WXO30Ee+Ikw8RFYjMelygOtnoeu8l0oIbFlLCyXRlnyrLSEUmlpp7PLckw5AkTk/U96izEBqUMQgs7xgFz3e+853k9iWPUh04EgRWPqkTMYKoRGj4wE89SgPcCXnIqjwm+YvQ5MZWkkFIK+8wRZL+Y8zxV+DzekB6sdCQRpkURhJS+MkvE4ZUfFRXAvbDDX6dxsor2w2ZL36WttB/xaIq60dpuscee6T4UuKXUTrV+47xPBuviKGSwPIs7o3eHeOYEzRhmMvaisDSp5FeXE+5kyy//PKp6E7dVE7ELzJW/CtufZRSMFVWajDjWjNVZysCyymcxkrvuDE3n2DocAXBh/Vd/bIZOTaqB7IoXCAwjhEIAmv0NC4bwqaLOSPPLc0Cr3ez1EFgdQ9N9iTbzlrNeizHrWU3+M0cnRX61ibmcx92Sl5zmSeFE7BuGoyN0qg2QWAFgdW9Xh45TUgEsmoqx0wxqOWPgS6roSz+LIQff/zxtIjxb7/nWEb+los1g192T8uqB4OiATLHUikDepf/RgKU+eYFTPmdxuqWu1qvCazsogVXCzPkBFck8WC40IgXlVNWYHEH8ymVHeTYFnTuY1CUJItAxxQwQWA1f41zLAZEloU8RYo+SnnCOOM6ZYJGaFDIddK/tBfcKVos8vVx5Edd2YFEsZNJfUVVUg+szbCgPvEeIBu0r91OZFt22VJOCjFEiH5Ttr/3lHrKc0t1TEaDS6J4W+p8wAEHTBJElTGhvwl8TYXDTaDMhxqMOhFxgdygGsoElvdV3xQbi9sc5RFXtnx/NwksJBKyA0EOM6S5sYiqpjzwgAHsPUOsGZfyeERdRBFUutmJi4Qw1iazzTZbIhd9Ghlrpaqzk/7RrDdmd7as+EOyLLPMMoOeg/QNrnFIbvWm9kJwazeEE9fExRdfPI0P+k+rcjUisFwvZqDxR6KcomKEQSsCC0mnrzz55JPJHRBBJSE5kW5IeiQTPLISSxt7//SjVsHslRNpr/30Qf3BWGqOQeZ5x/V55K3fPQORhsT0LGrGgaotB91AcWMgEAh0hEAQWB3BNCwXsWlsZNlEQ/53i7xoV/ggsNoh9O/fzWvWFvkwJXMuu8jcL+QIG5LC3CZpfV2VNz3zhlcpLCg39PzuRHBhVmwMWZewNSnHcwgRZJe5t1O7KAisILA67+VxZSDwfwhg3MmBKQSw8gY7n1KpkE+aywoqA5jBitKAC4zgtwYwcU3qp8jVYyhl9ZQBDnllkOu1BHkgjT1cBJYy2emg+EEGwIB6o1QBmIyyqxh8S4PBpG5SshinoCgnCuSFNgkCq3nLm+AtpLUB5VsmWGBuESzODzUhlzvucp0EHEUccani8kld473SphRZOXmewPEW7IxzqYRRiQAAIABJREFUC+o6yWSHDOmD/EI2IJncg9TSrq6nfkIG1Aks5RdzST9GMHEnq79fVFWUfVmFxbU176TCBWmHVECOUhnVg217BoNGf2TI1gksfRMxJ3C2fwuQTVnj+oESWAwwOBqTBLIvY0YhH6m/qKCMV8qOtPC8HC8M7sqLMPSuGX+ykZUPGOjUyBrIODKQaxmcSEoEm3bX1qUqdCB55frqwwLl22BANFHKUeohLx38oP9R37Uae+HWjMAyFyDK9d+99tor9Ze8OeH/5V9P1F/c9eSb43S5xhiHZGJgZ+LRTj9VlrbxDlCntYoHRjWHdPYXgepZ3gHvi/eXihBphpBV59LVF9lHMdnodMOBYh/XBwKBQPcQCAKre1gOJScEgznKmEoNW4YUGEq+ndwbBFZ7lGDErqP2vvvuu6tnnnkm/b95EFnFxjC/UR8jn9hJ5sbyUKW8sZdtXbZqDv+i/a0V2Vg2yJCZPmxk35v75c1uYZNy00dwsWF9126NFwRWEFjte3lcMaERsMC28DCw2X22i26ws8ttAMwsO5Dy8ecWe+SiSy21VNp9sdOOvDIglYx9eZJcqZLKgI/0IrHThh9OAiuXCfYWVI1Ikhz7q15+ShMuOPkUwrp6AN4mp+HaJesU37FwHbKEigoJgHxCIHUSTJvx4D7vhcWy2EdZ0UOR5HuB1CmEtCuiqVEAVAtwLlTi/zAaqfaooPI7xCBAAFAP1QksfYlaBXmBTEMi1ftAVvwguIwJFu8W9vKnpkFuGQsQoAiHVsZHIwJLG6sfckP51YPChcHUCYGlTMg19YAREovBhXwpg8kj+rSPfCmWvAsIYARfozqXfW80jUeMQK5sd911VyKFqIWG+t5qY2O7dmVoMk6N86uttlpqA3i2w6AVgQVLhjGFIKXeHHPMkeBtpcCi2BUzRWwv7wcCkeGKABVQHsHICNb3tCv1mLlHsHVGt40UykBklndAvfxGnaifMKThZtyjMPM9davrGd76alaxqpv5z3upfyJq2x3nPhbGrihjIDCeEAgCa3S0ps0FtgD1FbugPBG71yUMAqsxwuYwc555mDcH5bh/wwuhZE1gnmQbsfVsWLEDmp3+3cweKJXmObyLOdrH8ymn82EvCDMb64gvz+FFIGwApbO+08gjQO2CwAoCq9fjSOQ/yhEwuGDNMeRIKgY+9YKYPhh5igUDHJcbbDz1lAHOosHgYpFgQSyuDnVV/tQVPqMchiEVbyQIrEYF1k4Wts2StqQSssNh0dssTpNJhAsUZVykfyMgKDV3Py5LFtVlokZEKFBoIWEELW2nwEKmIIssiilQfCyqfWeSp55CGji5TdshdqhFGuVL5i0umlMEKVuyAsvR1VmBhaxhlCAlKFSyKxiyByGFiEIAqUejZJxACCHHGA+MDGWh/mHIIL/c28zgyHk2I7D8bgyi4DEOMbCQT5nAQtYISs/YqruxaRfEArI9uxNT5iB2ynhh46U/wzDXV6ytUj1W1pG7pN1v5CD3RwdNNEtUmFw4EZ8UnnmDwc45VzrjRrv4Je0ILM9mqJZ9uBmBxdjV3/RZBC5loD7A4HUIgM0RpKxyKzMVY3ZpR34iocSycq/30ftEOcht0DyFDNNHqPS80/oaQgqJ7H79W8y3XGd5U2XJFyYUX+3wGC/9LeoRCIwVBILAGvmWMkebv805DrehFB5OtWoQWP/uA+w2dgDSiCugv9Tl5mC2kc0h5CKFvs1R9uJAXPkG29uy66LNX6pv5UJ6Usezd5UPgcZuzR92X7YdgsAKAmuwfS/uG+MIMPoRVI62p/iw68wd0I61xbNFBSPfAMewN8jZ2UZcGeBycL586tx4Om1uoE3bjsBCEFh0ZT/wdsSGyZfawAIKWZBjYLUrFxLCQq5ZMpFpY4suhGMzlQxiy2KQr3qkfyPAZYmCCQlwxRVX9J0Gp724WgmkrW21HfcrC3WkIty9N1QeOZl8Bd1Gdi277LLJhc2C2rvHlQ6Z5V1kSHhXqVYQW81OPfNMbk8IL0HefahJvNvyRUbIxwJe/sqTDUplQRwhhxADSOlmCfmFyOPmqG6SZ6rHyiuvPMnJho3yaUVgMWqQ54hYxIJxSL/2vI033ji5/c0999z91GWegbgScF2dlJ+qyhilLw9VmTTa3gEYGXOQc8ZieNZjouUyUyhRUFGo2QVHctaTfoHo0YdgaIygRmLQ6ueMSW0s3pZA7OaDZuR2JwRW+XzXa2Pqv7oLoTJTVSEw1de4ZXzTB/VVhJQ5CkFnscTYVVf/v8gii6T7GMWuQ+h6P66++urkWspQtwHjfdJP9BEElaDwFlzGR3Uv4wt6j/VFZYK9TQDfmUf1uTiRcLS9KVGeiYhAEFgj3+rmY+Ot07MdMsI2aKfe7Wapg8D6V7gR6zobXGw+amb2qbUcZRx3PepipBDblNJqONuobG9zr/Ka89l+5lSbsrx+2IPmZ3aH2JxsGOtS19s0dRow+yUrurvZj0Z7Xv/45z+r117/w782G/3n72STCfBcTfa/pQ5utNckyhcItEDAgE7VgIG34OFuY3CzSNbhLXINAHbZF1xwwbQzzXjn+mdgm8gEVbuO1Y7AIpXNR8dT2yAPWqXBElhUExQLzRKjgjFBQcfdLJ9mVr/eZGaBVga1bofBRPjdYtgC3gKfm5WFrgU0ksAOo50jag/kH2JBQGzxlkzGFthcaiXEliDqCCnvnv5j4e0d8xu3QovkG264IbmJIgvE9qG+qp9WJz8TuesRbPoOZYr31juOoM6BrOXlO+Wj/sqJceAa6rxWpKW87ZApr5hXVJuSxT5iTPkQA+0Io1YEVr0fIVTgBBNYwYLaCBkzUd23GHv6kz7EGDW2NFNTUgYibxCjSFDElIS0ginCkpGo7yLajf/USmI86Wv6OmILGcoFWb9yjfhkPmLBlc9uR2D5HYGkz+on+qeA6MpIYVgmc5XFqHJRXnmnlFs/lJBRXAYZ5naQ9UsklrwQTeKwwcrmgRMMcywt99YNddfpa57HdRC5DIcczDa7Vzr90O61sVbsMSSuv3ChXmxF/k6EMTLqGAiMNAJBYI10C1RJUcNWsgHHZXu4laqZwLL5cuutt3YUzmHkUetOCaitzZc2Vdn7CCEbPjaguL4jgmzwtbPTulOawefCFuZaSBXukBoknLlcXdZaa600n5tz1ZEtEwRWEFiD721x56hCgEHu5cdeY6ctGg1qBjM73tRUCApkFaWD07MyE98ueN6oqugoKAw/ckQFZQ43rLp7k8W2GEFwNxiXu/qNij9YAiv7mjeDxCl6CAqLWAvgVkfAl/HJRgHEo6IIFraUUhbHYk7lwwYQOchAihVuRfl0NaQAg4ExR7Vkwa+NTLgIJ+8i8oF7ljZ3HfcmblEmau1kp0msH+SzHTMqJESYdzcrujwfoUad5PQ15JKyInioSLJrVJaF59h1JaiMmUYGDWNIOblGMiAs3Km11FGMAvVhKDEgELN2x8RZ80wKl1J1lp/XjMDKMRBKcsEunDpza0ZMIK/UHbkyUruFo6Ez5tiDMGgXVN21Ut6EyP2OOxz1nXYyDzBw4WtuKLFFNplHtBuSR1vb/NC/kJ7Ud/n6dgSWfunETosK5cnBYhFRCNAyede0OXVWPcYX8gppqn8h24yvlHmZnKNavfDCC9MGjXfQSYqNyN/8PO8OopRyEXGFTOOKSvGlHPkocWM4klp+6m+O5XIIR8ovRFZO3jP3tXOpHQ39KcoQCIwXBILAGvmWtGnLgyCHRhjuEmUCS/xQNhWl0WgnbIaCkTneHG2D0tz4y1/+MtlmNpuEu2CX5c3FsWg3mV9tnlpfCbNhTSvlgPE2lYLACgJrKO9Q3DvCCBiwSDAtLgxgFgkGcIthwfnslltk26W2wES0TKRYVb1qHoMngoISxWKqrgxBZBh0TaAWXe1iSw2WwGpXPwQWUsTH4q4VgdUur4n6OwUIJZb2pkixILcwFkMHAVBOotQbyCp/kT1UTsgmBgVlCwPPaWpUKGTe3lfkAkJBLCsLb6SQ+E5ILeo9segYY1RWFtKCbSKmGSiUIOJlIZS4TyHZKFO4l2W3XzuhFv3Z9Vc7Zvk2skoZLQByUHRlEtjbmMKIoGoR54piLAe3pjRjNF166aWVPoaY8EyErnIitErVYUlgCYQNU88xTuXA9XZt8w4cNYx8jWUUR5GGhoC2Rcrod8hQ7nb6iTminXFLDZVdzxmR+jwFVU7mIO1lzEP+1EkjY5uxx3iYSTXEk75uZ7VMCF0Gq3ehving/eE6YCzzDtQPpNCX9DPXKWM7Nam+7b1xD1I5u93q+8oAM88wb3IPLokq/dc4UD85ye6/HWLzgncAGe39a4fx0Fo37g4EJjYCQWCNbPsb42082LjlQsgGGO5kHhJ/y1xjzcP1jGLHPGBDYTyMwVmkYK7l+k5Jbc5k15tvzHtLLLFEsr3GiyhB38qqOhuqCDtzPWFAuzl+uPvgcDwvXAiHA+V4Rs8RYEBbBJJaWlxzEcoLa/7n4uxYXGcVxngYwHsOaocPKD2NG+Ha7vf6Y4LA6hD4EbpMezIe8kmQjAPkZCMjIbd97hfi91iQI4KoRig0qPe4fpqALeSROBSRecdQHhbYlC92Ni2o7bZRrFCCILbkRcVCto/4QS7YeURS5FNeuJHJRxnyiTClas+/KXAoChEMDECEBUKNEeq0RAovZFi9rvLjoopsY1gYg+yYIcss4svYS5nAYlwh86he3Kf+lIEMTEQwglCZ4Oxa6i/PjjR0BPQRbYbIHIxxm9slnyxblkiflnezQLB1BWB+f+q1yu9Zs51z+bRyba+/e+1Qy+UqXatzGfzNardO507EsncU+Yqcs4iilBSQtl0cxHZljd8DgUCgMQJBYI1sz7AWYccIHM5FHYE/EokNxPZgj9jMQ+Swb2zA8ToZqxu45iLrO5t87CUKfXaazT12k/qxH8fzZkm2iYkHsq1abiqNRH8biWcGgTUSqMczu4JAdmvg1uHUJEoIxrXBi+IjB7trFuuoK4WITLqOgMUfBR0iAWnQ7FS4gT6YGoGkm7uQgOON3LsGmmdcP3AEuB0haRgY2hrZI1YRv35uS60WyK5njCGnkFVOBUVK2YFDUpdGWSanGJQUJIgrn0xeZDe0sgbuF8cHGXXooYcmV0EKF25lnUrwPZdSzAIeCYWwK1WJYhZR6TA8XMfwYFBSpCHKEAlIOmo0WCiTMiDgOyUPBt4qcUcg0F0EvGvIK/HDrrnmmvTeep+4bkbA9+5iHbkFAhmBILBGti8grqidbNLlDamRKhEbR/gFYRXYFNTDElUWbwhlZHMJB2HDpVMbZ7jqkzeKqOMpfdWF6simnw1C3hzseZuelMGNNheHq6wj9Zy8uTRSzx/J5waBNZLox7MHhYAXVuwQi1iqBHFi7C6YNOzucguxCB3MzvqgChQ3BQKBQCAwAAQQakgs5JpdUbHZmgUiH0C2cWkgMOoQsIgSQ87Cg5shl8vRtlAadaBFgQKBQSIQBNYggevSbdyuqU21g5igo2HTKRNZVEs21qiWbPjbmBNSxeaYkAf+zX18pOMWWuPZRBS6gXscN0HlpcLPoRxs6lGm2/wLZXqXOu8YyyYIrDHWYFHcKg1oFDTcg0wOjqsVFJpSYSSPQo22CQQCgUCgUwQoVIxf3KlGg5HbabnjukBgMAiUwfTz/flkT6rpUMQOBtW4JxDoj0AQWCPXIxAv3PasRyi4HVAzmpLy8VyxcYYcEu+QAt44TIFlEw0h5BCQkXL1Vj5qsSOPPLIvzirVPFKN0mrXXXdNB0GZL2yEhO00mnrY8JYlCKzhxTueNgQEuNsY2JyC5nQliqtNNtkksfAG30iBQCAQCIw2BEjfBRcVALsebHu0lTXKEwgMJwJOP3SQA2WAjSgHMTgcIdTTw9kK8azxhEAQWCPXmoiWfffdtzr33HOT+6D4u6M5KS/Xbl4sDufh8k3pZFwmCBC7MB+EI5aXkA1UtDxeysNw8qE4+fTuTCqVsVLziXn+UlfxonGoj4+YVtwbuQU6cZnLIC8acwF1mNijDgry7CCsRnOPGt6yBYE1vHjH0waJAN9nLjeCtDsO1Q6BE5gsCMPYHSSocVsgEAj0FAFyd4HmnfB20EEHpThfkQKBQOBfCHg/nOBp0WcRw42FKkA8u5jXo5cEAgNHIAisgWPWrTuMZ1tttVUi5J2sjHQZC4kCyyE3hAHWWkgk8Tu5fYvZaRNOIhQQdwqRlONmIa94vvj4t9imrqMwhwdFlfz9v3/7ILAQV4KvI7SM9Qgzqi8fxJmP+FyeR30V88FY6EnDW8YgsIYX73jaIBAw8O25557V2WefnY5GPeSQQxKJFQPaIMCMWwKBMYjAww8/nAKRim9HpTEWknHrjDPOqL75zW+mE3JOPfXUFMQ6UiAQCPwbAbv0duNtUFEtUCpSWk/EU5WiXwQCQ0UgCKyhIjj4+//4xz+mk/DEuMyb7YPPbWTvzKQWoklgeocgiUXldEP/n090Zue4FhGV/81V0foMoZXVWUitTHR96EMfqmaZZZa0YWG85xKIrDLmI8BibTeybT9Wnh4E1lhpqQlaTkw9w9bizykT3AenmWaaCYpGVDsQmJgIOKzBaX7bbbdddcQRR4x6GTkDTqDUbbbZJp20+IMf/CCdJMiYixQIBAKTImCX3+mz3pfVV1893pXoJIHAIBAIAmsQoHXpFnGlzPOf+tSn0umrlErjJbFpkFTiZ2XyKiuqEFhZZUXJ5TpEFOVUJrCyUiurtLgg5t/DLXC89JLhrUcQWMOLdzytQICh+uCDD6ZTL5wiUR/EDI4XXnhhOl7epMAVZ+655045MHbJXPlHj/SJGdGogUAgMHQEqDDEQVhkkUUmCejcisAyjriPUeUUneHYvWOkeeass85a2U2sJzEcDj/88ES8U4xuvfXWKeAoI5Cr1KuvvpqOsI7T2IbebyKHQCAQCAQmCgLmO0qYKaecsuFp260ILPPWb37zm2Rzc82K1F0EnLYqtMmKK66YgrlHzMvu4hu5BQIlAkFgRX8YUQTOPPPM6tprr00kFfcgEtOcLPR23HHH6qqrrqouuOCCPtchpxCecsopSW5qcRinF41oE8bDA4GuIPDyyy8nhdUMM8xQ7bXXXklinhVLjQgsZBB5u4Cpl156aYqjM1wxpiwEDjvssESiCz6NdCvHLosMxux9991Xrb322onkco9gqccdd1xyMxArI1IgEAi0RiAH/42NqugpgUCVNkHEjbNB4pQ7c574QTk1IrDMR9RBNlTMmTwZGm28BL5DQ8CGvM12c741SmA8NDzj7kCgFQJBYEX/GFEEKBHWXHPNpGYw6HMTWmCBBdKE7HjXr3zlK9Viiy2WJl7BBcXI4FtOZXHZZZeNmSCJIwpyPDwQGAMIWKgyrAVxZvhtu+221YYbbphOorn++usT4YPgOvDAA5OC6dZbb62OPfbY6qGHHqrWWGONJNkfrh1PiwjuThtttFEai/zdfPPNU1ntbGcVGFm9wKiILDuyiDY7tOJ5ifsQKRAIBJojYOF9+umnJ9XIPvvsk5TakQKBiY4AtfHGG2+c5kUbv4gsp3FzWWMzO1HOpi9FMuLqpz/9aWWzWNDsE088sfrSl7400SHsSf3ZJOL0sgWOPvro6gMf+EBPnhOZBgKBQFUFgRW9YEQRsMCzCHVCF4WCRR35LTLrjjvuqE444YS0YBU00K6TydjicOedd66++93vDou70IgCFA8PBCYIAkghRA/j77HHHksn2cw222xph5m66aSTTkpkt8Cfgjzfe++9acxAWjHO11133WEdD7gxf/3rX6/OOeecpBQzdondY+xCuiubOFiIdmQXF0kqEqpRqi31ixQIBALNEUBqf+Mb30gbV9xw/ZvrVKRAYKIjcM0116QNX5s53omll146KXudfsfFEOEr8PaVV15ZPfHEEynANnIFITzTTDNNdPh6Un/eJOwQ8/uhhx6a4kBFCgQCgd4gEARWb3CNXAeAwCOPPFJtttlm6XQLSVwYOxcWhW+99VZyEbTjhOyS5pxzzqRgcNxqpEAgEBg/CIgdhZwW9DynHASUAZ7d9MTHQ3hJyy67bHIzdqzzcCcLheWWW65y+lAeuyiwHJ/tJCKnJ/pLSSKJ2XfJJZdUCy644HAXNZ4XCIxJBKizt99++7ShJQ5mjic3JisThQ4EuoQAZS8Ci3u9uVAMWRskOaA28sSciQSW2NE2hCmZI/Zilxqhlg2ykBrbqelOHw4Cqzc4R66BAASCwIp+MOIIUCpQWVFU5UVps0JRXzFmnURW+v2PeCWiAD1BQFyku+66K5ETdhhbxUHRd2677bbq2WefTfHS8jHsyI5MINRJkbLQL774YlL2OEEGKdEqMQzFO+DqNtdcc/UzCNv14Xq+jU5gefPNN5MLrZ1SZEh5ep26iANnQccdjSJpPBmkzz//fLXCCisktWW7NPXUUyd1xiqrrNLu0p78jnA74IAD0sJan2iVtJHYXtSmob7qSXNEpuMQAeOdhSH3YUeuU1tSZkYKBCYyAt4LmyHUPuJatUpsDC6GP/7xj1Pg90jdR0B7cNs0TlFZ77LLLnGSavdhjhwDgT4EgsCKzjDiCFjwU199/vOfbzsR8/EXR2bJJZccVnehEQdpAhbATuLuu+9eXXzxxYnAEvxarKNmZI3r995779Q/uJs6sZL6RcyH3/72t/0QJKVfbbXVKqSVY4El7msCgXsG17Cc7KIJKF6SDsgrSgAElmDe4lAgMBiIYjJ1mhA1ylJP4r2tt956ibCzYKPcyUkcC+UUU+nkk09O6sXxRGCpp1hY6qj9miV1FrDWrvJIkdnGrhtuuKHaZpttUkD3VolboYX4NNNM02n3iOsCgUCgqtIYLSiyWFj77bdfOughUiAw0RHglm7u+cUvftESCvYTVfMXv/jFcWcrjJY+gMCCMeLqqKOOSsTieLPLRgvWUY5AAAJBYEU/GBUIGPwpGY488sg+V8F6waivnFZ4zDHHhIJhVLRa+0KIwcDIoiSadtpp29/wf1dQTYktRLHCZVQ+YgxZxCy00EJJLi9dd911adfLaZVOgkN4iQFx4403pt16SqYNNtgguXJJyB9E0/77759Iqk033TQpmSQEmIUSN7VS6YUIk+cnPvGJvvKLf0RJg1yi9FIuLq0CqCpTPZHxIzsYNDnAt2sQbvKpJ9dykyVFF1cJUZUDggoUyhCl/OI6Nx4DhT799NOpbcS5aqZoo76Ci/YdSUPR7reA8z/72c+a9m9xugR1dV2kQCAQGDgC5gRjtA2FRqrVgecYdwQCYxsBcyMVlriRwmw0SzbK2DBxCELv2tsa5vvf/36y2Wy28hQpbb3ePTlyDgQmJgJBYE3Mdh+VtaaSEYSSe1SjRasTvihrEBqRRj8CVER2B5966qkUD0C8hk4mdIsUBJTFvnhCgndbvNjZQoQhLbIiSUBSSh2Gw/rrrz8JgYU4ooii5EFm2b1//fXXE+GEGPIcQVClJ598sjrttNOS1N7pd1xbPUtftMNJhVUm+Z177rlJgTXddNMlo0Wciddee63fdQgzZNydd96ZiLZFF120bwGGHJt//vn7rqfQQY5J4iopjyQuFCxg45lIN2Qu90EJQbLSSiuNm5gLsEfswbSZa152iRjpgLT6h2Dt+lMjxZjFNnJTH5hnnnlG/4sbJQwEAoFAIBAYEwiIE2vjTPiDRnYzu4F95OTBIH5716QILGpwwfPZrBT6ndi7vStR5BwIjG8EgsAa3+07pmqHbOA7LhaWBWyZ7LruscceiSyINPoREGBUW3Lfo2iirPva177W0YTOlY8yiVspKTY3MYYAtZM8nVJ5+OGHJzeSdgRWRgoBRqmlDE61o4bh8sX4y8lhAsppt1KgU2TEwQcfXKmL7xFEXFjL5JpTTz01HWeNHONKWDda9GW7co6yVl4n6TUybBhA+dhrqi7GZjZIlR9hxhUgByv3u3vUQbkcnT399NOP/s7RYQmprzbZZJOKGqueqM64UAqYOloSQvGMM85IZGuZuJ4icJ2ghuCMFAgEAoFAIBAIdAsBG2xslvrmGTtDqATz0niyDbqFWzfzsbnIrvzWt76VNh632GKLIAy7CXDkFQjUEAgCK7rEqELg9ttvT3JogbjLJLA25UlWnIyqQkdhJkGAQUVtRFVn0d4pgSXGid1EMaYYAtz88kku3P+4jzISEBvILTGnWimwcsGoqyjAqMHsVFLCbLzxxinuVU6IB89AOCCJkEeZ4Jp55pkT+YTEqieBvJFLYhuVwdbzdXUCC4HWaCcUGUWNJa4W4qw8Lp7iiiJJmRlGOSkfUlcsr/FGYDEIEZUOeCiD8MMODj/84Q9HVZDUe+65J5WrPnZRC1KOlnHMYsgIBAKBoSGQT14bWi5xdyAw9hF44403ktqdG3upwqK+Ek/SJuBIutmPfYTb14C9ws7NoSXEJo0UCAQCvUMgCKzeYRs5DwIBfvziGFG15InYLpKAiBbqJuRIoxcBbfbSSy8lggkZhYzx/50QWBb+TnAR44krKRLH/WUSb4jSCVlDqae/+P9mLoTudc23v/3tFGCTsosaitqPaoo7YU7IrexCKK5SdiGkwHKfoOp2MSm3fJf7J8JLvC1Ks0ZpoASWWGHKWgb7diLhDjvskD7KnxPDlXvhY489Nu4ILHXUJmuvvXb1xBNP9NVZG1Bf2VkeTentt9+udt111+q8887rO7pc36AapB6NBcRoaq0oy1hFwJh99tlnp7HYZlekQGCiI2CDx2YeO5lNkBPX9QsvvDBO7RyGDoLAskY59NBD02Y7GzhSIBAI9A6BILB6h23kPEgELMapVBAgEiXKz3/+82rppZfuyAVtkI+N27qAALIKASm2lFgA4plddtllbQksZJCA5HYRBUtnDFBB1ZVKCAGnVT766KNJifR7w95wAAAgAElEQVT4448n96xmBFY+GYZKC/nJhZC73ayzzpriEt188819MbCQJYjTVjGwxKVCmAnULm/lFP+K4szfbhBYnqFs5amH4nRR+FDxiJuVk/hQVGSUX3fddde4cxOgimMUIkAp3ZDZxgbtNNpcIvSHa665JsVuc+iAtPDCCyfX0Xr8tC68apFFIDAhEXjuueeqxRdfPB3aYW7JCt0JCUZUOhD4PwTYCDa42Mr5wBixPtlJzTbXArzuIcBWob7iIeAAHpugkQKBQKB3CASB1TtsI+dBImBRTn3DRSwH7zYpNHLPGuQj4rYeIKCtKJjE+vnc5z6XAqVTPtkZ7ESBxR3upptuSm1OVeTEnNJl1MIFuSmwt1P4nBQoLlYrF0KkB7c/qi7kRyaFGBcUXAKbcluVEBCeTSmT+5q+yN0wB3Gn5kJ6cUl0rZN9BKtHHjU72n2gCqyXX345nTBY9ncuis8880z1sY99LAWyz4mSzPeUauORwFLP559/PpFWYpQhIfUrJxSOxoC0TrEUC8sOrP7JBZIqazSWtQdDQGQZCPQcAQqTVVZZJRHaXKZmm222nj8zHhAIjHYE2C+XXnppCsFgHlp55ZUrh8KUG2GjvQ5juXzsPKdmO6wFsQ7/SIFAINA7BILA6h22kfMQELBY5bJlEX/ttddWH//4x4eQW9zaawTs+N1yyy1p8S6OlB0oSiaKqk4JrFxGrn3iVYmhxSDI6fzzz09kFTKMkYYUaBfEHcHDiLM76XpuXggwCyCxISi5shuhfyNNl19++X5xppBDn/nMZyqBw8vEYFFf5e0mgUXJxUWmdCGk+OJe6XkIwpyotbgNeF/GWwysXEckojb3ocLkEjH11FP3uksPOn8Ep1hYlITegzg1ddBQxo2BwCQImF/E9BEn8eKLL05q1UiBQDME2CZlDMXxjJQg7jbl2ANUytzvJ0qyQTmSG0XCSlDA8T6gxKa+Hsk0kfr9SOI80s/W5yfqaZdBYPWo9zmd7OGHH04Bfe2GRBoYAtQtFn9eTsZqqK8Ghp+rBU+3Oy0Afq9jh3EddAoOw0mg9Xw6nO8GS2AJ4F6SNWIL+f8jjjiiYwLLJE655T1ccsklU1B2JIgYWwghhgaCRHKdkwoZHmV8JfJ7Jx/CsTSQekVgIcoELncSYU6CuIutQHmGvMuJ0QQPwfJLBRaVAlcCBN5YT9qQq6ig7dR0TokczRO2sR+xiohEwlNijXSCF0WjQwK4oY5m/EYaq14/n9ux/uzj/Y00MASM1xSOlKc2SIIgHhh+rqbKmXHGGasFF1xwkpN1B57b6L3DhtVFF12UNtUmQkLU/epXv0phBcRgGm1u9r1qA3YZ+6zRITu9emY9X8p5mDtQx2ZuqZQfrjKUz0GkPfTQQxOGvB0JjEfDM7nQOzBg8sknHw3FGdYyBIHVRbgttCgiKIZOPPHE5GbE2Joouz9dhDJlxdCHaZBXg0M2u8xxRxP7adVVV02qnm4vXrlyHHDAAanPI664e4pfpf3sSIkBJJA1RRXDuV08hqzA6gaBxXDdcMMNK8HfLXoQo9wbxbFaYIEFEi4IB0k9LCgRf+VkYIJQPwGDS+x6RWBZmClDSZYhojwPfmXMF++H77kWlgQWInG55Zbrq9vgetDouUs9tZ2xoNv9txe11F7ab7QEbs9lQY7qF96tRRddNPWzSMODwDvvvJPclY899tgUz447sjEy0sAR8H6xq8wlI6m6GHjJR8cdMIMde4Da2QLISbtjYWwdCII2kcVLGw8bOZ3W21xpXDH3TJR3Qz2RRw53Gak6P/3008nW9HyH7oykStzY6J1me5enUnbah+K6sYMAm5gaeSKech0EVpf6qQGDccrNBftu54PbkU5Vdz3q0iMjm0CgKQImLQskyqO777477QpxjXOa3jLLLNPVSZ76imqJ6kdg3TyQKgPlEHWQnV7BxymbGBqtSMmSwOIep+zyosCibLEARCZ14kIIIHGyuCJyHRRc+/jjj69OPvnkpORBFmWCWcB5MbsQfVz1cvIc7mD13cxuE1jqyHWwPBkxlwEZzl1mqaWWSuWuG2kUdpRZiENJHvBC+kQKBPRx7ydiE9GJuOJq4r0oXVUDqd4gYIykoBSjxsKS25uTSx1QMlILrt7UNHIdCwjYWNUn77333jQHzj777NVuu+1Wrb/++uOK1Gb7UF5Tops3Ix7UWOidAysj0YBYeNTpbL2RGk9/+ctfJtKIfe0U6ZFc9yEwbSbzMFh33XWT+jrS+ELAhjuVnfUVoj4IrMnSu5/ef3//N6jbjno8mOyoMgAYA2uuuWZSnnzyk59ME+ZIDagdFT4uGrcIWLQyVAU+R/yIBeU0NEopwdG7tdsqiLmYUo1cZREpFE7c4aaYYoq024tEa2VIlgQWwotKCvEkL/Go7LI5iVBqFwPLNVRVjFgElH/D5YwzzkjBwbkY5OQUQkHoxe4qT5Dx/lrkM4AzQeSeOoFlMUplUT+NsF0Qd+VRDhNSsyH3hhtuSIHtnXBnnGmU8q66cmjbGL7H7as9qIoxavVPByUIhC9mmn7uwAzuRDFPDQrWljd5B40ze+65Z2WBg4A2nlGFWOB0awzufskjx/GMgH5JlfTKK6+koNPcs9kKlNI2mMYL0YPAQijYkOKWH4rT8derqeuXXXbZ1M4jRWB5n7xDDmzZf//900ncIzmfZgKLm7r5vgxHMf56wMSskfWWk971u1BgTVal/4LAGvjLYGGN5RZDh4KDAdDrmEMDL2XcMZERQCJR8DDiSJsFRJ9vvvm6Akkmyequsv5ffCYn+Fm0CWyNRGq3WC4JLDFOLrnkkuqFF15Iiz0xfCjJkDRc6TohsBgX3Bot1A36SDQuhE62o1DLqdEphH4zKC622GIJs/KkwZLAorpUbgS2k+dKN8l2BBbyyj3Uas0S9cwTTzyRsKMGa5a0qbzCYOlK1x6XmXgf9FPqK4cDIJT/P3t3AmVfUdwP/Hqyq1lM4hIVFYkomgiKgPsGioIo4C4iKIILihJQWQQExR1FVFxwX0DcUDQKooKKiAuKCAlGxN0ENdGIOclJNPmfTyfFv7nc+5Z5781bpvp35sxvZt69t291d3XVt75VrbZcOnfTH262AdnSHXTgQQcdVNZwtpTAokjA/mTvCdaxmpXS61ehAbCkTB922GFlHa4KMLcKYzOtd2A/qWsqJX5eABbA6Igjjij2qFIVO++887Reb033CQBL9oKaaHXZiTXdMC9aOAnIsFHa5MQTT2wuvPDCZGAlgDX+HJWiIzWAo84A8H8skWwpgUWTAPaFTRb7gkHHcZ1lgWmAkBRAG7rUWg5cMA440NYLcIjBjJ0VrasGVs0mivtJCcSMEkGWUih9UeTrfe97X6HWStGJxkBH7wZY6Qs2k1aDbp///OcLuAWAPvroo682fFIeGQFdRdw//vGPl2LC2FsAto985CNXA7CHAVhYYQA1DI2+ppaXlA/g4/Wvf/3ez2HWvepVr0rK+KItvgXsD/YFw9+aBLBIec82XQkA79X+A3wD4udd2He6b5d3WyUJ2IfNVYCPA3TmmQI1LbkGgGV/BdgngDUtyS7OfQBY2Ffsv3kBWOwz6beXX355sePqQOc8JBUAlvQyAFbO+3mMwmyfCcBCmFEOJQGsZGCtabapTaOWiNPNOM5q/cyTOrqml8iLNoQEgECXXHJJSYUDtACCFG6dVRsEYKm9gdVko73iiiuaG9zgBtcAsABeKLJ1AxgDoIA0WFV1YXX3kl7XBrCiyLxjpRk7UnvVB5D26OSaAPGAXFJ/nXrJ2B3W3AtwddpppxX2CgBAf8m3Lt4NwMK8UP9GhA7zq9YRIYMoJt/1XEaRPqlzBRTsa5wOBd0zNWnY6OXfSYDTCswFJgO3c95Mb17Qt4ceemhZ84rpAgZSvtOTb95puhKQivWMZzyjEZCxh3bVWpzuE2d/twSwZi/jeT9hEQAsBdyxrtiWTr2cN2CUANa8Z+Xsn58AVtNkEfcJ5hkD1WavLo3NnoNc18iZ4NZ5aUpgJhIAKu23335l3p588snFqZpV8yzRgVgjD3nIQ65y4DChRHtttICdmoHlBBdsqa222qpEGCIdz3rDQvI7qTmibSJvwGOfkcro3dSjE3VSNF6BT6kD3tVx60Cx4447rhQ+tFaBPepjAbKcPOgevgOk9M3PvtQLAbjd5ja3uUpcjqoGRjk+2bu95CUvKTReTqpr9RFzS/+e9KQnlUKLam+pkTcuyE2GZMLBADRkSwlMQwJSDHbffffC2LMOkz08Dan+7z3oK7qFLsEqXZQTKaf3hnmnVZKAPY4NG+xs++awE4MX/f0TwFr0EZq8f4sAYNk72XgyAAQt5t0SwJr3CMz++QlgJYA10SzjoKNacyopLSyLNFInEmlevA4S+NjHPlacVgwsTKRFaxdddFEBhQE+nL9gLXAIsamsMYXW5X4rXsjQBhT5u4LyomCnn356SbfD9MKQlP4nzdcJg+ppnXnmmaXuh8LtIs9xpL2Nv6v4uX687GUvu5q8MMfUFAOMYUbVxyYD2pyKA7ziGChCv+mmm5ZTBlHdx20BYEWR0HGvz8+nBLokYH5iHFoH55577sD01JTgeBJgH9AJgHp16bKlBBZZAvY9toFACbvAab/LXhdvvQGssFEEqLLu0PrM9nkDWGxSmQDsSeUskBnm3eYBYNnv2LrapAy0uBdbP33q7tmUAFYCWBPpGYvMiWhQd+lM2B/ZUgKLLoGLL764FGkFpgBeFq1RzFhU0nNtxHUDZmFI6T/gCIOE0RCgE1YVVpZTvnyWcaEmFYaJE8DCqHRfKXuKo3PiGUHBtmoXo/d8kWjPVIQ+ms+5HmulXUvMc+kE92bM+rs+KUC/lrpjDHHMsYc//OGl1kK2lMA0JCC9lfF9/vnnN+ZYPb+ncf+NfA/6AbBOD7ARsqUEFl0C55xzTtlfsIQFiJY9o2C9ASz2yKtf/epSA+mAAw5I53sdJvw8ASx253nnnVcCo7IZMOwXYQ+dB4ClPAlb3CElSmtMwuZ2crpUTDb7/e53v0y971hHCWAlgDWReqUkAFiYV6JVFm22lMCiS8DRuk6rA2DtvffeC9vdLiaUztbpd3EceLyEv4nY1J/hSF51vOo6vi1ALN4BmMaZHTd1MLorsgVsAMBNGt1aRxHkoxZcAuYUEJsRDjReBON7wUU2cvfoHbqIbaA2X7aUwKJLQK1FAJZ6PglgXXO02vZG+xNKIzgExmnHWOC3vOUte4ecTdBmlzjQhdwF70ZpDqpRt9OpzNH4JR/60IdK4K7PhvJZ5RMwRLFvuxpbw70x2qP95Cc/KcAc1vq4TeAOE3XaJ1zOE8ASBFWbFHAlUIFtuwhpt7MCsMyn+GqPP9BJZoemvAfwqa8NYlXp+/HHH98ce+yxJbNJ8GdUFpbMCsBXVxC67guGqZPDlRhpN3Y6QBKIXz/X3HU41FoafarO6DRZmQlgJYC1lrl4tY0iAayJRJgXz0ECywJgzUE0+ciUwIaSQAJYsxvuBLBmJ9u882wkkADWYLkq1q3WZZfj60pOpdqYgKhtt922nJLc19TNbAcQlR541KMeVdiwAKY+MCTKJaixp4yJz0YT7HrNa15TTpt26I1SBxxxdUadPKtP2DEO8HGisWe1G2a5a52c6rCbCLxhmAWT3bOBcEo+AO58DmNP4O4Tn/hEOYnZZz0bSMbuBKxNu+7qPAEsY73PPvs0P//5z8u7qdu6CG1WANZ3vvOdEviWWdBuxh2ApIyH040dFNUVsJUNIaAjk0KZEGU+6uY+nqE8iOCadTQs8OtZDlHCALM+zV1r0LhgQ5rP5uENb3jD8iglSpwQbL3VzXXW9sEHH9w897nPvdr6e8xjHtN86lOfKimiwFhlQc4+++wC8Kqhay3oMxntsMMOZY15vvIf1rlT06d5smsCWAlgTaRrkoE1kfjy4jlJIAGsOQk+H5sSWDAJJIA1uwFJAGt2ss07z0YCCWANliuHW81bQFA0ABGHHnuVU143pQQ49ACnTTbZ5Grs6Sc84QnFUa5bAFicY0ysm9/85p0dorcf//jHFzCqDWB5FoaUL447hpBTngFjskXUDL3//e9fnHNOd/v0Y068w3dOPfXUXgALWOA0aKCAfjqJ+d3vfncBCwAH0tK9r7qhnH19BKo59XZVACz6Hbv2BS94QWMsfZ8mQDHJCp8VgIWprbbrlVdeWcpy1M28M3cwmAadtnvTm960nMprTgJ1yK1ugBlf2ErmzjDwyrUOZzr66KPLfLcegbhAMMw489PhFNe73vVKHVxzVt/NU2BZ3S6//PLCogNwdQFYl156aXPSSScV5qKaoRiKivcH887p6IAxxBbv6fPkZe0lgDXJjO6+Nk8hnECmCWBNILy8dG4SSABrbqLPB6cEFkoCCWDNbjgSwJqdbPPOs5FAAliD5cpBx6qI2pycds4q1odUJw5t3cgT4HWLW9yipFXVB71gK7UBrwCwsECkADrVuKtJUdx+++0LYNIGsOrPOwkZc0RdIk621Cm1NAfV0QS6OekZ4NTHwPKZOHEZKwtYhokCdAAeAPr8f/PNNy+AgZOafUZa5aoAWFhnWHTeF+MMo21R2iwBLHVY1ZmV3lcDVcAaAOU973nPMsZ9wBPg1NwBdGHmYbFFs7YwB/0e8IpZNUpzOnjNfjMmUjqBrB/96Eeb5z//+YVtiKHluX1NGiQmIUCyC8CyJpVfUcZDX70zoMqX9/3ud79bGFz6DXz71a9+1ag57H4JYI0ykuN9JgGs8eR1tU8ngDWB8PLSuUkgAazZiN6mqXaF7zboZS+AOxsp5V0XSQIJYM1uNBLAmp1s886zkUACWMPlal1LW4s6O1gbgAyHygB8wqkHdqmbo6g70AgrKZx6pzt2nfBYA1gf/vCHBwJY0pTYGF0MLPUMn/Oc5xSHGltMn4BnmF2+SyfkqB9zzDFXq5/l7fsALO8DhHJ6NQZOuwGysLDUDpJS1W6ACwCaumDTrAU0jxTCSN/CSFLbSN2zRWqzBrB23XXXAsiYE9H87FRuTCinZXe1ONCoj6ElBdFhaNh773vf+wam4Mb9AaT1/dSipsewsbCsMCMj5RFD0BdQq6vIfBeABaQ23h/84Acbf283QJa/AbWAe12HNN3hDncorEdptaMwykaZS5lCmCmEo8yT3s+sOoBlI4NWj1pAbyJh5sXrJoEEsGYjahvZAx/4wLJxot/btLKNLoEoODutDX70J2/cT64agLVIcygBrP51FYWAB6WabNxVOb83TwBruOyxmgA/vgfg8/nPf744yYCsmNPSkwAcUpoUhQYaaWzq3XbbrXy2zQYJAAvwhIESNXvavWKbAwo23XTTTgDrc5/7XEkxDB2kL1hgHHBMqQsvvLCc7ia1qmaFxfu0GVjWq7mBaVSDFnW/9Fkq4U477dTc+ta37gUw1DQCgEyr2Pk8AKzhs2S+n1gPAAsgC7jxLF/mhvklZQ4A1dWARgAqIFK7AUWxBIFLwLCtt966FFof1Ky1O97xjqVOlv+bp2xwAC6gFBPQ34HMWFKagwj8vs1+9LcuAAtoixXWVffLNex9zCxsyAc/+MG94Ky0RcDetNJME8BKAGsiLbOqAJZN7+STTy753U9/+tNLAbpVdyoV33vjG99Yiu/VRshEE2RBL04AazYDs+wAlnXPCFUQtis6PKnUGPJveMMbmj333LMY3u0G9FNX4PDDD5/raXgM9He84x2lICcnADV9VfXfIgFY3/ve95ojjjiiURyY3MeN0jNeOVDeSUS8Dxzh/DG8pS6oX9GXpjPpfF9lAMtaVetDPZBxx4lczz///MJMwVDpq/Pjc5wHdoiUlHkdp24+qVUkdcS8nJYDMun8msX1CWANl6oizdL37GcxF+ge/oDvcUqwn+0lUWvKHuJn+kf6FYZU+0ThALC+8IUvlHsP2nfUrrr3ve89EMBSTNt9ON90opPdsGTUwjKfRwWwvIu6WIAFjnNXky7lb05E7EvTopOlNErpmpaNsYwAFllJUQP0ADWmTRJYDwDrLne5SwFZzWdfxt5cN65981Yan/pX9cmW5pJ1Yz+wJoC7fDEMLLWtBjXP8xlz2pwLAAvzyt7OlgQ++XJf/ZLu+7WvfW1kAAv4BXAFfHU14LA5aB/EsOprUkyBfPWJocO1Tf8nEsBKAGuS+VM2rGU9hdDmx+HuapSAEzVEYe50pzuVI0270Oq4VgSnvRn94Ac/KBteu0Bk1/MobwbBLrvs0tkfzoaIUrvJe7Ypo1p/6Utf6h1LSDzDs09xUATqF3BajzzyyGaPPfboVcAMDu+7zA5tAlgTLfvei5cZwKLLrCN0eNFihokjum3OostqWIzSGBR0hjVXrxH3Z5CoBwKgYKxERMx96YuHPexhJZplHTKO+oxkhTmBHXVjvACeRfYY5ZzOruZzIsSA6q41TPcBNoD2iu+qmeB9+pqI4iDdOIrM5vmZRQKwRE1FUkV27R3jpuB6F+krTgqTytvnIFmnjFvGpDk/7ZosMZ6rDGApBK1AM0ds3HGiU4BSwEoOCyZJnwOnfoiC0fHZ+nPka85I22qzQjBXOIbnnHNO87GPfaw4Nl3NHOEA9dWvYRtEoWb6iaPUlSLi3pxzNkbf3+e5zkd9dgJYwyUVANZ97nOfYhvbAwBP0gSl0b30pS8toCzfAKCu/s3OO+9c1smnP/3p4gwDRA855JBrAFgcYba3/XCUhlVl36vTocz1YGA5Mc2eZ8099rGPLaCJukD2efaz0+DowLrZqwWSrL12DSz3ViLhi1/84jVOYgRG2zPphjYozWbGhBkEbozyvl2fmRTAcr1xvOSSSwZ2QdCNHxHMu/aHBf58Zhir9LLLLiv21RlnnFHkYQzoIEXGp9VmBWCxBTGsgEHmuXpP9gCAKLtJ3bQtt9yyzB22HDuuBvzjJMAauDWfnO5HtliK7DunV9rHMRjbzXg52c/+LW0XGLr77rtfjYGFzWWPt7+85z3vKXuV9D5jQ4fzF+0LxrzeG7wPfxNxo66BFYxhdc/UvYr0YX3TRzanNU42tV3pfTHJpDFq0/QbE8BKAGsifbHMAJboqQ2nq1msEGyLlUNqoxsUZaVAbJR1Y1hyFBmWUPc+pe7vkG3Gpvt0NeASRN4GQfG5Rl7/dtttV/LxKZp3vvOdzWabbXY1Q9j4yPm//e1v35xyyimdtFYbu+KaDGRRKrn7g1B0Tj1DZVyjfaKJNuWLE8CaskD/73bLDGDZkDn9NnfGAcODgWLNqSlgk247gQwPv6tTARjS9IpTV9pOKTaFdWYtiowdcMABVxV9xcxi0AOPGdh9YDPjkbGir/SKZiMXDac/6AQGPUPBCU21waDwLaNK9JsB2eU00xd0EccjjI9BRT/V9OAMLGsbF8Ay3saAvF3L4AQaDtKZIRv6mGHZByZIaxHIIFMFWPuYLuYb/ds2Bj/5yU8Ww9p8xRToawlgDZ6tdIHAk/Xd1wS3gNAc975xsucbp/b6AYZLIwEuceI4K31tEIBlPqm5Q494TugM85Mz+OUvf/kqlhc9VtswcVKbd9QHwGm7kYM5pTA3wBxYoBh2nxPi+fSK95mmo7KeuiUBrOHSbgNYnF57HkcZ2MpWBeAAf+x39p299tqr7CtSl+ioNoDFDo39NL5HT6wjc9d8xHSpm3lmfflOL/qqASzFtl0D0LVv2vucxLb//vsXu15fAAeCMPbumLfWFiDWvtwuyA2wsL9fdNFF5SS5sO3Zz55tL4i91c9ALaCG0+C6mNfDJT74E9MAsICNZ599dgEY6QLsNI2uAmhgsvFxAJR0QruRGzmyYQYB2IqT052K2dvn+DFAIYCJ+cFmmUabFYBFZyMN+ALsa2TmZ3PNyX/mLxATi1A6IL05qAG+BDbJgf0HBIt029pW8H9rz75jbQmAsvk8N2QeDCxzApjEV2PLsWsFIMxL//cs+wbdL7Uv5rDr/Z9Np0/13sXvxOQK+zRAY+vLftmua+d3AY4OOjRhreOdAFYCWGudO+W6ZQawKJb6+FKLk3L1Tja2NrWZ4wfQYqRhV9TOH1oyx6NujEdMDpufv/exFCgkSkt0yOe6GkVy1llnFcMA4s5olivNaGXAHnbYYSXlUcpPfbQr5eG+NnUpD4zPulE8Ts1gTHDG3Ltr86Eo5EYzMoBy7rXMaQQJYPUve/NfhExEflyK+zIDWCERYDK9wBABBkkRskbbUUdAxAknnFBAX0Z6ABg2fLW/GKqMOmuHYRhMTPdhwDESGcHWm3Ua0WuRSJFa10rtAj7X4Lf+iWAziBkiGgNIWgJQDLsLgMWgsq5rp1U9BbrEF0ezDaoD2PQNKE6PxMky7dnic3QhHciYEUFd1jYOgMVxwY5TNNicYKjSgyKMDHfO2yDHHRWf0djHyjWnLrjgghKtpIv7WDlO+DFHa5BTwEVqqsCJaKg50NfGAbDIx5y1d4yb5rGsDCzz27w2Fn3N/McS4Tz0yQXrwjqz1ut5wWnASrHO7aWDgkHDACxzkTOOOR1Fsq1hEX1zgbPDOcWkrOvy0EtSSYAOIvltliVHhr7Qf/ehb7r2fGvAfsE+AlrQHU7hSgBrMTQiO5QNam8wlm27di29DADLXoPxyeEGvnsO5qh5EOmC9j72KZsLwOEagGgNYLErzdE+pqC91D1ib+5iF9vL9AVz2B4cDCzzlm7kvNuX2cOKt3PqgTL2Uv1iT/teB6PcU4pbu9g1Pc0ONvetoUF2EhubXgagWauzSNeeFMAKVhlgil4iH7LR7FkCeUA/jB7jiYETWRhkQIeRN5YPXdRX24vODFYonwf4AsDaZ599ig7xXW21ce3Orjk8KwBLkXVzzBymc8kCCGpPRwRQqJwu9Hf6E1CEWNDXAILmHv+OD7rvvvsWNlyXrrUvYTlhZnkmm8O9azsuACygMnvEugPCAgjJlatTO3UAACAASURBVB+qX1LYgVTGxB5R14GL4KcAaa3H9Q9o573tMX0s/nhXe5BA3Kte9ari4067JYCVANZEc2qZASyLsd4IRYk4jxB2DAnOazSfpZxFtbGh0EVrQ4BiaCvtALBsdBREH6OC4qb0Ij+/D8CycQCbgGuUns/rQw1giZbUiojCUyPA5umdRIuixWkqHGcKl2JjVDCC46SIiB5xiHyJypAD6vgytwSw+keP04nCbP4CWDg25sYoDskqAFgkEw6sdcY4r9dNvX6ARoxqhl9f5BBTxxp0rwCx6RNOb9RNqNk0EU1mdDOoGQw1qBwAFkeAcaBJZ1C4k5Hv94xyxiCAqwawRD0ZVmjlDJowfOLYb0aqdArrHigDJPE9dJ3+clTcVw0F80PkfVpR03nolFEBLJ8DWJKJsaOH6X3OnIAC3Ug/Awn61gpjEfOmD8Dye4AFeQ5KxcCCNS8i5cJ4MYBFXDlpDGlzzTzuYntxeBigWIUcTmtcnxnD7X1MnzgaAE0FWvVr1JpPywpgRZFqOnCQ42G/JbtBABbGR81IsoY4iViegk6cfvdpM0viuZwVqR+cDcw6a9Z+bjzYXwFg0QXWtsZGUVQ3ACygknUdrAqfYe+wY8xZzmf8zXzhoLM3APNxqqxncz4FNmJ+m0cAMM92nbXBLskUwnlosu5nzhLAMs5AfUGcAKbazro5CgjmlGP3sh2BADWAFTXWBGjNr9gnXasmJUAMCwhgzHGnowDqsX9xZK0T8589a78KAMt+qp/BCgPCmNMYhQCvALDow1EBvgCw2JECTIOAfe8gXUvNo0UFsGrAASuK/GNP965ky+4nX2AI3WIfIz9jQjdgmdEx5NFudI2UTICL/ZI+C7uB3hAcF9ghJ/4SvWOPa8vVONt7RrFFZwVgSW8FOHkX38kFoMO/UyvUXAPI1imEdYAibDNzl+8HsKKnzQ9r1d4Q7Ok6TY9MyZg9BpQVYK0LwQfbNwAsTEf2AVnbD9gLSliwK32WrO0p9h7v1HdYQj2WNYDFzmEXDxoLti8A1JxJAGs2e8Kvf/Ob5ic//VkZh/LP92tdS65mc63/6eP6z6YvS3fXZQawCJvRCKmmKAy1BU4ZidbU7CxKmsNnMVIclIhGwTIkuwz6ALA4lsMALBGPYQAWJxmwEAwsGzGUvgvAMi6a/GYGsi/MgTAMKDEbhogXg4Nj4v/ej4EgwsBRwewAXAH1KFjRERHnQSlFyzCJE8AaPEqMRnR7jhxwFf33zne+c9kQB21YqwJgkY41EqkHXdICDowCYIkwimZaM7VOcU/OH0dW1LKdwmMN0glAkzoiGQAWY8l61DgIDE+pxG0AizFPv9EJ6N/6IKIKHIvGmOGcWhfGW+QN2CXyzGg1/u7BiaCDGD0i2WjyXafpLIMOiD6OAmAFQAQU5KwxXgH95EM3Ag4Z5pwnhn2ffmQAWlN9ZoWUFBFW+w827qAUQg5GOHDmBBac+aSPnEXjBMjqepa5AHQDTnEOI83NXGwbsq7n/EXBXfuDWo32g2H7wLICWORDl/WBSuaO8bGesLb7xol9UNeEcl8FfM2RzTffvDiCjHwgV1/NH04bR4ezEEC6+Uc3kG8AWEBlOkMzVjUDqwawwtbxXP2wxwPA49QsoFQUq5bGwjbAMhCxZ0dw2tg/QADPphMEzawBztK0Tlablw7JFMLhkg8GFkeaPWpeAufpQjqpthFivgmauM5cMT+7ACxlMOiuqMlnLrJT7cUBYNmL2NTWQAAD1iB7he5rA1j0l73RXsX+tR8DZIAuwP5BAFbozrbNEwCWvUDQexCrDZgBHKNnlwHAwhYDImFRanQPsAlQY+3zE8gYmBKHPRk340TGNXgd6fb0Dz+CzRSpaVETKWab7BE6TGaM8g38Lf2owR9MHvONPRVB9r7ZOisAy75K1+mLeWVe2gdqsMk+b47ZQ6LuWfTT3k6O5hS9as5iVDugg03hS01EwUTAX93s11IH7dHSOet5R+/qRwBYQDFytE/Zq60lewyQEdtR8GoQgOU+7XlfA1jWTwS++sZAH/ingsAJYA3Xq2v5RAJYa5Ha/12z7AAW400UMphYNqRIjRFJiAVsw6LINcomFAcnwuaEqtluAWCpKWWx96UJcCREuCHxg1IIAWcMBvfRX84OJ7YNYAHTOLYRBWBUcG44rgG0+Zvfea84jYURYJMSkZU6BMDyDpwUxjIH1yY8rEDjBNNp3S5NAGuwqG3GqPHmkU0LSGuDtdkCSPoi7MsKYEUx5LoQMsdTlKnPSR8XwGJ0iELWjSHPWWRQAAbqxtBnrPcBWECkSAli4DMA6ZE2gEVvSR9i/NAFPgvMRv+OZj1wooHTgC36TVqR+wG1gZd0Bn0p8s350F8yGiUaum4Lew0PGgXAilOzjBWHXlppMGrJld4ETIieMgpHZSi1u7uWIu7mrvGkx60/z+dgACABUl0tDibAiJD6zpkwz635rkK65pA9QP+8mzQYYAUGnv/3MRCWFcAaZRqtpYg7B57MAMbWmsi3MQMQ9hVG9ndjaa+PdGLAOQemBrDszZHyaz0bT+tV8CwALH8HctrrOTPWOCdePyK4ZT0AEcwdaWf6yU5Qv4fzxubDTud8YZUCE8gCqLXs4JVxTwBr+Oyva2BJtaUT2IdR/LmupyO4Yp5JW+LMY0YBm7oALLasTAFzSjP3gQRRhykOOvE7QZhI28c2MSfp3zaAJRgTRd5re96+WqcQdjGwgBB0HyCgzqAIAMveCOgZxsCyljB2lwHAwuL1PlGDCYBO/vY4oBIZBiMLgxTQIfimpnBdB9J1xpwusabYFK53/65sFLqMPsEUApJ5Pl0JZCc7cwqwCTin+4y18etLN5wVgMUm8k6CD2ytqP9Urxrz1n4MJDL2dd0ztnMEPLyz+eVdrSlMfQAWgMwaaZ92yT4157xzV0o/JlsAWPYA+wS7s7ZhBSuswUgh7GJg8YPtUWp3AQyj1QCW9dZ38Ed83noNEkQCWMP16lo+kQDWWqS2IgAWxSqazFmM2lEUH+fUphypUxQSZVMXuxPJocw5h7UzGOK0cds4g7LZJ2YKx4bBAIiaNu3PqlnDyBUl1S8OCOVAidQAFoeEckPtpRDdl5KhcIFfdeN4eae4n3cmD/2wQdswyAIjgyFrE8E4oAz9bZmBrASwhi96Rgqnta4DY/ytF1FHzpS5VhtvywpgWQs2alGqqAdhTTM4+07GGRfAkqZbpyUbATKWygDkbjNfMCgUvu0DsFwbUUz9FxEFgLcBLFR2ALqxYTzRScCq2oikB6x5f/f+In/uJ7LKIYi17u8MM+wrjkGMfzvqPnx2Lc4nRgGwyE5kmn7kxJMhHUxW9CH5ScMkn2H1O1xDd0u9aTeMWc4ZkEwaRX0vew0AonYS3CvWKSeOvhbdDScu2A9tXe19MOukHQIvgBTu36fTPQeAYW+IwuaRcug++iyY007vWHYAiwNhfQajuR4vMgY8A/Xa40RnWM81uGu8BZFE7jkC1inZsynIyddV9P/qQdYvvQHsBhTRt/G5OoWQExQ2DDvA+m4DWJwe84rzpekjh6xdy4Q+8e7snzgi3fzi5AtqmSf665nSQ7yL53FSQxcsK7CdANZw3dwu4m5Osgk4x1LLawCL3QqskpIqENJ1CmGkEM4CwLKPtXUyfWaOY18NYmDZ/wV62fiYsdECwCIH9tAg4NYaBcphXC4igEUWoX/YHIKUwIY4gMq6l1opMAJUARqxZax7LCHrnP9EH5IRcIZ+Y4vEKeze3d4AGBmmF/SFXgJmAVeAKEBSATOp2Aqja/SN5xkf9/fc2hadBYBFVmwpgKw0WHtxF8PZ/gqEAgIBddsnUuq/QzXqeWPtAOgAWEA8Nlj73vQ6+SNMsEPaB8eQWwBYxrLroBf63HgNSiGMgBV9LugaY1YDWPo6qFyCd0QGAZZhhiWANVyvruUTCWCtRWorBGCJCFAYnHVKD2pOYQJ8bLwcFMYjZUq5W7g2RNFqRj1mVBeAhaKvUGQbRe8Stw1fBLPvNCIAlhRCBjNlTblTpACFALB8VxyW0SkFzCZr02C0cjalCnKw9Afry/vY3H2JyDJMKRx0cFFZypBzhOlFLpSm39tQpA25p+8U8bBNaYIpNpNLE8AaLlbzRJQTfbxOpTFXbcgMHOCm6GScdresABanXB0XRi1jWlFStGtrqj4UoZbauAAW2URh1LgPFgMjGLvCOqqbyN0gAEs0O04ttXYxYjinUcQdiC16ySD0DIYLhxMI4itS/6RQ0wEAed/pFkarewL0ANfWPcMImElX6CtnBBsVqA5Iow/8flia6fCZt76fGAXAIhOgFQPSmvAz3WiNkCP5WAvtMex6E2sJ25YB3G4MxAAa2ykS9iFgZn2aj/6E4whQ5hy6dwBYorX2Ibq7NpbHKeIefcQQ4kS0T+N0X3sX0M0+aC7Hs5YdwAIoctoEodoNIMXJaBe6pR8xBzAWIvJt/2QnAICsW3PHPhsAFscOEGaPjgLY8bxRi7hjy0ZasPQqcyFqYAERzAl7tzljzeubPug/8J7dECwIuoB9wE4whwBhGJ7mJLsI687fgBVkQ1eaYw63YW+wHdzb2li2elgJYA3Xv30AFkCcXRwAlvnkd/ZRbJx5AFjmaqTW1gAUMBkw3Adg2e/oW0AM4Il+bwNY1hEm0CAAi21BF1h7iwRgRaCer2CPsJ6tc2VUrHF6yD7h99a+vU39MuwnDCn7gBQyY4p9RacJdNt/AEnqLrEh2CH2BsXMgTTDmrkjIMJ3wRalY9yLf1YDWO7D76Bv3F8ZFmy4CMzNAsCi79lw+kaX07ldaeb2cYEPn+evdelANmZd0L8GsPqKuAt8qQ3GxjNOwZKrZRoAljUKeGxn/gCU2JaAwL4UQj4fedPnEezwjBrAwu6y1w9q7gPAyxTCYbN+7X9PAGvtslvqUwi9NmMFgKVongUZtEpGo5xuucgMPX/nyAOMOInAIwahCEMfgEWRdEVu+8Q9iNUEwBpWxF0aSX2kb/0cBVpFTBjINhLAHMOU8uXY+rLBimagsVJuFCWE3edEoIBn3gkqT4FTyjZ16TTjnk41wZSbyqUJYI0mRgCLkzRtxu1mXTAWGDEicTazZQWwvFswarwDp5VxME0AS9SrndLFOBZJs8HXEV79sVbVS+hjYA0q4s5o9D5ddSKMm/p5nFzrmS5gZAByADKMFI4Hg5De0RhDWDqinIq4A/gjvZguoBMYShwFRuyw2kijzb71+dQoAJa0BTIFXBnHqI8UDCxyYdjSkcOKoZItgBDdX10YAIK6i33MLWACQ5kjYf7UB2iIjuqXwApghPMQaTR0OzYWEEMtrBo8XQuAZS+TiiYNpF2bw0jpv3cH9HmfYBbZGwSIlvGkSoC2vRAAJEXUWuHAdQVsOKr2Qs6czwGXY1+0Fq05zhg2hpp3Pg/AYlMYH58HQvten1gcABaZBgMrVsaoRdzNH7q6a10aNzrIvLL+pQMB5/0/7ANrm7ODbQLAdg3HlXy8A1YZVgZHnj7wRX+xm7rKK6zPyl7bUxLAGi63PgCLfmizQuKgEutoGIAF4LHfsUE1espaEUipa2AJntlnwjlnzwHXu2pg+ax71s38to4FZwLAivUV5UHoafuf9cwOEKiLFgwse6HAwTAGFmAIy3reAJb9CuAMTARMAKYA2sCpALbpNrY/PcCmsz8CQjCKsIOASdg7dBEmtrIE5MEPUmaCXcE3sG/RIe5NpmFbDJ9dTbmerqJfBE74NcYaeQAA027kHyUf2KJso6h9BvRxzTRO3wQy2W/ZauaLel1dPl7UqrLHYy13BbYwuuvDb6YNYBkTY9zOIMCq59fyA+l0406H1zXJ6EBjy88F1EWrASyZPQIUg8gLanPyHeyfycAaZeaP/5kEsMaX2VVXLHsNLAuV0UgZU5AiJRa+CABFGJsxJQ7EAVpRTpQ0xWrDrgEsUVkGqA2+3Sx0gA+gDBhlM4t0jPqzjEMbhqhmNBupiD1kHipO6UjlYegGAwuABdHHoog8doYzuitlA/GXiy3iIvrEIcLEcI3IBQfIxqHvDA3sjWB42Mw908bF+YqoDdnVxaAnmErremkAWByNOrK2rp1YgoeZP4pvMuL6Ck97DfOQccMJsjkGiwkzZdkaR4yjFmtrWgws+gXAUTfUautS6nAY7fF3P2Ny9AFYjG96SGOIAi+iiLv+B2Uf4MKwpH+sYYYLI9RnOdhR6wqQQk/QO4x7gDb9HuA9/SLSqXFKGGdALA4tYIexAoir9dYyjH0AWHSy/neNN53IYBWpJk/jwpDVGInqBkYtLOMwirHMGAQGKapqL7B22il8gCJgIYCAQameUf0Z/RFYocc4U/atALA4AIAR/abn/Z8T5fpBABbHg47vasbY3oSdM6h5DmdSfS3/X1YAK94R44BsjbkxaJ+6aX/ESGCkA77ZBbXuozuNsbnFocZUM/7BwLKWyAsDmv40hlFHbVQGFhvGvNTYLsDNYGCxa+gzug0QbT7E6XAcDHM4ijazcbwv54QO4Li7hi3ks+oTAd0AcXHiHCYKJ93zfMYXVhfnpz4VeRn0QQJYw0epDWCxWTH+MBa7mrlGv8XhIOaqNHYAPl0ZKYT2Qz8H8GvdsEEAKvUphPQi0CKcZ+vP5+r06TiFkD5rM1X0x1oAXlnXsbatQe/iua6zv1orbGxznd1Ld9L1mK/WAUbuIJahftEL9n/2NMaygAc7flrsRACfAIUAgj0lguf8EX6KPtsrAOiCknV6Glnbs9j7wA7vFCnC/BMBbHsMm4AuZy/EATfYdWwBzCh+kHfsCsToQ1fQY9BM05cayPdZfWRDDSIG0M3YQ8bW2Hj3aQBY3pPPxQ7CMpQ63wfemFv+Dihkb7VP5ux67z4Ai9zczxzHaOJzsQ2x0wYxsNgzZNhlU5Ar2w1Jw77FRqDrNWOutpmAjYwe+4LxY+PZs6wFZAhBEfv7IACLTiArIJ59Q1+sp65TvYdrnWt+Aihqj0EkYf/UjLa13G8Zr0kAa4JRWwUAC8uBsWlBW9gUHyOzXWjQJiuKFEwk12Bs1QAWQ45xaqOTXhNGqGuBPzZIxqRrbOAApRr5dr1oP8MWAyIapByAFpueTZERgf1SpxByLjgqnGJpHaIP+kMJQcG9HwXFEZG2EBtOHZn1TsAIG6GvukV9IM+38TFqbXjL1gLAsgEMq1mzbO82zf5GPSSg7rDGoBRpMoc5P+ZgAlhNMYQZl4DlMBJClmFckls7cg0Y4sh2AVgAKk4iY0BjqAYwHSmEjBz3sLYZJJ7B6OEgMyoAIlqkFBtrhjWjOoweRht9RaegrNM3bX3gM4wre4H+LFttvACwpHsz+LrYpAy3qGXIiOWARQF74+t3ZCvlE+DXZVi21w9507X2BE6bfcV6qZ0yRiSwERgAFImT4uJeZG5t0utA5hrACgATIGG8sQr939ocBGAB1BjfXU2fre+uwEv78/okfQKosewAlr0Sg0zEHfBrP673TDVDOAPYCN5VUKddyJ/TS0caa4Z/DWBZP5xLEW/OqNIEQGdraRiAxaGyTwOKIpXbvm9fjhpY7A3OvcAVQJSDZ95wLDhF6qXUpxCa0/pKH9RAAaDNtdKL2BPtk8TMxzgIg3yiP8P2jkX6ewJYw0ejDWC19672Hegbeg6IYh/EgLJO7G/mSQBYbFxgSgRBOO+cZesgACx6DDOIIx9rzD2BLHX6dABY5iB7vm7uS58CZgWPrDVr3HvUe5+9TXDAl4b1Za2Y5xx6fZfCNsiJpzPtze4bbCSZDfaJrtpIw6V/zU8EgCWNL+oyha3uHazJPtBHv+gB4Jq5j6FDPmx81xobe597BEvb34EFfCWgFoAGE62L4Um30ZnuPU4zX8yPaN6H3qRjBwVTfZ7OYouQi75NA8AKwJPvxOeKk+i73mlaABbZAcEw9cncuokTNPvSDCOFkK5Glmj7N4Kd9hp7A4Av7MsIukV9OD6joAs7x/7heeaAd2MDdNmsbVnYY6x5wDWbyDOA1hFoGWc+dH02AaymSQBrglm0CgAWthLgx0KzMWKcAJG6moXIUKXYOZ823C4AixPIwLO5aTZ8kUyGbQBYNgyR0rqmic0ReNQGsCx4NbBEsTgGFDNFHnV60Hs5qRQrBWFDjtM8UFU9iwFebzA20a78bUrBu1E47QhIyITyttH1HR8+wZRal0sDwBJRt/Fm65aADZThwdEeZDQwGMiRoYiN4roEsP5XpsAlqUWMj3YjWw6+eRgnCtafARgBq+p1i/0immU8AlCiu+gHDmoUcRf1tZYBT3SRVFDACyYn9kQNRon+Sf+L01hro5Hx6h1Ed7uYRfrGgZbqsUypg/GOAWCJNtLPXYA8g818JnOgUp1GZg8EONgXBB0ilXsUnRInvolmGlPgAtCH8wCQ4lhYW4xHaQt9jpJ+AVfaAJY+YN3ZU8wzz8Ec4KxJaRNNB1jFsfU+j30FjOtqjGh6nzwGNUCgvYoTot/LDmB51zjVyVqwb3PezHdrD4CJxQTA5GwMc+jbAJb705n0BCeZUxig8yAAC5AIXLa3W89xYpSoP2ejLuJu3gLIBM2kDAK5zBc2j+cGG8TcEJH3PvpUN/OSA2dOsoW6wGpMbqCDvy9jSwBr+KhZ/+a5PcucH8YkMo/YpYBeAQLXAckDNDVX6S8sCoGVYFLQj2xa9q7nmJuAJ3OWrREAFsAVM1K6qv3SM7DBMFfZqpg7dXM/pUAASPQgUMCaqevV2uv0A7uIE6+PbO6ucgrDJXb1T2Bi0gGjBDpGuXcAWPSBwJXvEdygn4AOAHR7uc/WYJa1zC4AMgni8xXoOACI8cF+4wcIwLM9MF6AHuRsv7In0VH2K/qlnULvWXwsbK2+Gr/1OxoD9gidGhkg8Xf7mPnQ1kv19eYivwjAiUlqDk0DwPIe7mMfNZ/6fCN9IWPgkPlMF4YfOGgszVdBBvPavh8H6pAtuw4YRNb0qj3cvO6yB9gCQFnvbUzb9ow5/P73v78Es9ik7MbaNnVPgQl2pL3Cz0Av7z0MOBw2V61L2T3m1DRaAlgJYE00j1YFwBINwcQSyZFLTwFRIrWTw+kD7EDEbXyKPrdrYAUDi9JggMYGLTXAoq0BLAaADVZEMxonyvNrAIvSgIbbQAFmWByiP2E41KcQ2oCAWTYAm4z7UFDYBbWT4nk+JzJWtziyG2rPSWunSng/9wNW6Osww2WiyTXDi7MG1mjClWYKYGW8dDXzhMPNcAHCYPQxbBhMqwJgeSdrr32iy7Ai7tYtI2IQ3Z2BBlySOhEpaV1y5ihba4yJYFWKrnEKNOMjvS9SCDnXopeMZECW74we/+ccA93rtS1NgC6raf76D3hneGIGqYlRN39nXHk2hxejdNlq4XmfUWpgiaCTL71Lp9KlNVOKkQrAA9ZgUo3jvNOpZGe9cP6BVYxF+wMDzT5jbxqUljgIwPI39+NEYOlwNNyrD8Dq0wycBjpfQMT6bjdgBodMoMZcY6j6eZlrYNXvGO+PEWft+26P5CwA+DFDOC3tPbNLnl0Als+5LyDUHLOWzQuODcecw22912uMXrJufY5toP6YJiBnrCKFkNMPqLR30znWq72e0w9cBBrEfLYegN7toIW5CNyJNMI2G9Bz4/ALbJlR5DDaLrS+n0oAa7i86RTBT3OmzTTsu9reAlhxjb2sXTfKPX21QdH69/H/9mmdXb/3LHPZ3tl3CqG1FPvq8Lde3E/wV7DJ7NP2Ii0YWDVrCphlL8O6tL6tZaAg4AQz2zVARkEKQRlBL+xdbBu6B8gY9YGlIvI93ItOYZf4uV0jMAAs+oZeGNYEXOyjdFINYOkb3+j000+/BpASc0oJBPsa+wcDi281zRpYMe/bp+2238nnAE70M/BzFLsoWN7mI/8x9DH5ARQDPIr6w4NYf8BKDcGg/TnPEYjo+tuwsVm0vyeAlQDWRHNylQAsDiGFzggEUDEio9kgOISUvtoSkGnRh/UAsCgvjo0+cTwpZo4U5cwRqQEsABwQC1DG4bZpMJY5Ve2IQTuKwcBwf8YvJoF3i5PKQg42L8/VB9GNURTzRBNsRhcngDVcsBHdFwmLDdFVNkQbrCgXQ4NzLfIftXUwSVYBwMKiACYw2qwdDKUaRBgGYDFggBAMqL7G+MP25PRHOmDXZ7ErGJmMG9cAU0RNpTJpAGtyB0oHAwv7hRPMAMWwEAUEVKnzZA3Xhk04APFsPwMvMaukTWN5tAE2uh/wph+YPfTGsp1G6n1HAbDoUQEDYB4Ze9easaJWChmLzJK3uWP83ducaaejt8eYjncPQANnwfoBNhk/keRhgYJBAJZn0fXSAYyZfY6uHxfA8j72FcGQeu8w5qLuHCgOhnkSBviyn0LYHqdI+6MTycO4GCvMAMypdopw37rvA7B83voGBAGbHb4yiIEFRMAGM+eAU8FwAK5hULUBLDraHOWkatJrMGbbRYa79IF6JlFSAIuzDWC5xullovcAsHbx4OE7zmJ8IgGsxRiH7MXoEggACyvHXj0spZFeZtMBobA01SQCOLMjrHM6yL3YHOw8+t0+DwRXlsA+qC5v6CfX2k8wOtun3gWAZc9pH2LT9YZ8GAF7+1QbwGqfQuh6z6N32KLsGjrY+8/iFMLRRyQ/uR4SSAArAayJ5tmqAliEEidw+T/ly0HBwFpvAIuxSaFzTEVXODZ9ABaKL2eb4mfUMrAZk1HEuW+wGeYMWZFZBjm2meLm7WgYcMwmweEWpVnWlgDW8JFjSABtGSsR/QFYYhIybBgMnJU6ArvMpxCGRKKIO1BBzTmUa8YUdkVtnA0DsKLuh/SEvhb0fuDSIEo6WaPuiySLQGK4ANewPgYBWNghngF88x5ABmu7DUzX/TPWUjLoEKwOz8bmbDu5AE4gvtoj/o6Ft4xtFADLu2JCxWlu5AqssR6MB70pPUPUOuo7+D8QGAxeJwAAIABJREFUgQOA5dLnVHAmzDlsXOCi+2ii6Z4noj0sVXsYgOV+dLw+YCSs5RRCAQssrhrMNmcFOzgv0nra0eZVA7DYAYrjYmcHCET/sRWsSSD0KCDuIACLzIwV4DPSc/oYWHQUx9I65VgGCN4HYAk0sCGipg9Wl+uHnaImcOcdsTfoQfqkbRuYF+p+mrdsg2WsjWmdJIC1jFp8Y/d5HACrLakoaI/5ibXpcBjBL7VzMaYwdqMguWAePQM4t+8rhyIbw96FcdtVQmBWABadFbYophj7pLZFE8Ba/TWRAFYCWBPN8lUDsLAlOKuinrWBFhFJDjsljw1FgXNSGI+UvRYphD7P+YjTFgBOIqoAgaiBhbLLEK5PwcN2EOGPFEL38TxReFFe13KiMcUASRR2zcDCmrCopbOob6K5P6OT8VpvMJHi5J29g9pfHOQ4BanNrvJ5ERjOCmNWP5e1JYA1eOSMtXllHmEamBfAHM45oMK87nLUVgHAUuMFaHPBBReU9QU4BkAw1Op3BmZbg1FHoJ0yQ4b046B6DUApLCbgeKT/dI2MtejLvQBLoqzqFOmbxsHEwMICqRlY1qgUP841nQEI8RlsIgyJ+n30lSGs3oFn0EVqgNALAOv2eEs9wMgA0jB01TxaxjYKgOW9pDbQ14x44wAsYERLszQ25oyxFGCIEwalhxoPaef1fgIQi6Ks2CwcAONjXamB4Z7GDdXffTkUUj8BRoISXbq5rwZW15gAzDBxsHbaNbC6Pm9NSOkAZnu21ED9if2rD2BbdgDLGraf0oGYkvWJrFjRgGeAh30fm4mjZ7+VQmqftt926clBAFZb/uqocA6BpO0UQkCztaxv2JUxx4wLx7NmYLEp6Cj1VMzLAEmVT/AutfPnvc1h4w6gjSLCGHh0Q5tl4fP6SQfFSY3LejhKAljLqMU3dp8nAbBCcgp7A6iB5fwIvoa9SWCCjsDgpQvoGuA6fcOfUTORDgKK0y/tVPcAsNhL7JxhTcCNrwQkbzOwHIZDz9C7njnIFk0Aa5ikl//vCWAlgDXRLF41AItT4VhRzllfU4CSYQqgUtRP2ocoeQ1gAUg4MuFoxMl/9SmEjFGGYG0MhrEcABYHxubBeFV0jwEpQo/VIX0Ik0LRYI4qwEFfRD8ZYaIS+om2KyrKuMYa8DtMLbU1RJNtUpwnlGH3ZIAyZuPo1IjOYuRgCJAPp9VmsqwtAazBIxfgDMadqLqUNbWt1LsaFK1fBQCLIYexaA2gxItMAqw5ovQDw41jzsjDdMA0sIbWcly8FDFrSuqutTmska+aZJgXmFQAdfrA84FJnNPtttuugGGAD+wfjAv9BcwDtfVfjQgABseVzvE7gB2wHMNUM97uKSLLMQbCAz7oD9fQA4xcYAZ9s5b3H/a+6/H3UQEsfQH207HYbAxtc0Lkl/5nzEftK/uioADAx36BseWzwE4OgBQN6RqMcXrVOAI+jC09TM6uBS5J8bAPSFs3XmqRGVcBidg7RmFgebZn6QfgA/vGPkKXDyqu696Kvgpa+D8Wn34K2nQd012P2bICWOY3ENEeaV3Qg4JadB8Hz/rCPAMoGkvykXpDJ1gHwG7rkPMnzUYKTg1kDQKwAEfGxZhrgCi2hrVN39TgpcLTdJS1zAYwb/QdgKW/ACzsSEXbBdzYK/pqTdPr7m0OuV5wgj0BtLI/mp9AUcWcOYycRc8CsoZ89JFuAOCZ79JLpcJyZgftE+uxrtf6jASw1iq5vG5eEpgUwKKn7UuCJvY2wSt7GIY3n8NeI206UgitbXuB/QTIxF8R7BLksDdE4J48AsCiS0axEXw+6kK2ASyHVdhv2S/2w0F1IRPAmtdsXL/nJoCVANZEs23VAKxhwsBOEBngNDL0KFEOTRypGgwsC4vjG6wMDgPjs2ZgYV+IItRAEIcG2yMALM/hOGA4iJaLvnNEUXgZy5hZPq8mCyBL/rdNBVDGoKXgsTU4moxQERRj5vMcVZFlznnUvbI5BEvLM70DgznYWhxnRizm2bC0lmGynOffE8AaLH3RNvMK6Cmq3ncCXfsuqwBgAXOtB8WqnehTnyhm3mAgilRyNK13QBF5tVkJo8zvcQEs+gEwDexQgJmzhVEFcATEWOuc0Di5kB7ChJD+BiCT9hRHgQMiOJyAEoYh59c9gHd0lbpbHHSOt/UvXRAYFswyRjND1jzBDh0ldWoUmaz3Z8YBsPSN7hXgiBOryJec2sWM/Z2DT3/G3CArY0F27mPf4CAYT0Z/XViVnvYc4KJAA/2uZonPGGPRbMBTjM8gBpYxM9bmm1SvmLuAMw6Lfayv6SdAxNqWOox5FcXZh43VsgJYQEPvjF0AtJYaad/l0AGk2qmSPgPQdB2ASNDI2AP4rC1fNfA0CMByH3YB4EhjA9iT1aQEMtXrzHyyLgHPnEN6y3X0k/ULoBIA8xl9scYBb8oLmG/sAYE088HnvCNgU81Mc4/uswf4fe0w0pFsA/oo1oT5AawFZAmYLas+SABr2KrOvy+aBCYFsOw1dESUSbAnAaMURbff0ONtACtkwPZwwim9QcfwhzC2owWABVCPGnqD5Efv0EX2mvYphHSM/oxycEACWIs2S6ffnwSwEsCaaFYtO4DFIcVsYjBy6IY1UWwGH/AKOMQQ5bxFvQfOgdo0fgZ0xTG5lLwovHQSEQrsBTVFgEEiutFEfKUpMBpFSG0cIrtYVaKoHGabAODJUbyMbA6Fd8CuUKPEJiK1KdIJ3CNy1xmdxgwAxSnCtlKEu+vEIEaqTYlxywHyToxiz/DsZW4JYPWPHrYgx0baCkBzHEdkFQAsc50MuhgE1rG1hiFBLtYaUJqsxpFTSN86ZPwBs9W5G9Y4xUAk40KPYH+41u+xc9SzsW6xIDiTwAdgdu1Q0iGcYfpO2p8x4/hqjFaAelctC2lwnFPOOmcc20gkVL/b9XCGvcci/X1cAGuSvmP12D8AIMaP7EZJtYqULnuBmobGR/Hu0MP+LiABoMKWpOfb8xezUKoiQMRc9Vxzo31qVPv9fN61GEXjBi2WFcAC9JCv04OdOAm4GrW+Fd0BdARqG2+AdwCNIVspvfZhDmMNkPs7GwLISeaatQXoZBO0GQyCWAAzNogG0MK6ApiyaezvgE9AFuCNnjA3op6deUOHYHNyGAWzsM3ME86r+QG4aq9vTiaQy7O8R6SYe9eafTHJWpnXtQlgzUvy+dy1SmBSAMtz+TSyONj39EO95ulxfgm/BUDVlcKuNhYbAche6zTXKktCT2CRDmt8LEF7vhXbaq0tAay1Sm55rksAKwGsiWbrsgNYcRpH17G+XYLxeeCR96bggTptZ89nOAhth7b+fdTUan+u6/cMYhsUZ8U9OJy+i0KI/LvG7ziWgCj9afdJfwFRcZoVJhXndlAKiPv6jGv93/OWNS2gPZYJYA1e9sZ8LSdMrgKANUgy1kF9HLj1MMkx3ORFnwCDRgEy9M2atP593pqOdGe6SF/8nRHo737uAh1s/PoeYwyk8PMgFpk5wQEO3UcfrGWOTLThzODi9QSwjBtZk/MoUeT268b8Mw5AsHqP8R4AVs5D+2/uYx8BjsQ+NGy849mxJ60FpFxWACv2VO9sj13Lu1sn1rb11051wbLSrPv2vesxDgDLPbr23qjRFXMp9nX7v35bn2wH4y6Y5vNda9zccQ99oVN83jzqW98BqEZwS9+i6PwMlui63jIBrHUVdz5sChKYBoA1rBt0GduiK9gd1/bZjewce9Ww03jdJ1II2S9tcH9YH+u/J4A1jrSW87MJYCWANdHMXXYAa6KXz4uXVgIJYM1m6FYdwJqN1PKu85TAegJY83zPeTx7WQGsecgqn7kYEkgAazHGYRF7AbgVPLBnAG8FBXzF//lDdB4gGPgLSPYdwOv/QF5AcYDF03rH9QCwptXX9bpPAljTlbQ5HmUR6jnv/2TtO5AyDhwy32Pex9wHSnax+9fa0wSwEsBa69wp1yWANZH48uI5SSABrNkIPgGs2cg17zo7CSSANTvZJoA1O9nmnWcjgQSwZiPXZbprsE7tDdjMDjBRW9Z39eX8HyOJA+0LMykc+QCwgFic9QCsOO/Yj+oOOtFZSvImm2xS0nYxMbEsXbOWUgQJYF1zdiWANf6Ki3kfzH4nLytJ4Uu6ehzkY13EvA9WPnmbuwHeAmtlAPgy92UQSUc379VqNvfV8sSyi9N6x537CWAlgDX+LK+uSABrIvHlxXOSQAJYsxF8AlizkWvedXYSSABrdrJNAGt2ss07z0YCCWDNRq6LfFeOO0BK7TvOunpO4bwrPq6WHYAqUvI55NglvqTqcsIjVZgzHgwVewtwyRdQINhbAQCQCWfeqbKALA690/w222yz4vAPSuOt5ZkAVgJYa11fQCBlDZxMb94DaM19B8bwk+KwngBgAbLmuJ+lpZuj1oHf2+/Nc4Cu9eRa94/fKb9h7lsf6jmqy2i+m/fmv9NxHRgl1XTQCZPxrglgJYC11nlfrksAayLx5cVzkkACWLMRfAJYs5Fr3nV2EkgAa3ayTQBrdrLNO89GAglgzUaui3hXwJXi5Q7H8OUET+wqB534mxqxW2yxRXP729++gEyKm3OuOe8c7GBYxc/YJ77ovagTx2nnaNeglrqV6uABCRzWwB71c9SJwlLZfPPNyyErO+ywQzlBfFAdvnkAWN5J0XcnrDup2iEyi9SSgTV4NICpDuw488wzm/PPP78wrMxB9hAwFlvKnN9yyy0LuKT2GbDKvA/wNuqsShsM9lQcguQ+gKwAbv1fjUaMRiDZ17/+9fIFMNYX4HAAWQ5Fchq2Z0fd5q63SQArAayJdE4CWBOJLy+ekwQSwJqN4BPAmo1c866zk0ACWLOTbQJYs5Nt3nk2EkgAazZyXYS70kf0PYAKePTe9763nNAJAOIoc9I56zvuuGOz0047FXYUZz2AqWm/g/4EawWQ5iTxj3zkI81ll11WHH3gF5BMfx7zmMeUE8ed8gk4qA9YmAeABaj4+Mc/Xk4udsrxhz/84atOY5+2nNZyvwSw/r/UonabeYJNCKx1muQPfvCDMo8wqYBH2267bTlxd6uttioglr+tNa110Jjpj3kfB504zfaDH/xg89WvfrUAogBef8fIevzjH19O8ZVyiO0Y6YbunwBWAlhr0Q1XXZMA1kTiy4vnJIEEsGYj+ASwZiPXvOvsJJAA1uxkmwDW7GSbd56NBBLAmo1c53lXfgrbBNPkU5/6VPPFL36xsEAAQZx1DCvpTL448nGC53r3mb4EMgCz2Ki+vvGNbzQXXHBBcerVz7rLXe5SmFn3vOc9SxoWh97f7nGPezR3utOdmje/+c1rqqO1lnfFnDnooIOad7zjHc0LX/jCZr/99luYk8oTwGoKC5B9g1lo3n/2s59tLrnkksKKUodt6623LnMe0wpYK211EONpLXNk1GswtJyifPnll5c+mvuArW9/+9tlPQJvzfntt9++pB3GidtHHnlkc+KJJzYXXnhh+f1Ga7/+zW+an/z0Z2XNl3++X+taTeP7/5gB2XolkABWTo5llEACWLMZtQSwZiPXvOvsJJAA1uxkmwDW7GSbd56NBBLAmo1c53VXTKb3ve99zSmnnNJ885vfLKwmgNXjHve45u53v3sBha573etexbSaVz/bz6U7pR3+27/9WwG0gG9ve9vbCpgljQvg8OhHP7rZbbfdys/3vve9i4O/ngAW9/iTn/xk86QnPamADKeddlpJPVuEttEBLOyk8847rznppJOaL3zhC4XRB6DCsPKlzpp0WLWr6hTAeY+dOWXsAFpq0mGMWbuYiWp1SeO9733v2+y1114FsDrqqKMKgCodMQGsBLDGmr8JYI0lrvzwgkggAazZDEQCWLORa951dhJIAGt2sk0Aa3ayzTvPRgKrBmBhMWDnYMocdthhJTVolVuAPpgbnN5TTz21FKhWvwfbCnAF7MFeGvfUs3nKjWOPaYU9xmEHTvgZCCHVCrvmEY94xLoCWOQBXHvKU55S0gnf8pa3lD4Mqte1XjIMAEs6pjUNYFum8R5XTsG2CrDzne98Z2EwWQ+3utWtml133bWMjfpqoxRIH/f5s/w8MEuBeSm/5hn2pDkGhMPaUrcOUzEBrASwxpqHNYB13HHHNfvuu+9Y1+eHUwLzkABK7e1ud7vmrW99a7P33nvPowsr+cwEsFZyWFf6pRLAmt3wJoA1O9nmnWcjgVUDsDh222yzTUkTYp/vvPPOpSj4qjnzHHgFoc8666wC5nDeAVeKi9///vcvqXdsvmUDrtqz3HtionDogVnqZp1zzjmFWbbnnnsWltZ6ji0fEEjo2ephHX/88aX4/bybvWePPfZozjjjjJLa+NCHPrTU6lLTbNUaIBNDD7ijMLsAPaBKIXTz3nurIbVswFV7nKQ+YmRhIX7uc58r7/v973+/gFl8OkDdRmuZQjjBiFMSisEdeOCBzdFHH90ccMAB66o8J+h6XrqBJXDuueeWOgLmruKY2aYjARvpQx7ykFIc8uSTT26222676dw475ISmJEEnIzD+EZBR7V3jHO26UiAfSA959BDD22OOOKI6dw075ISmJEEgAMAkEjNOuGEE5aesQTseMYznlFSvaQVcWTt0dgY0r3UgVpPwGOaQ2e8pNgBriLNyGlq0qLuete7lgLQnHfF2Zfdee+SG3aNNCsgJVbWzW52s+aYY45Z9/E0x5yWqH6XkwkBpovQpFMiVmDoSJ8zJ4BZgEwgW10IfxH6O04fgDnYR2effXYZ+4suuqic5oeFhGUIvAJiLfP67pMHu8K6x8RyeACm5Qc+8IHyvhutJYA1wYibSKeffnrz5Cc/ueRiv/KVr5xbEbgJXiMv3WASOPzww5s3vvGNZbMVncs2HQmIAqKTcwLk3jvJZ1mN4+lIJO+y6BJw6s3DHvaw0k0nUjmRJ9t0JMDBVG9GZNQpQ9lSAossAWySCMg+/elPL6ArMGTZ25VXXlkAeowFxZzVgsJEUgMKIwtLifO3LO+KNQuUULiZ84o1B0S59a1vXYCUBz3oQQWkkDa4UewPDj1QQ0rhejd6/tWvfnUhMTz/+c9vnvrUp653FzqfB9DB2MHIU5/LGjB3FLs3R9QMU0tMeuEipD0OExr95ATNKMrOXlH03FoGzu2yyy5lTasTtVHmPRAXkOd0zmUGJIeNfd/fE8Baq+T+77qvfe1rhToqwgEFdbpBtpTAokrgxz/+cVHyonIArI1IO53V2NhgRb2e9axnFdaFuhurSNmelfzyvusvAc6P/UthU9Fapzplm44EODYAbc4Dyj9du1EM6+lIMO+ynhIA9BxyyCHNu971ruZNb3pTSTtaBsd2VBkBOKTVAbKkVgGABJ04vOpCcewBzlIMr3Od6xRAa97rlQ5RA8fYAK0uvvjikib16U9/urniiisKw1Ntqwc84AHNjjvuWN5lFdlWo47xvD731a9+tdRZwvx5wxvesFD7KKIFgNO8wdhRP0zgyjy5853vXPwBTD2+qwAW1tIigCFRz01pjksvvbQhY+mi1oAGfJNJ8uAHP7ic0reKbKt5zedleW4CWBOOlI1FCuF73vOeq9D3ZYnkTPjqefmSSQCF/rWvfW0pZurklGOPPbZE6bJNTwIAQkaMY27f//73L8ypNNN7w7zTqkhA+qB0IYYh4JUTlG26EpBKzD7AdJWStQj1Uab7hnm3VZEAkHWfffYpcxSzR1R/FRuHHpODI6ycgiwKaWjsdmlom2++eQGygFpbbrllsZHW26EXDAM66BenHXvmW9/6VilPoP+3ve1tC4vmbne7W+nrste2WvZ5Zj5JTbWnSmtbVD2PgaWwOzDrox/9aGFnYa9Z6wIsW2yxRZlTgC1g6Hr7suY2wFZ6nL6pcwa8wiQDZF3/+tcvmQ3bb799s/XWW69Ebatln/vz7H8CWFOQvhM/nHQCvZY6tO2222YUZApyzVtMTwKijzYt9GaRO44VA23eEcbpveHi3MkJKPvvv38pICk/36a7SpHsxZF09mStElCv7XnPe14BtNWMeMUrXlFSCbJNVwIMb8ECxjhZP+pRjyrsjmwpgUWRQKShYGLKKHDalVS0jdA4zN7/kksuKQAzQEstI8wsf8NSwU5RM4uNb+0KTmF7+Btgiw0VX2QWNlV8x6LS6u/+7wtQJdVLcBG4AAiJlC998nu2g9MT6Wd1NZ/2tKcVYA24kHbFYsxS9rW02w996EMlXVxK2yK3mHtO7ZOJwWY19yIV07ySVistz9eNb3zjMu/jS2bBoDnvb33znlysrZj3ACvrDVAl6Auw1RfN87AMscOe+MQnFpBwURhiizy+G6VvCWBNYaRtQhbeUUcdVTYaxRPRSSmABAimIOC8xZolYBNR2FO0xamDHFcMLI7UekdX1vwSS3YhgFAtBPVE0Pqf8IQnNPe6173ScV2ycVzF7jK0FTxlsDJcRe9f/vKXlzSU3KumP+JsAw7ps5/97OZnP/tZORnKwRnq1aw3q2P6b5d3XHYJyCCQUoeB6XQr4MjBBx9cnMaN1jjSUqswVLCzBKY51fQlNhTHGdMJW0UBeAXh1VziZHPo2VO+x5ff06lAKPemC+hf/48vrBKsKoXY2Q2KkmPxuC+QCtNqs802KylSvt/oRjfK4PgCTkx29ute97pGfdmXvvSlBWxZlv002H6CLUBTNeLMfSm25qX5bD4qOyK9FphkDfB1zXllB4C5Me9jHQRA5f5A4nreA8qkxHqmNWdv5Ju4FyaYuW++Y4T54ktvpJpuCzjFF7JLCWBNaVgsTuj7c57znEJ1tPgUiER1dAJEtpTAekogjhsWzQBeOXYYrfmFL3xhKdqcdRJmNxpkL4IE0MbAsvGK4qoz5DhvhnC2lMB6SoABqeBppA0o/IlR8PrXv74YpQmmzG40GPCO9nYClJQgqRkYLg984ANLytKyODqzk1Deeb0lACQBWKnbqigyBoSajc985jMXNv1pvWRk/6YvOeDYWBxsjjzHXrq1L862v1vbsX6xVur/x88+g3GiBfMqvvs8ewAgcJvb3KbYCQqw3/zmNy8nwmJdsdU49qkn1msGrO056qoJVqodJyi0bAHiYGUBWekDNiyQyd4F0P3Sl75UfgbIWh/BwHJd2A9+Z977OeZ9MLGsgZqVBfBiGzs5UABNMI3fzB7hMwOAzfu0TdY2HzfCVQlgTXGULWppWpwCVGT0TMBWbF5TfNSGuFUYB0mTXttwk5tNVAqbnHYFhX3PwuJrk+e4V9noHW+N7cIA4DQwDmITH/d+G/nzZEaPhoG06LKIvi6S08EYFDXlHDk1d9999y1gSrb1kYAgghIDTk9SK0/KkD0uW0pgvSVALwFGACRO4eN4q6m0bE73esrNHmRPF6Dm3PuOMYXFBtDy3Re738/Wtybt0BcGCyaLQKKfsdz8DLzytyigvZ7vlM+angSwl6SaAl/UkJvHiYjTe5ur34ndCsyNeY8x5eeY+2xbv7MegF98YbrEHDffyYJc/OyL3jHn+Sbx+/TzZjV6q3vfBLCmPLY2OYtawUWRLYg1ECvbeBKgAJ3mwdDaa6+9Mv1qPPGVT9tA5K6joaPl2jQWyaFewyst3SXmsdQAUSwOLKPX77KNJwGpHBiu6gve9773He/idf60yLw6GAw0deYW4WQ/6976l/oiwo+SL8KZbf0kwDbg1GJzcHZ8Z/hnSwmstwToJM6jVFbMH7oqmQ7jj0LNqBK0iHQp3335e7BIyNf/g5lV1xAa/8l5xaJJQCroIx/5yALkSBuX7rmqrc0kjPnOtg3mlfne/qrrxaUvsqqzY/3eKwGsGco6FvkMH7Gytwb6OWVCxMtmAIjJNr4E0kgaX2azuiKZmGuXrJOisASwCNUXW+QGnMBwQo13HP0i6a7UB4sxc9I2WIxx2Mi9SF2wkUc/333aEgBcOcXzK1/5SnPWWWeVwHG2lEBKYHYSSABrdrLNO08gAQAWajsGm1oNcqOzpQRSAhtTAh/+8IfL4RgArGOPPXZhhYB95XS/l7zkJYXxdOKJJ5YDEzLauLBDlh1LCaQEUgIpgZTARBJQmPzAAw9sTj311Ia9gn2dLSWQEpidBBLAmp1s884TSCAALKlD0nEcn5otJZAS2JgSWAYAC6tG9NVx9NJFgVb3u9/9Sh20PMhjY87bfOuUQEogJZASWH0JCF4deeSRzate9aqy5zuJPltKICUwOwkkgDU72eadJ5BAAFjqiDkt68wzz8zT2yaQZ16aElhmCSwDgKW+EfbV8ccfX06o0pyy41CPRz/60cnCWuYJmH1PCaQEUgIpgZRAjwTUfsIOf8ELXtC8/e1vL3t+tpRASmB2EkgAa3ayzTtPIIEawHJqhZxyJ+hlSwmkBDaeBJYBwMK6UsT161//+tVOmqS3nEqkUHK2lEBKICWQEkgJpARWSwIArBe96EXNMccc07z1rW9t9thjj9V6wXyblMCCSSABrAUbkOzO/0ogACyntzm1BbPh4IMPzpOzcoKkBDagBJYBwFL3ivHqGOm6Xfva125e+cpXlhpev/M7v7MBRy9fOSWQEkgJpARSAqsrAQDWy172spJG6PCWPffcM1nXqzvc+WYLIIEEsBZgELIL15RAAFi//OUvmyuvvLLZaqutmje/+c1ZzD0nS0pgA0ogAKwnP/nJhaa/aEXRv//975dTU51E1G76usMOOxT9tckmm2zA0ctXTgmkBFICKYGUwOpKAIAlUHX44YeXw1ucmrxodsrqSj/fbCNKIAGsjTjqS/DOAWDd9KY3bR7wgAcUau4BBxzQHHbYYYWRlS0lkBLYOBI4/fTTm7333rtZRADL6UMHHXRQ84Y3vKF3QG5wgxs0r3vd65rdd9994wxavmlKICWQEkgJpAQ2gAT++7//u3nNa17TPPvZzy5A1pOe9KT0VTbAuOcrzk8CCWDNT/b55AG7dZ0pAAAgAElEQVQSCAALY+Gd73xn84xnPKOc8PWud72r2WabbTKykbMnJbCBJADAkoLHKFwkBpaTB7/85S8XcE26c18Duu+0007Naaed1vz2b//2Bhq5fNWUQEogJZASSAmstgQAWIJYBx54YEklfOpTn9r81m/91mq/dL5dSmCOEkgAa47Cz0f3S6AGsDh95557brP//vs3N7nJTZpXv/rVze1ud7sEsXICpQQ2iAQWFcD6r//6r3Jsthp9mFiD2u/+7u82b3zjG0ttjGSRbpCJm6+ZEkgJpARSAisvAQCWYHuwxGWMZLBq5Yc9X3COEkgAa47Cz0ePDmBx+BRGPPTQQ5vtt9++efnLX571sHICpQQ2iAQWFcBS+2qXXXZpLrroojISal4Aqn79619f9XP83y/ucIc7NB/4wAeaTTfddIOMXL5mSiAlkBJICaQEVlsC2NhqdTp9UKkTqYR5aMtqj3m+3XwlkADWfOWfT++RQJuB9Qd/8AfldK/jjz++5JnvuOOOzQte8ILmxje+cTKxchalBFZcAl/96lebk046qbnvfe/bPOxhD1uINU9HSWekhxivf/iHf1gKud/1rnctqc6///u/39znPvcpKYaXXnpp0V9//Md/XBhbjNyMzq74pM3XSwmkBFICKYENI4GPf/zjzUMf+tDm6U9/ejmR+Pd+7/c2zLvni6YE1lsCCWCtt8TzeSNJoAvAcqE0nRe/+MUlFede97pX2SRufetbL4RDO9KL5YdSAimBkSUAGMJqcsLPf/zHf5SIJobTOC3uMc41o3z261//einK/k//9E+FWfXYxz62HDgBuHr4wx9edNU73vGO0t/3v//9zSmnnFKArN12262cUvTnf/7nozwmP5MSSAmkBFICKYGUwIJL4Jxzzml23nnnUhNTlojAe7aUQEpgNhJIAGs2cs27TiiBPgDLbX/1q18VNsbRRx/dbL755s1LX/rS5h73uEcWTJxQ5nl5SmCeEvj3f//38nhRSynDQCv17v7lX/6l2W+//Ronkl555ZXNN77xjQJa/+mf/ulA4Nr9PvjBDxbm06Mf/ejmute97jVe74wzzmguu+yy5kEPelBz85vffGQg/D//8z/LSUNve9vbmqc97WnNox71qObP/uzPyv3pLsXmMa/e+973lnp96mP88Ic/bN7+9rc3p556agHhPTNbSiAlkBJICaQEUgLLL4ELLrigsK4Ftl772tc217nOdZb/pfINUgILKoEEsBZ0YDZ6twYBWGTDgZRvfsIJJxQH1SmF0oukFGaB5I0+e/L9l00C2FVAHaCTtWwd//znPy/GoO+f+MQnClitFpZTfqx1n9tiiy16U/F++ctfFiYUgAoDCkuqbnSMkw0/+clPFiDqgQ984MgAFhD905/+dLPllls2TkqtdQ6w6jOf+Uzpt3p90gajKfqOufWTn/ykpEHnKUXLNlOzvymBlEBKICWQErimBDCs73znO5e9Xc1eZQXm1dg/bBA2R7bVlIDshGtf+9rNjW50o5Ft11WSRAJYqzSaK/QuwwAsr6o48t/93d+VOjRnn312qT1z5JFHNne84x1XSBL5KimB5ZDAL37xi5Lit5ao43e/+91i9AGusJRudrObFQbTrrvuWphRH/nIRwrD6Uc/+lFZ72pMbbXVVoUFZb3byLuaE0z32Wef5pGPfGTzute97mof+d73vld+z8jzudve9rYjCxpI5auvjpW/6VNfvxiVru37+8gdyQ+mBFICKYGUQEogJTB3CXz7298uAJYvdgyW+Lzacccd13zoQx8qQcFsqykB9qNSFE6/3IglKRLAWs15vfRvNQqAFS/JAZVGyAlVd8bxteH4jlsvZ+kFly+QElgnCQBpgEDS5N761rcWphNGEabTvvvuW2pB3PCGNxwK0qhRdeaZZ5Y0PAXagVLS/bCiFEPdc889m1e84hVX1ZO44oormsMPP7w5+eSTyzNQ9W9wgxtc9dZo/NL1tH/+538uzC5piIqnu6+I1d3vfvfm3HPPbfbaa6/mT/7kT5qjjjrqGimG6ldgemVLCaQEUgIpgZRASiAlMEgCmNVsEnYQ++SWt7zlXATGNhOcA2Dd5CY3KXU42VnZVkcCxpMtDKC85JJLSlmNjdYSwNpoI74k7zsOgOWVpBR+5StfKVGPqDujxozaN9gcyXRYkoHPbi6NBIBXz3zmMxsn7wCB/vqv/7pBW1ejCrvI2nNC3/Wvf/2B74SN9MIXvrCA0C960Yua/fffv9S/wrRSCBWg9cQnPvGqNL3YuJ1Ievnll5eTSTG3ogHPPvCBD5QfGXJAbfdD52dYYnJJSWTcPfe5zy0U+y6qP73h9MPUHUszJbOjKYGUQEogJZASmIsElDMRFPva177WvO9977tG2YL16hR7B4ClH295y1tKGQO2ULbVkACbVNkNgd2//du/bS666KLmL//yL1fj5cZ4iwSwxhBWfnT9JDAugKVnHNt//dd/LXVyMEKkFyr8TJGrb3Ob29ympDhlSwmkBCaTAGNIgfVDDjmkUJdtpA5SEA1y8p6fMZ0Ayve///0HPgxLCvPq/PPPbx7ykIeUWldAJbWpgGHYlH7Xbgq6A8z+4i/+oqQZOgUQa+q8884rwJYI6Oc///nC4vqrv/qrqy5XJH7bbbctNbT83Tug+tMfUhWxwZ7ylKeUNADPngTAIo+f/exnpY996YaTjURenRJICaQEUgIpgZTAvCWgrMlBBx1UDmrx5aT0ebQAsAQZMc3ZPNlWSwIArCOOOKKUxrjwwgsTwGr+t2RHsdd9/5/kHK7WjF+it1kLgBWvZ9o62t6Rtm984xtL0WQpRkAs0RHOsKPus9j7Ek2I7OpCSUCkEVNKmh/G04knnngVQPODH/ygeehDH9pcfPHFBchyIt8gEMjm+5jHPKas2WgMQcwpjCk1tYaBSNtss00xGDHBNPrjOc95TvPud7+7OeWUU0ox9foen/3sZwtYBlwDdHkOUO75z39+eRenF97tbnebSOb67/2xvbDLAGLD3mOiB+bFKYGUQEogJZASSAnMRQJsCPbD8573vMIe33vvvefSjwCw2GKf+9znSgphttWSAABL6QslNBLAuhb4KgGs1Zriy/s2kwBYNZCFkcUZdWIhOi0GFmf2nve8Z0l5wtxAr03HcnnnSvZ8/SUAnHna055WACzMp9e//vUFaAIef/Ob3yz1rLCgXvOa15QaVoPWFyYVtqQ04GjYWNIKd9hhh/KcYWCzFEAsq2A52dxFQt/znvcUgxIYpQ+AKqwoKYlOEcSwknJML2B9YWthYZ1xxhlFP0zS3O+kk04qQNojHvGI5iUvecmGLLQ5iQzz2pRASiAlkBJICSyLBDCedt9993J4jJII82gJYM1D6uv7zASwmmYhUwgZ/hYg2uM4wEIQxrquEdF3Tw7ONI4uh7QDWTxT2so4/WxPc/cwGTlRk6SZeEd9krrT7o9nkKtnTNJXTqbnQPQn6euwpT4NACueob8//elPm7//+78v0QhglsiEujlbbrll84AHPKC5z33uU2r1zPKdhr1z/j0lsCwSoP+kCkrDowuARcAgYBTWI1YTcNhpgWs5FfRZz3pWAb9cv8suu/SKhS7v0udAKswvAJbilkBqTaqglEesLHoQY0uqohMIgd3ege5Rv0Lx00nbP/7jPzaPf/zjr2KjAbKypQRSAimBlEBKICWwehKQtufwl+22264E+ObBfkoAa/XmVfuNEsBaUAAL9VJhMsXnNt1005FmImBFWoimFkud82sxn3DCCc3HPvax5phjjmnucpe7jHTPvg8Bg9ROcdqd/qkFUxcRHvfml156aakB8+QnP7mwDdbaIP+oq0cfffQ10l/8TTSAY3jve997pEe0M0jJEV0R28K9pOB0tUkAsrjfNAGsuo9RJwvDwtGjCr9jk6hRs+OOO5Y0w9vf/vbF0TWHOMfTeJ+RBJ4fSgkskQQAPoceemgBrDTrJYB9Kbr0OKbTuAack3xudatbNb/61a/KaYFdBdY9z30f97jHFYCrDWJZ03vssUfR+e6FHfb973+/XGONf+ELXyinBem7Qu50OcaYNL+HP/zhpTC8d5hGUwheQXssMnvUsKL203hm3iMlkBJICaQEUgIpgfWVgCAeBpb6nA644Uusd0sAa70lvv7PSwBrQgALGMBhGZfR9Itf/KLhpPSV2HLq1Ec/+tHiXGy22WadM4MjEseD+sC3vvWtZr/99ivfnYwl6u20KU2RYCkt3/3ud0tx76222qrzntg3NetLnZcf/ehHhbnUbhg9IvyOZ5fqcte73rXznpyWTTbZpDhQ7sOxqt+b/IBrjnh3Yhena1gjb05dDaxgGQHAsIsAf23WAsCNs+dYe05d1Irpe5Y+AndEE6IBCRWMU1j52c9+dmdhZe96pzvdaew50e7HrACseE4AWVhZnNkvf/nLhaH185//vMgGI8N7YGgBKTmdmHZZBH7Y7My/bwQJ0FtScg8//PDmU5/6VFkfQGA67oc//GHRcw5PAKaPGoQgN8wpdaiCek/Hu77WdYyzb3/72wXgkpZHD7eZk8A1bKfLLrusREHtI+6rr3EqDz0ahd8xvZxceOSRR5ZTD91zWo1M3FudgsMOO6z5oz/6o2ndOu+TEkgJpARSAimBlMCCSIB98jd/8zfllOPTTjttTQz0SV9lVgAWW4Yt1ra3gCn/8A//UPw+jPdxMln4lZNmBk0qr2W8PgGsNQJYBPfFL36xODBAHk6GNBE1SIaxVSws6SUi3ECKrgbcAnJJQek7PYFDAvS5xS1uUW7B8fnMZz7THHzwwQUcw2TijGicFgwni2pQRN8pdSLx173udct13k9qTF1cuO4vR40TdaMb3agXEAJcYWiJ7AORsBI4d9E4goATJ1Xd7na3G6lGiuMyFQWOfrqXYzQxCwBIADVAVd04dAAyhc2l5qC31g0g6Nj4kDdA7MADDyypNtGAPqILxpAT1gVcKoqs7ov3nqTNGsCq++Zdyce84fBiq5111lmlls/1rne94pybb8AsQCXZ1bKf5D3z2pTAMkqAvgLyOPHzlre8ZXPccceVUz6tJXoYcGVNYTfRoaOwsOgXBy6omXXJJZeUvYTeBJrXUcwf//jHJUiBMQWMkgLcrpFFNwOw7AtAfTpaLSrM3ve///2FZckYi1Nc9FG09Iorrijpg1tvvfVUh4U+87zUG1MVa94sJZASSAmkBFICCyMBdozyCmwKftoTnvCEde/bLACseC9lERzSww8Nf59vy1/0uze84Q29rPm2IJRyYcMhmAC+NDYbu7KLONInSPacL4FNtuOw8+f4cuxHz2o3fi2bFnO/xjPgCPzDtbQtttii+I7jAHvDnpMA1pgAlkkhDUMUmVPAKDfAUQcKeIQFxOHvA7IANq51vHpdtNe9ILiYTQbZ4GC8mMTYME6Rq50UwBXnQ9S/BliwgygMoJAToDgxfua4YGR1FQO22LG0ABNQczVSNIvSwgLaYG3V1+qX36s3NahWl79z5jhE0tYg867TyA1QBwQECPWlyrQnMqBQbZeo60KOgDHP8b6cMIyiukUNLP3W3/ZCslid4hVsCY6o08UUOOaE6v8gcJJTKT2TE6tvo75L3yJdTwCr3QdzlGIjQxEUKUCYaMbN3zihiksD6ygm8x1gZ75GjbVhRaeHKadZ/h2ACmRQpBrgOWoD1mKoAQPaTDRgBcbeTW9608LMGwZke6Y5Zu5L1aojMGRso8CYBOqOU4vI/ci+Tv8y591z1KbvXREh98AM1ScbXP2O5iudo9kcR3n/rv6QMb1DHyzyqXWKrEu1o68xOtV8iGZcgUX0rwMT6IPQqYPGgB4DrtPriq7TIWeeeWbZbxRX97N94c1vfnPRSeRjH7E3tBtAHwPM2lSU3dq0P7kfACsKtNtzrGVyN3ce9KAHNW9605uGMlRHnUuDPlenW651vkyjH3mPlEBKICWQEkgJpASmIwG+g5OVgTJ8iPXO3JgFgMXGl9kjyKixyZxELcivlITDctj+6gn3+T9seUAXPymYapEVhfkOhGJT8iPZ1O0yDvwyvmz7FHk+vuuVuGE/Rh1tzyB7NmnY9fquD1jx8Iy6ube+Ax/ZnbWfLDvKNd4XyKV/MrD4g77cn4+oj7AGn9EPwV6+tP6xQ6fVEsAaE8ACjJi0QB6OKmPfQHHcRK8Z5BwXgz9ooAxqgFfhrGJluYf6VRxshXWlBAJQMIPUUuEMRSQ/nNS24e9+5513XgGsdtttt5Iepi6UU+dM2q66Jpg3ihFbXF0Alnd1kl2wk0xytUwwwNSBAnL1McX0z+S2iOREA0IsJs1zpeA4gQtrSh9HcWSAYpDuYEBBkp144T6cLwuG8z9O42BaoMF0CAALA+spT3nK0BO5KB3Kg2O47ABWLTdzFbgpUvCd73yngKyYWYBSys/YYrsBdYCp5pD5gj0I5PBz39wYZ3ym+VlRim233bawZkY95peyFFkxtpg3wItg2VkPQGmsR2u2rfj7+m4Nma/AaGCgPlnf9AyGDX0A0LAu+hrZh3xtJliGgA79COBLzTbvPGqzvurr4zqgiPpxT33qUwu7s2YVAXDJRd/1O9KXBz3T3AKa1NEihwxIf1YzCSDc1gfWfGyWo77PLD73iU98oqTfkT02brsGIH0pSgf4B/qNAkLS2+RuHEPf0stqBDKUGAHAshe/+MUF4JNi3gWsk6doGSYXdpY5Rp+ZU2effXa5t6CI5vfHHntsSS80n+1DmKzrAUB/6UtfKn2xj4rOrcczZzEX8p4pgZRASiAlkBJICfyvBPgM7EF2El+WbbuebRYAlnvy9QUv2XQALbaYrB5lcNjNCBCCgWxltqHMLDYs/wGox5YXUAzbmQ/MPuNbuJ7vwBYCZPFxYQnRAEN8FtgBG5zPFQ0BQ21rZRoEgNnWTpkOHEHgkt3MZmVn3eEOdyi+HJ+8bux3GUTsTUHSGngESF588cXNy172shLg9D7wDvdUnsdnsclk7wje8gf5HeYBex6A5R2n1RLAGgPAAgxh6AAzgEDS4hj6JiJWholsEpuwjPJhzA7oJSqiCWbC+L9BBjK5N0cCjVANKgCUND6F8UwW6VwcmHDuOCztulIm8AUXXFAmj0XiGfe6172u5iRAV00ozicHGngDLW8zsDjYgC19Jgf3hjYDbPQXuNaFsHM2ObJd6TPuI1WF08/JAxSR6yDqo/d1r/p+lIoUGwg4NpBFS3H4PVCJgzyo6TeWgmtq1kkAWKiw5DHspEUy8TxshlUCsGrZGTNyoTi8KzDSHOOIAgw53sDXOO0SUk+JYcyFQjbHKD/K1Hgby3Yqpjlg3Hx5ns8F028U5Wctmcdt5RzX2lyl8D74wQ9uttlmm85bmms77bTTVWnBNg11ggCu1g3lDvwyb7yzeUw/UOh9xf29pw0u0qhsZEAaAKz1bC1Zr6Ic/m/dWut9xbQ9W/SGbMNosJEAQsxDwIRN0P8B2WRfrx0bIt2lP3VdIuOD2RP3dW/v752BYe4LZKqjM8YKCGIt+qLL2s2za5BCP23YNvx6bMwlAGgXa8l8oh8jdXqU+TCLzwAfAffmGGYpxlToY/PfBq5OnkLpdAjZkyEdah609QkdLIpmnDBJpXJrWH32HHNENNN3ACVjQDSwC/C3ZozTIYccUsYCkOW5jBLpwfYVkUJNxMycps+tMfWyrItpUr275K+PxlENL/PPfAIKWx/rHa2dxfzIe6YEUgIpgZRASmAjSsD+LsAmAAeEYeeOUkZhWrKaBYAVffNu7GY+ORsWsx1jCgbA12EbIrqwu2UGsdHYXWxzNrJAYm0H8x8QVfiwAqE+I5MI2MWPQcjge/Fr2JOeJbAdZAuBR76We0Zdbn0EdknhZO8JbPNz+QtxMFeXr40Ewu9hi3YBWALM/sYGFVh1EBjGmS/3FWAFciGU8P3hF2xR754A1rRm9/+/z69/85vmJz/9WZlj5Z/v17pW0/j+P9UIcwBMUMV1OQ6QxjpNDPKJIWWiQUAjwt3uMofBBAdcQW7j5CcOi0nAiTBx3v3udxcmA0fDpAr2B+PexMbUAjpx5HwuaI2eZ6JiX3FgOMmugbi2FYhUH8+yEJ1Ax2G0YII9ESmEGGCYASYip9c7crgsYmwbi6eruY+FBlhqN4vRpCY3TpPPAtlqZ7Z9DaeKcyU1JhqkW30vxesh11LDfE4/pSvGyYx9U4fCsNBrZ91n6xRCDqUIwiB2mIVKlpzMVQWw+mRoPkgFNY+AWua0FDjz1nfzBOilRU0t0QNzB9BrDgMsOK9+bwzJENPLunON9QS8BXYOc3ABapx2IFvdjKnNItLpIv3XBtBeGzYDc9dci3HXF+sWSGVTASxT5jYx601EBhDUBzj5vQ3EOtdiHbmnTQboY+O1bqke+sSzrUPsN+udzDRr3mdFVmpdQ970FAAcOCdawoAQCbGZ2mA196cbbHCYPWQbQGIAbXW0xH3JAvhnvYUeCPm6n2cYO6Bb10mfwLk4QMLn9R0IhEVm/Q06DMO70hXGAGDUp1+nv0V031GNKfIw9lhQZOvdjCljBXhlLRx11FFF/sYRS09wwzxn9MRBEvYE+wrQi9wYfnSuBvQCgEXqNRlhdnleX5CEDgVWGV+AGJ1kvBgVZOj3xsh89Uz3sgZcZ7+x1wzTd9OQM8AbWOt5jB5zwHwVaMmWEkgJpARSAimBlMBySkDpEYAL+4O/LCNjvdosASy2qyArH53vwn7hC7Dd+DkCjuxvjCgADx+Tba+mtGv8vt0QINhlMl3Y/cr58PMBT4LZbDU2HBubj8EP4KOwBwX+nvWsZ10VdOTD+xwyB8Y9u4+PIWgqy4jdyffuAhT5bLCALgBL4Nr92k2/ZOToCxuuyz8zD7DGppmNkwysMRhYhCVlzgQ0+JDleqAY4BxTDgenRp2YrgZQMTkMuklowFHz6rpZjHo0RU4LxkHUb3ItlgfnmfHPIeTsSudR10TDCOD8YItwmtD8IJ9ABafKmbQceROVw2XRoA1KNdEHDlYbwAIuQIc9AwAALOPQAoykxpANx42DXjuhFgpHrn0KF0eJwwYgsKA4UGQmjRAQ0m5+Z2Hru34AijRysLih195JTZgAsPQJy6YG9rrGw7sCD4OREJ8JAIu8OZsAwEENoAcMiPpcy1wDa5JNJtiAvpMhwAH4wnG2Rsgp5q95YD75jA2H40p5UsZ+Z2zI0ZwGnACy1P8xVweBHdhA0hsjVdV3bCYsQhECaxPN1ZjaiGwW1qTNKJgn1o553y467b3QorFWgCjWHpDCvUVcrKF2sza8P0AO61CEo27+rn8AQEwu391TFMa8t85tfgAQc5wMyQoADdyIWnBxT5sd0NWzXIvu7J7msjXp/+TNqLDZAVhsmpoNBiBT6zbyw5DUN8A5neWeId/6XQLz7wJ7MW7iOQFg2dh33XXXsq4HbW7Ws82cDgTezRvAMmZAVoYLoMo8BdQzRESmfGeAYOWid5vP9AO9R+/Ss8BaY8UA8ntzB4Ajpc66MDfJmdxcT4/ShdYP3WtsjYX71IwuNHcgo8+bA/4GJAN8AZPpceMjcEBHMrBESO05wDPAJ2PF+hgGFk+iK1xLjsBAMtBvjDz7VLRgY+qv+THuib+T9i+vTwmkBFICKYGUQEpgPAmwOYAWyhnI1hHkXa82KwCLz8KnZqew+9htACT2CVIG/4RfiwzCZ2Gn81HZXUgO7N3wr9l07uWeQC02JHuHfc4fZT/yn9lyfBF2Uc2Mdx1/xj0FItlqrmc/Apr44+xLfhN7MupmAcD4xV2nQXcBWGxvAFUcYNYeQ/ZblC5hD3cdYBalP2SoTYvdnwDWGABWsCU4D1HzJ5w0kwP4wvkAYHA0+6LjnHFOicnKIMf+aZ/yxzGM4ms11dD/FQuGZgIFOJpqLnGYOLqu4QgAlyDA/uZ30ls8g+NnYZn4KI7+BsCy8KRDcoSAZ0FNRBe0OETrXWtxcJ4hugACzi+wTA6vnyHPdWoP+XCe2sXfsVAAABwsC14/9QmQVheb9jxKAnAIcOD8WigWgeZaIB/H0ft7dgBY7hNF8QcpTWOAktlezAFgSaUCIg47PctiIsf73e9+G46BNeqmFMXhrRfKEAgbX5S93wOCMKhsdlL0yJ4jD+RUa0gaLaZeH+uv3RfPMccBz9bFXnvtVeY6ICaUrjQm8xijBmjUBoTa9zTWmH/6Bgzg7FuLAKGugtpAbc8AJAOR2gCWea8vMRdtcIA8a4dOwagiG8AesMnm47AIa9NG2gUy0FPWAhCCHK1PMgBsY3tZWzY370KWAR4BpDGc2qfeYWn5Pd1Fx2G3DUr37ZoT9EiwjmoGlrVnDQ+qgRSnlbrvIjCw9EMQwpw0v+hKUS9jQZ/QVeaq/9u86ROMM3rU3kBX2ujpa2NvUzc/BEGMm3d0b6AnYwZYRffHKYFxOiowFgBrTgG1PN88oRsZV+aRsRINZVwAPa0Bc0HQQF+sLc+NwAIQy1gBdc2dYbpv1PU/6HNRa6+eiz5v/dL/9AS9b69gzMU8msaz8x4pgZRASiAlkBJICUxPAmw8gVf2NtulPtF9ek/pvtMsACxBZgFJNj/QBnmEDe73/FOgEUAKGIX04DRAnwccCTwDs3zxewPwcj1yCZtMZgdbC9DVBrDYYYqz19kdfHHZYGRbA1jkzd6XrcRXAqCx+fk8nsvHHwfAgjUA0dieXY3tBqBjv/Mb+ux4tib7d1q2WwJYYwBYXQMXqVOcBU4IJ4XzYGL3pRHV97G4OcwGvH3KX/t5wBERchM5Uj7aLAfPN1kh3gCsSNeRDmLySW3hYAPR1K3igHG+LBgOkEi8xWkSUj4WpNQibAfOl+cBdDjRnH3Re845FpVaSFgFnKm+RqlY6NIRKQDMM7VXupBgsuV0yRfGXuFgqecSKVSe4R05fcBD7w14CACLw48p53mDmp5p//AAACAASURBVPsB1Nr9DgCLPLxzfcpY1/0scs8DhGy0FMJpbEbBbDKXOPZYTnGsrL+h4nKoOexYJW3GXPTBZ81J4IyoAWaJuWneWzcUPkAMsGPuWAeAAoCu6IO5DhQC+pqXgJ2u1EN9lJ6F1UKBY9e0C1VaL94BgGGOAquxBW0wmn4C1fSBLhA5kaYL3NZ/IAOGl77TJzY6z7ORRd9sBqEHgL3WJBla+xHpsGn6G/AKm0e6rYhYpKmF7AAXnknPRP0p6zA2QfoCoBCAhvfX70EnHNJtNm/yrvVVDWBJVQQ+DwKw6A7jBqBZFAAr5KZv5oAv76iPvtrvU9cqjHoFQCYBAPPD2Jrn9hD6C5BpTmDjAUtDfp6jNpYgAFajuUJ3B8NOqqk5Y7zNeYajOaxP5pqAB3o5gwY4BDyMextfgCxgzXsBT+nraUXNxtUV9CogUDDCPNMPa8o7YbbVjUFDNmQbX33j4N3qFp8ft3/5+ZRASiAlkBJICaQErimBONgMkMMvUh92PQ5rmTaAxXZjHwOZ+MfsfQFDBApBXe/JJhd4hwWED638B3+CD6tPsoiUN3E9mz5Kc/A9sNUEGdlgbQCL7d0ugO6Zsk0El9sAlnsoI8GWZFP6O6YY2XsG3xoO4HN1i6Lr7hk1sDwn2FdxAF0dvOaryaDgd8hMq1ny7ErvyW7z7Lp296TrJQGsCQAsjBFAEUMa0GNiQlOlo7WPmO8bKM6fGjCogpyUvnSNQLJNfEgop6QrKj4IwJKeYQJjdZiEcmIVeI68W6wuDi0HWxQ8HEyAGfDGIoAoA52AT0Csu9/97gUE4/BgCig+h3GgmbicKD+Hs8bx5HxzRlwHBOsDsETcKTtOO5lifbWLOkO+LTgOP9lbHAFgRdFtztqgBgDwTu2i0AFgUbpkUDt5XffTF0AmRz0BrLWpJug8pYllgYYbc9xcJFPz3ziYo1111TzVvALiiDgAarA1gLPmB4fXvMTWM+bmsPQ1G4vPAmD1AdiDjYi9Atgyh6TkubdmDdm4rBNzH4Bg/puHkVdOuZqDgAKbkU1Nv4Bv7uuZADTgqUiKCAwwG1CN3YXRA3gzn9CIsZ6wsbAezXNrD6XYGvbd70RWRH4AuQBd99PXNoAl+mJT7To5D1AN0LPWyF0fAIfAQA1LB3jnbwA5eqENBrRHHwBiM603tjqFEEhjox2UQkj2wB7g2iKkEK5thl/zKsEDOgzIR//TsYB6uhiLS4pgX/FTxouInzlm7mF1kTHQnc4FiDFUyMvP5iGGKODRHLAm7FVtg9IYWz9R7811g+r/TUsWXfdBs9dXBp41au/RP2uhrqlhvdEZjCnzn14nE3uItVLPPWxkqbfxTnGQB11Q09/NUYab734fxU9n+b5575RASiAlkBJICayKBOJ0ZXYG0oEg9KztiWkDWMaCvcW2QnqIshDsXxkj3gnzSuC4tmPZDsgjbGp2HltfCRTEkAgKstEE2tlbfAT+Nh+IrQYQ4vPzo9nxdSARAMUv4td3AVgIFfwWfg3/owawjAnQiU9ejwW5CZ7yI+LAqpiHfGL3Yjt5r7iOzwJfwCyrywX5DJvJvQadpL7WeZ4A1hoALINiIoqYyz9FnZPaYJA4HIznURdnMLAY5ACUQdf5DOAnGFjjAlgcUP1krJuIHO444l2UGzNF2ghAjmMOdZXOJXUFyCZSD2lm5FNEPhM5t+qyAMXidyakz3AeLCwLWhoLR8JnOescd448RkjUQaonMoDQAuQ4uIfUppCPRYGRwLEzHt6Fs94GsCiLYc61e3LWu1IIgRfkof/DGAjkZUGpg+TdJk274bgZL7RLoAUgYtWbucGh53hGkULvjA4LbALQoMUCCiOPvC0T8xAYbMPgoFurrq+jF+Y/EMu417XKyNycBo5xhK1JAJU+YaTEqX0AAxsNQM0cw6CRImizCEVNNwBn1Wyy+diggn6MIWNeAm0CJMDKwqoB9gBvrUWbnPeN2lzkA3wwvwBc+gMktqlKDfMz4AEIyPEWaXG6m+fVDCzziYPfridkg/Z7oBXZ2JgwdgD05GLDDACL3G3M1umw5l51jT+frxlY7v3/2rsXePvqOf/jK7dxCSmSYbq4DKJJk0yEbkKiNCVRKhSikMYlKqIRUpQKpRumi5gmw7h0kdAQosQUJYYJJTLu9//j+fX/Nuu32/vsc87e+5yzzn5/PY7T7+y9117rtdb6ru/n/X1/Pl9i2rAUQufMfbXUHFjDjn+m16srqx67axNj97v+bdizxOfr6rC1DpZ7QH+k36qrxtqO8+2HsFpfH7R927AfbYffKMc5ymcdYz0O17jjdU21+2R/r6v3uvbrTCGhlrDXnhwi+tUFEuyXbROs3fPtAZj7jUhb0ziJxRya/VLORzm+fDYEQiAEQiAEliOBWpqA60hMZVzaL+um37Ebq8xn9cJJCFj2z/jM+JgTy5ijrpRu7GU8Mmg85e/G0sbzxrDteMT4wxhDCRLjf2MXk9Li7mpa4W4iOLUzu4zPiVvGMr0CFl3CuF/MTnAyCU5g890m+ghYHF8mB42P2mVTjEXFE+LP3vI/Jt1lhfisSdd6vG1Bq55HMZhYxbiMYWDcLQLWHAUsJ4kVUP0ZqikRRYDowhRwDws2ek9gFbDcFNIiZgrgXJC+m/gzHweWYJOdsaYQcjTVFEI2RjeWgbkUIkGLDsDFx2miw+HoIEK5Udr2QR1MLQRP3KquDizcBFRfN3Z1bLhxKcz1x83gmIgE7VYLW2NCrGgH24IXds5a7Jf62ytgVXeb7cx0XrxOSCDUtZtzYra/BkN4CAj9m8uLyCGgaW8bC//mlhm1+PE0Clht/jon6XQcN9wXxFvn3TWpw57pXiG0aB6SOn6uJ9f0sBQ195haVu6BujhBbwBvX6SbErDc+7ZJ5CJemQ2phSqlnRK1iV3uba97cJjBIHJqvs8D0APL+eYMMUPl/a5t92q/a9d7CVLEOfeNbdcHYk3TVXCdoCyNjB2Y0Ga2yH5zeHFC9jqwCGHEoZpCSCRz/5oJcm3j6PqvLhUBv+MbJhI7Xx6mbf5tAYvbSMrmTCIxRlKgndteAaum79m+fsLvys3vufbL437QZnsLQ8B9UReGcE3oQzyj3Qfta8A17Bp3ndR+3nPAgLEtaLsfCeeeb65x79EfuHd60yrrMzHX2sKc63xLCIRACIRANwiYDDIh67nLSc/VP2xBlpp5UWNGv4d9ptKYlIBl+zKvxLr2x0RzHdfaX+OJOg713urAMl5nelESp19s6H1iAa+JXa1oaAwvM6rG0MYydZu+wxjHdquppRpKTIb7u/F9nYT3vcrpGGOLY7nGiFBEMEYVdb2HNd8n/hezc/fXFc0HfU42wUc/+tFSrkQcNu4WAWuOApZUImolIUhAJkDlKhrmzhl04lyoXCIuViLRTKIH1ddFUJdQn40DSxDuouOEIj65aAXFBvDcTZxPBueCcnVG6qpmAn+fI5RJC1RbhUOr3jzt47EtHVOtgdWvDlB9vwvOAF9gQA0mYrmpiVGC+XarbhI3mwC6ndrh2AUQOg+tn4DFqcINI3juTQ+s3+M7KdQcOxTqduenED91WgAj8Hd8bJiEAIIARjpiYoZOVXBD6SZAmPX33aPkek+7gCUQ1elKf3Ke6qqd7hP3TG8++KB7zD1DsOEgnKk4u+8j6hJLCVjEyX5tkIBlvwih8uLrQ47YxoFFkHKNcWR5WPTWU5NKS5xuC8PDAmGWZY6ufs4lD1GuKYy4LAlmhB/XMaeY65o9uF8KYS0eTix0n3pgmQUyi8JpVgUs+2o2BquZamBhgWtNb6tMe1MI3WfDUgjN4Lmve1MI3av6KP0CscIPoaH+9t/uVz/+1l6xb9wP1WyvewQGiU/uoyoUG4Crwebfnp2ec+171GDNJJFnqPoXw+7f7lHKHodACIRACITA/AjUeq9iKJOuYtlh7iqTqOJsY1VxrFhQXDusLYSARVwSI9dxq/GBSXdjbs4ouoD9MEYWE4ofBwlYmBgDiydlKxD4vN+EuMlw4pYmnuDWUhYFBzGmmIMBRRxqLEPAIhR6XakFmU7G/BxRnFcmgo2jRxGw1KSu8fegc2GC3fcpiREBa9gVO7/X//DHPzbX3/DjMt4s/6sT9n7/uRVRciAIGAWi8lOlFPWri1RTNfx20dXK/XWp8/Zuth1YtVbUoMMwgPZ+g+dhDixKK+FJwEop5vzQeQhEBbXEEalG8ngJOLZL5XUjCFLNQhMMuK+4LtQcEswK8nsbEUxKF7eSILWdguG9bjCDfczqoF4QUAUs6qxOrDcItoqaDkLASQio6rNt2k57SfWZBCwM1Njp13QEXuMuawtYzpu/C9YvvPDCkocsJcx/S+njamEh1dkQRuybtC+di3pdjg3zdo2WuV6e0y5g6fjVP1NbzIPBNcb55vpSVFwHOpum49SZW1ih7a7o/WxV892n8xGw9Auu1SqsVScI0VgNIa4NQq37Ti57u7nvHCshuK7+166/Q5ipM0+uSfvnIccx1Xu/1e0SrO2D/fGwsz0CK9GVaG1f3Zv6Ndv2sHUvE/k83Ah57knb8JoHb1vA8j36BNd9W3jrd05sywxPO6ivAhZrse23i5T320ZdBZaQ3StgecAT5oh0tZC3bfoxKaB/wdD5d3y+y8NX/6dGGhZe9+O9teBkRIjZ3GHL/z31+iZoub56Z4K9zgEsBViKISeXgbbJolEmMZY/2RxhCIRACITANBAwhjOxSpCqK2+bvG2bE3o5mLwWhxrjGaepCSsDyvi/jmH7sVsIAYsAR7CqaX3qx4q3OaLEtdXhLXYRFw4SsHBRHkVsb7LXcVk8x6QsYYpxxqSrMbTyIN57yimnlPGrcT7toDKsApayQOJWRooak9SyQCbSawphPweWcY66vsbD7UnltgOLO6ydQtjvHIi7pEWa/I6ANZk7fNYCFgHJRchhI73HDdTPzuhC49AxeK3ih4vKBW3Vp3aTFkWZpb7Oprkh3CAKIveriVSLuLvZuQ0EdG4aNxbnSG/j/CLEEV4Ez5RaaqkLXm0brizH7W/SJNUS6tcM6mtNlV4mAkLuFLnP/QSsQUXc3ZjcU25mzGdS3WcSsAT5lPt+zed8h+C8LWARSgT96hbZb0o1K6S/EyMIXIQAwh4BS8Dr82YViIf42ybRYr7uvGkUsIimrmGdZu/MDDVfUEgoxZWDaDbBoY7Tg2CY66ZaeN3b8xGwnHudenUgulZct2aQPGjkr3voEEKrS6tek/5NKOLOqqKna8yD3gPcQ4vjSvPAcV8SngYJWF7jbLQ9fZZZGMIY4VUdKQKy5n72mn0WdBN7PAgJx+0Hl/PiYdgWsPxNyiQRa1gjCgrwewcq+iQP91oc33bawl0/xxw3Fc5t95jP6y+IaXj5IYD70Y/58Zof7/NvfZZrTZ+kj9Ff208CNVGQa1NaOLGLG80gxTU5Wwv7MCZzfd25krZusFIXypjrNvL+yRCoqQ5qy5nddJ1xWXpGcGSlhUAIhEAIhMC0E/CsrHGxyWmlW4znjLH6TRiKK036GsdXF5KYSgaUEh6yC/rVnV5oActxyRAQz4tpa0kaY8xhAhaxSLwoTvFeZTn8t/q4RCsilrhT+Q8ZEUwlYkxxu99ENLERflXAwthne2MkE+Di+5lSCMUH4itjYXFEPS9tActYeZjTnHYgPmA4iIA1mTt/1gIWxZiQoe6LNmh23iy/C487i5hBUXVRudAMav03p4Mg08VNZBqWgtM+dIG4QND3+90O9G3XTS2wJWBxXLmhbJ8g0m7+5kLmjqhLtxOxBLSCNSlz0gaJWpxnLIiCvt6mU6EWE4O4UHrzYu2ndCxOh9raDqxeAavOdgvUdVL2bxQBi3DAKdWvCebx4c6pApYbzqyA1wgOVGbnnWvFua+r32GtMD5hwfuIdOobWTWsFg+338SJ+Tg5pk3Act6JQO4dMxjum15urk+iCVGGC3G2ApZr13U9U+FI55OD0IN0tgKW2m06dYWeiZ2DamC5/l1ftktM7k2z7SdgEbVd/xhYSKDeV7MRsFzDHnpEMd/rYcTWzIHlfiWEEOoMINiNuS+JZIJv4ggXSZt9PwGLCGQ1Ffd9b42heq85px5itsnp2c6z93eijIekB7gUSkKfB6OaYhxpBID2Knm+U5/qWPAYdF/VPkQf57/91tc6dudZn6t2WE0JwxoLP8SH6uLSt+pv9UHOYRWP7JNj0f96nfA3yRXqHAOx3HUvTZWwmba0CFS3Ijez+8x4wXUcAWtpnafsTQiEQAiEwOIR8Kw0eWkimhNIzFQdPUSR3lI6xm1iWRNE7XR/sbYSPmIFY2hZCXWCcZICFoFJah8HlvhVvGwsK27hwjaONpatsbkMIlk+4huGiN7js6iMWILjiWOJ48z2jJmVPxHTy1QgkIkzCVhiCc3fiVdcTnV1cGN64xDxQ68RQCaW+Js7alAKoTG9CW3xkgn42toClniBnjFTbEtEI7gxeUTAmsz9NmsBS+AjuOYAmSllhnPBhe1GdBEKuLyfECRYsx2OJhf6KM3FykopEK0XkUGzoJLKqkOQR9svaCeeuQkFbPZH4C2oFYhX4YDjgujGOabzGNR8l4uz1sAaJBa1Pz9IwBJ4u2F0Qm40N6xglcDWTiHs3ZeZHFh1Na9++6+TE8wKlAX6Ve3XmVThTvCq8yFSEbaqgFW35/M6E52PIJNSTkAk5lHVOddmI7T07t+0CViOXw44sdTDAe92nStijA7ZdSo9VhA/G2HQtekBIeVzppUhiTTO2WxTCNV/UtvqiiuuKH2Ca5XbkatRI3hKIzVLIl3NteC60Kn3BrW9Apb+wucIS1YCERBzCGnDBCyfdb8Q49SJ4/p0DdoWEa/WrXJfE+uqgIU955X7tz4M6zXZT8DibnI+9HceZv1qkhGCBPF+exhjWxs3GBHS7JH73vn0cNf/SLX0OSyJ4wYDjstgh83avz0U8R+12a7+UD9GSCOSYezHefVDzNaXE73M/uGmP9KfE+YJWvZJmrRB1LibfSRi6tPbYvu4vyfbGw8B1xIh1PU+U1238XxbthICIRACIRAC3SJgAtEkv7G+Z6bSKzKbiFLirPaKe+JlmTT9spWMuSwCZNJW/Ou5K5arRgQx5bBaW3Mhp94lN9RGG21UxCXfZWxtPCtuFHOoky0WNH53bHQA42Vj/V4XvzGu+IHbSYqk+JMxwljdOJgrizlCWRsTmAQs3GxbNpbv8jdxRXVgiUvVhjW53G7G3eInnyFg4SlToz02J245BizFCbW1BSwTuj4zUwxGX5A5YzwfAWsuV9js3ztrAWv2m5z5nZwH7IXcPMNqx8y0Jak0AmRBZ72IuAzUgnEzC1wHpbsQAwS4LtzqUhAMyk+2XduR8iOIEwwPKmht/2pBeAKWAL3XXdLvGASD9pGCK1iuIpttyNnVqiut1vyaqX6RHOGqGBPmBJkK1gmAqfy+q18jpFVHg9+awJzYoCPi+NEwEOAT+3rFKOfQ33QG1HGCGfGJmCjNKSmEs79zCIE4akQbHb5rGE+dvB8dsgeezlyQyJ7KrSMV1DXb2zwM2HFncx5c9wRhwu2gAoW1iDtR10PFQ4obyMyJmZV6fdiW5mEgHc39Jn2QCNObAuZedU/anvQ1gpEHl4dazZ2vK5t4KHgwE10Iz70LFBBgPFQJYO4FqYy1gKTCkgYBrlGsPeQ8pKq45fs8ND0M60qJjmEmAcs1Tlzpd3+6X9xDBKC2gOXelgrt4SY11+CEOOMe8+NBSTQ2c+V6cD/q1xy3PqtatD3wZ1vMf/ZX4f+9035W95ZrEFv1twwC9Dn2s67A6DolkOqPnWvXRa2nNao7Sx9jwELgcy7jwJrP2Zz/Z5x7z1j3d7XpO++zOa/OnetEGzSI9rr31e3Pf0//8knbc93WmV590ajbtn+1T5tpufBR9z2fD4EQCIEQmA4CnqM15jIWNK416WMy0Gp3fhuveuYYI4rF+mUs1drTVhE3jvXbGN2k47gErOrmt8+ehX6b9BRjGoszOxgLy8ZQR7aW1SEsGb8SpRxb+/mp3IU42LaM19W3Mkkpc0gmBIcVUU9sLQYw9vMe40FCn0WXjN9N0JtIrgKWuIMY1hv3EKzE7FIIiV/KGDFetOMI8ZXxtzjImNu++XFuTBw7PnG7GGwmAUu84ziIe7KSNGOmcZXhyCqEc1yFcBxdiovaDduu+zKf7bqY3TC9AZwLeJgzxcVI4JECZ3+kwxCOOAtqE6xJ66GKzxQkGty7eTkViE1cCcMaEY/4xrUgkK2z1G4QLjD75BjkNhOSZhLQfJegnuAhiFZ/DBsdl5o9RI1e11TdP+dBkMx1UoUzr+GDY735nStBNkGvV3S0n9x2OsxetXsYh5len0YHlmtIx6mDJowQHs2uKEhoxsB5Iehwy7k2CJA6WNcyocM11XvtS9nTSc+2cdYQzgalG9qPKg7bN/tL/HV99D5YXT8eEq4ZD1O2Xu9bc801V9gddehc+2Yp7L+cf+KMa8DDuIqyHoDuLzw4srineveTwEIgNztEjDLb4qFaF2vwsCWEGBxYxKAtYNk/4pfvIcjVGlQzCViu+V7HVj04n3O+CI1VwMKCqFatz2Z4PITbApb714PdjJaHvwe5+1P/wnVq/4mWZnYIlwvdHIM+51vf+lbZDwKdc+LHrKL+Tf0s1nh9j/3323nvV7tw2P77PoIjlgYpLOZp4yfg/uXmNTAycCY4Ye+aM9uIv76eC5ST0rXnHM/ksCVMm60lKhnMtWeVHYHtu09dM9yH7VT7+RyhdAsDT/voPvH9ZmIJq9Lh5zsTbTv2U3+jj5gpHXs++53PhEAIhEAITCcBk50yJTxXPYONpcQDxsXGun6YAozlh5Xc8Yw2rhW/mlQcl4AlU0BsIm5US1WWkPIk4hLGDeN3k8SelY7FM1iGhvcYK9aFy8SkJjiJYOJdk9UMFCZvjXGlDZrMtv/SJmUIOXbOr1qewJhe3GocKjXRGMQ4vApY4hTxda+AZd/tL7OIyVBCmNi1xv7GKWIU3M4///wSbzC2mDj2mhiB+CVGGrYKobGx8ymOEyPZF9lpvbXA53vFR8BaBAFrvidr3J+r7gLbdfH3G4TXWeZh3y3QrmrzbNLl3GQuPkps78xwu1aXbfXmC/fbl1rjy/urGOZvOr9an6bf5+yH76srlg07zkGOuWGC4bDt9nt9GgUs58wDimgjBa863pxDgpbgnTOoFnw0m0C48qDQ8RNrnAsPP06pOnMw7IHX5l+dTv4mmOSuqjMGridCFIeSgFZAp9i/oLS6E+q26iyN1whQhFULERBr2isNeiiYESEYE+K4xTxcbM/Mhc7fb8IUQYiYTGRTyJ0IVJfS9b0+I/XXQ4lLSXBtdka6sbRlwhZhyLY8QD2ozKJ4oPoOD15Ckv31ADXDo80kYGHtQdbvvsedy0qKndk1zIhZXHGcaPLjObQ8pAl9/tvsU73n6/k368bdKEWTiKDGgPNNPLOdmVaxmc+9N5fPOEbnECPn0YCCO4vDlguOMOEacOwGCmaiiIsGCLPpK+2L7yBgObcESKJp2vgJOH/cc86hAaIJIoNW/YABsZlJwg3Xp3Rj954+wIBs0Ll0XUjlNRvpHiAitZvv9DfCput80GTLbI/WjLDrhGilH6i1/QiqZoFrsdfZbq++z4Dd6qmuY9ttpxzMdVt5fwiEQAiEQAi0CdR4zDPRuIlo44f4Q9TxY2xVXe+D6JmkIRYZ6xp7jUvAsk/G+8a8xqhcSyaRpQUaAzOC1LFrLU1hTF1dYCaq/dvz0zPf2KDWnjX5rlyOf4thjfPEG57nxDvjc2N6n5dZ5L/FAcaGns3GHybUfa/YgFClHEvvRJOJZJPTmBDWTK71lkViGDFOdWxiY+KVfca96gazdZ/7TNUXsDH5xZQyjhYBa4oFrHFcQNnG5AhMo4DVFn8IHx4URBnBl9S62c76cy9JN/QAGKXpbM2QtJehZZ/l6iKmzFTEUMCqvpPzaCZFIMn1ZJalCmLcR7ZVZ5a4J4gxrL/EJrXAdPoeSsQ6whLxycPHQ4ujR507goaHnoc7gc+DVQBLaDOzIzAmnhCMbJu7xEwOBxY3FNGK+OdhxU7ssyzJHqgzCVgeRGZZ5iJgGYwQCTzU5PbXGR4FMOsxtS3G+HnAGhxwVDo+Dy4PYY04MBuRe5TrYL6fJYSYgSJmESc5tVwHzoFzazBksEC8mEnMMmiQtiiV0jXkd9r/ETBIcg9xvxm0cuK6NwhMc7k2zKi6p9WW4Co2+CU6qa3BhcUR6FwRYYnsBp3On4Fi28Frz/RbNT3f4I9rjlhsEFtTCPw2Q+ua9p1e66312BbUbbedytfvGjD41x8QhV0zXGJEcQNjM7KEaWUC3GMG5NyeNcWxvT3cBAE+o7k3DdRNJGAzU03KXJshEAIhEAIhMA4C9ZlnYobrvp+AZeLaGJgrybidE8pEqTHXuAQs+2HM7LkuJjHOmIt5wWSYz5sYrmNc2zR2MalNePP8tv3eFbiJYErvGDN4JnuGD2q+AyOT1P0cWJ7lHFGznUAdxzmcxDYiYEXAmsR1lW2OgcA0C1ij4iMYma0ZNlMz7Hs8ADwQ2w8BdaM8iLiKZqqrJQfdLImAmttG8MdiXN1XvlswKWglWgkI1caSMud7ucx6t+/BZgaGCMTJZVEJNa2kCnkgEv0E2VwWUnOlCJs9IRiZnSGQeR+LNiGO64swRMASgHsY1xX47FN9wPkbQZCwJbdfYG9myOe8j9g1qIg7AdD3CPI5WpwTD2MPam4T32FbxDYiT6+TDSeiAZcLAaDW2rJPs3VODjvPk3zdOTPTVi3gBEMOMmKL68JMnPQugxqDokFLSRMhCROcaFxoaX8hoJ8kuhKL3ReuCwNBQouZyJr+N4yXgaTUO4yt2klodu7Y+4nVBF4iVBXEiD8EWDOj7ltCa/uLdgAAIABJREFUUBXYCUIEVpZ/Teo5odp+uS/dK/oB++Ye5s7k8iI29RZ9r669ei8SstWhGNQcv4Kx+gL3C3HZPeVvjsesKmEaG/tFnHMv+pz+wb3mx35wmdU6kBGwhl1BeT0EQiAEQmASBGRZGOuazOxtnPgmW7iGuJNqcfFJFXGfxPFlm3MnEAErAtbcr5p8YkEIRMCaP2bB6CgLJNRvJibMZYalvceCRmITwUbQK2jtFaQIGzXFjBDk9dnOinCXCSrN1NTVFR2zINR2BKBVPOl1+Pgsi7F99L0GADN9b50lIt6Z/cHEtgXAPkcE6/f5WivK9xEUZireWIul9ztv1YUyWzbzv3Im+8lqKzeTRuDk7iFmudeJCtJTiQ7OR/u6w4ZjjoBCeCQcpv3FjcSRqHYUVxTxl+BTLfuub0VPuRCHFfs3GCIkEXoIWYRF96+6VYRmohHRp30NctMRoAm0LP/EVfea6905UjvCfeb8Em8JWLVPkRbgs0QwTi4Cs886JqK3+9h76gILte8gzltown1rFra3f6qfJ0oRwWt6bU2jtv+cf1yq+iUpuPbPvprdlpb8lKc8pRwnIY5grdkfIqq+RiDRXtGVoM0J2lvbL9doCIRACIRACIxCwLPHM56TuD0+9Awy8WeShXBlErg+n427I2CNQn3pfzYCVgSspX+VTukeRsCa0hOfw54aAoQORTG5ddR840RTa0mKIAGlun2ID+ovEWI4gepKnVMDasCBcrWZdeVq42ySIisl1YCXMGSxB05JKW/ErZmaVAODYNtUO47gRcDhViQoWdigvchJ3VZd8MO5UiNKmoOBte3YD4VSiU4KrLaLnhJziUxSZ7nxiGQG4EQ36YnETSmA9oVAXIUq25JuaHDueugtCm+f1eWStsitx2HVK/xyivmutqBcFwnguuLwc80JGAQOWq1PYj+qEOdvvo9wJ2XaLHhaCIRACIRACIyDgGeMZ6E6rSZ8a6qgOqImnEwq9auBGgFrHPSX9jYiYEXAWtpX6BTvXQSsKT75OfSpIkDosLILh4s6ZwZfHC3EDallBnFWSyVYcM5IPUtrinuIY8jAVhohAak24hAnkdWAOJzUxZipSbfl1uKqqoINV5dUPIKUNMGZHIAG1upn2UZNc7WdPffcs5xbIprVKGsj/BDcCEbEN0XjbcPfubc4y4hV7ZRjn/U3LrN2Ta72cRGeCFdWLuIaU0uPUKVWHVGN06/fSpi9Alatu0dg1ThFpSpzWdVVYA0g1fGzT/a3t0B9rtEQCIEQCIEQmC8Bk0eeqcY/HMfcxzvvvHOZ6JMqOOiZHAFrvsS787kIWBGwunO1TtmeRsCashOew51qAgQDKZpSCq0Mox6YdEIpbGqFGcCpNaYWmcL1097wsqKOWVjOKDWouK1qI+R4DTeONrXYZkoH1t9Kya0pCj5PUCQEERMNooelsHJt9abjckqp36GWlsUVNG4tQhWBksOLqKTQLKGMmOkzBCd1/HrTbqsDyzVgVcG2A8t7pRqqB1YXZrDf/u77iXxcXf3caL0CVu/1xaEmfZhISIxznERCQhrxyo96gWkhEAIhEAIhMA4CxkOe31LsubAseNJeeXvQd0TAGgf9pb2NCFgRsJb2FTrFexcBa4pPfg59agkQUGrRe6lgHFhSuQzkiFnSy7h6pr3hZHVHziopcQQsix/URiDizvrgBz9YfhNu5lLPjpCkJpnUPi4ss739mm0SpAYt6MCVJcWR0EQAI4wRfyzqIG1UOp60QWLc5ptvXurKKervWAhFvY2AZRVLNeWsgNgW1SzEwH2FizpXBv6EK43whJnFH3pdXV4fJmBZLdHqpVZ3kp7omAmuBCzb9POIRzxi2i/LHH8IhEAIhMAYCHheqRMphZ7jyjN0ts/wCFhjOAFLfBMRsCJgLfFLdHp3LwLW9J77HHkIKCD+zne+s6SZcehUFxYnEUdQWtMQVczKKorPjbTbbruV9D0DG44m4paC7lIJrcY5zEFVmRo4K15OBFKXTNrCoMZ19apXvaqs7tfbbMe5U8j98Y9/fKmrZb/8Wy0zqxSq2XXwwQeX9FCpeVIeiUQK9nPcDRKwDOqJm46prkwqFZG4ZJVUbi/1QbixLrroosKCI42jrF8QMEzAUocER/tlpVMNGymKCt9bZXEmTrleQyAEQiAEQmAuBEwkDVuApd/2ImDNhXI33xsBKwJWN6/cKdjrCFhTcJJziCEwAwEOFylwXDVWlZSypeaQ1LO0ptS+IsgceuihxZH0mMc8phQ9J2hZVe+qq64qmIhc3Eyznb0lCHEWEYOIUNIWnvCEJ6yAnJOK6+sb3/hGc8IJJzQ77LDDLU6JwTcBi9BEjOR8IlJxSFmF0oyy77KS0gMf+MDmPe95T3P00UeXeljOe+93+gL1tNSa2mWXXcq2XBfSEBWP57LyOU2RWy4p38u5RyyzWMBWW23V99IZJmD5LuIpQYwQpqmLJZVR3TbHpLh8WgiEQAiEQAgsJoEIWItJf2G+OwJWBKyFudLyLX0JCMBYZBUIln4htaQGWYMELAGVwOHLX/5yc/XVV5f0GCk0aSEQAt0mIE1QypqV9dQpIkB4SHO5EFOkqR1//PHFaVSbVLnvfve7xQWj/3ja0552i7pJ3aYy897rC4k30vEIfPpHriR1sVZfffUi3BBZFHKfjYDl8xdeeGGz/fbbl3Q/A2HpfB/60IeaddZZp2zDe4hjHElWQFIrS3pdb9M/E5UIVIQkNa6s8FcLtDtfmkLuXt9vv/3K+b3Pfe5TtllrZrW3a7U/38ud5XMELDW2iHQEr3qcXrPyoYK3trXlllvenI7Rj2g/ActxOl6FdLnCPve5z5XrjFCoKXJPzOIq8/dhKz0u5+swxxYCIRACIbA0CETAmv958Nw39lHawPjKRCq3tdIWYlaxqX9///vfLwvDGHeZrPM54yHxqJILJhX9tzGKv6+22mrl33e9613Lb+NbY7XZjMv6HU0ErAhY87/K88mxEBAsCWoUIBaEmCEXfP3ud78rM9pSTM4+++wyWy+QECgoxiswsyKZtJHZpsaMZYezkRAIgYkQMCjYf//9S82kzTbbrLhsFMYmUKjHdN111xWXzq677lqKgBNICA/Su6wsd+qpp5ZC29PWCCmcSd/85jfLgIpwxfmk/hVBSLoeB9FsmkLuBDGC1Qtf+MLikFI/S92xAw88sNTjkJb46le/uvTDfjtn/dIc9NXS+EwySAU1YHvRi15U3EpWPawTD75zu+22K7W29PEcU9IS+60W6Pxzh+n7CV62Kd2R6Ol71LwyIHQNcYUZbCri7jqR5jjoWVEFrNe85jXlWpPK6JmjhpeVCG3fd6l1pYiuZr9xseDA+eef3zzkIQ+ZDeK8JwRCIARCIAQmRiAC1uzREquIQcY1V155ZWPBFmUIjDeNSa6//vqyOrOYtIpbdXLLZ9XxNP7x3wQuwlet92ks4se/vY+QRdxSv5PA5UeMy8Th794z23g2AlYErNlf5XnnRAi44c1iC4YELAQss+aK/EpdcXNL/RAkSC0577zziuK97bbbFldGexWqiexgNhoCIbAgBAwAiC5WkCPKuPfVYXKv6wPOOeec5vDDDy+OHu+Twvatb32rDCqINFXQWJCdXQJfQuwhXOH2yEc+sghC/tuAifBEsMHnve99b98aVb2HYOB1yimnFPFI2h8Ry2CKkHXxxReX1QEJNhxN3ledVc5Tb7MfJ554YjmXUkCtBuhve++9d0m5k3pYRS+DbedPHa9akJ4jt3dm0vvUoOLWqk48++eZQNTkynINaNIorWIpvZCDT/F/zxcDUYNEP5pj9jxxTMQ4KZicfsRRbj4rYhJG1egyWXLUUUfdvN8GueqxKSxvIqZdRH8JXB7ZhRAIgRAIgSkkEAFr5pPuuW+MaZxgDGXCyqQaN7/JUXFldU15rpsY5aDyN2MHrirv8d9+VwGLqOTHxFn9IXwZY6j9aZLR2MJ3V1HM57nbudhN2KqlaZKMU2vQ4jiOLgJWBKwp7NqW1iELPgWiZtUFBJpUEytN6VAUJXZzCxJqigyHgeBIgJIWAiGwfAgYQBAjpBNqRAy1kzzk9Q/rrrtusXSzbxukaeonWcXOrNY0Nf0jl5oZQmI+t5BGKOJaNRHAxUr453DVDKoMqAyMelc1IvZwLdke0YZ4iD/W+mdCkbQ/gy8DLe/RN/drLPWcVIQm7ibij4Hhc5/73JKKZyDH0aQR4rinOLbskzpYXFD19bp9dn4CGrfTWWedVSY5HKu6V4ccckipj0ZkMzgl2nGGOV77gJPrxcqWjp+QZsVD3yUd0syrASYujlHKoFTVhz70oeU355X6V/azCmtmbNVj81lphP1SHqfpesyxhkAIhEAILD6BCFgrnoPqnDIu+fa3v13GR8Yb1157bUkT5NLmgNpkk00aqxlzRHGbiz/9zGUFyEFn3z4wbIhjZRtwy5vIM3Yw3uXo1ow/iGZWnlTKgZhFMLOP7RYBKwLW4vc02YMSmJrl16kMa4IHwdBxxx03cGn3YdvI6yEQAkuTgIEXt5X+gBAxrJkB497hkJlvLYFh37FUXzfgIQjVulAvfelLS58o5U0qnYGalDiuJQMwYo5UPm5XYpeUQIMlAytWee/jjrJNbiifcT4IWGpL+SFCGUgRhKQDEg/NSvayZ8O38p8BmpRBQpABl88R3ohGvpdDjOOLKGXm0d9XWWWV4rRT06o9aCOw7b777qUWhfpWZ555Ztk330HkdFws+YQ123RsBqxcVdIgvcezAzf/9hqhiutL3S0pgJxf0lfvcY97FPcZtgQs21CfzTZqw4zYSvDjUDPgTQuBEAiBEAiBxSQQAesv9I0hTVRddtllpRSFsYgxh4mve93rXmXS07N98803L2MUYpWJs4UaS9ZaWxzzxm2c3JdffnlxaVVBy7jEeM3YxL4am5hoi4AVAWsx+5h89/8noLM1o242W5A1U5MGUmfCZ7JXBm4IhEA3CbBWm3ni+CFyDGoGGWbLpH/1S2Pr5tHPfq8NfszecROZSSResZ2bEMBQXSmrFFY2Zv+k8knBI+RYQEO9QYMlYhYnrLRD4hFnlRoQhCWCkAEgocesoPqDV1xxRam1tc0225Q6VwZWnLO1yDvhh1vKjCYHlhlEwpPv9R7b5cR661vfWmZCne+DDz64WPmJbuz6/m1/2PNdB1JICZuKqEsJtF/EK98r9ZzbjPgpvZGwKXXRaof+LZWRY5eAZl+9z+ekphOeHIvjI9rV+hVf+tKXSoogZxZWeLab69MxEsrMoBLy0kIgBEIgBEJgMQlMu4Blos3klnGIBW5MmhlDcEkrfWCswM3P3WQcYLywUKLVoOvC/ol/ObS4u42xiFomx6Q62j+TfEpqGO8Yr1isRl1QGUrTloFQBMo//rG5/oYfFzblf/+/5ljj959nih4W8+7Mdy87AgIuKSsXXXTRjMem1ot0ofZM+LKDkQMKgSknYNBB0JauNqgRNg499NAiTvSmm00LvupiIkoRhAzaDMykukkhbBdXNxtJOCLMcE7pbzXOLWIQ27pUREKYf0vD44jSCEkEIeIPIUoKNxHJYIvoY1Co1hSBy/eoH/WpT32qrDioryaGScMjBHE0bbjhhmXwZVsbb7zxzemIPnvEEUcU4c2xSQNU18pxEK+IlWeccUYRk2pagMGqQv5SFgl5BqX2n9AlVZHLihuNKGY2VkH717/+9TPWl/B+qzdypNlf+8QNZvVbwiH7v5RF/7Z/isr3Wvyn5RrMcYZACIRACCwdAlXAInyY5DKBtNxbHQ8YMxJ1jAE8x00sGS9YnMa4p05SdYGHsYbYmECl/IHJPuMdE4wmD43lTMIR6CJgRcDqwjW9bPfRylFqmAgO+jXuAp0SBXqx1fJlexJyYCGwBAgQYqSycbl4iPdrBiPqO1lxb9r7A4MalnICUC0wOpvVbHxOYXLi10EHHVQKiRKJOLU4i8xUErqe8pSnFAGocvY9aj8ppq/flt7H4k5Isx9qWCl8qsaUdETpfmYXucEIV8QxbisrzxKAOMFqUx+Ca6tui+NWzS2zjmuuuWbZv1qE3WfMVkpnNFu55ZZbFqGLQGZfXTuOjSDGOSbFkIhGiBvUDISlGEpDdAz4eL9jdFyeT7ZLNN1oo42KuKXofVoIhEAIhEAILDYBzycr53LvEHM8xz3Pl2PWipqWXNLc2LU+pvIARB4OcBNY0gP7rZS82OdpLt9PyCJYWVzHeVUv1ljJOMfYJgJWBKy5XE9575gJuEGlw3AB1ALN7a9QYFjg0/WOaMzYsrkQWHYEqrAijUzqW79GcJFuNg2zi5M8wQZ/BnzEJYMhghAHHCcXkVB63SCBkFjF1UTMUj+C0KRJOZTubRtmQTmjCGrqThhYqkNhppT4aGKitxG71IIwSCNcsfkTvAzC7VO7EdOIV9xghCaOr7Z4R5AyE60ul9d8fphbCgMOMgN/BV1tz7FKFVT01b+Jborjq5+VFgIhEAIhEAJLhYC6oOpWciR7znIhcUYvp5XbTXSaHDPRaYKJo3vTTTctpQI8uz2bxYvLZYLTWMY4x1iG+1s8zGEn3dBk27S1pBBO2xlfwsfr5lSIV0qQoKrdBFFmEjgB0kIgBJY/AeKF+509urd5WBuwDBMilj+lHGEIhEAIhEAIhEAI/B8BqzVz65xwwgllwsi/TbhwPD/ucY8rk0njWF1vIZlzlil4bkLKoirS+LmQTEyZPHNsSgcsF8FqGFsTfYQsYt1yEiaHHXd9PQLWbEnlfQtCwGy+labk+tamMzJ7YOVBnW5aCITA8idgsGKA8spXvnIFFxanj7S0F7zgBVMzUFn+ZztHGAIhEAIhEAIhMC4CtV6jFDNOHa5iE39S6Qk+j3rUo4r48eAHP3hJ1xElvnFkW0nQcXBcc0KriWzVYKKVFDoO7WkRr8Z1jXR5OxGwunz2luG+c2FJX5G/La1FU2tEHRTFdJdjDvcyPI05pBAYCwEWcavcSR/TDE7UHVIHSdHxtBAIgRAIgRAIgRAIgf4ExFXKMqjfaGU+C2EpDC4tnpilfqW6kRtssEFJ8Zeyv1jFzoluYr+f/vSnZREWDiO1n4hXRCu1OAlX3PmEK6LVtC7iM+3XewSsab8CluDxs4gqlmtZd52Z/G3F+bLy4BI8WdmlEJggAff/kUce2Rx44IGlCLji3epeKbDdLuQ9wV3IpkMgBEIgBEIgBEKg8wSIWRxNip5fcsklZaVgRcGNr4hD97vf/UotSavccWhZxU/NRz/jdjfZl7p6oLHe9ddfX1xin/jEJ8r+KSOh5pP94rSyoAyRjdtqGlPmOn/xjfkAImCNGWg2NzoBHRrxyipkOjV53JtvvvnoG84WQiAEOkfAIMYCDmbgFAU/66yziuU9LQRCIARCIARCIARCYG4EqnhkFT/CkbItjAIWXfnhD3/YWFRLjdG11167jLsIR4qi3+UudymiFgHJJCL3k98W0/HbZ4hdYjeuL9uvv4lk/pvDilFB/SouK4u+XHXVVTev8GthF84w37v11ls3G2+8cbPKKquU7Y9bRJsbtbx7KRGIgDXBs1GXf9dRpM2NgI7tec97XumsTjrppKw8ODd8N78bv/aKXPPcTD42IoE6WEhfMHeQBkBvf/vbmze96U3NK17ximb//fePZXzuGMsnJjGLOs9dycdCIARCIARCIASWAAErv3NmWcmPiEVYstqdguncUFbm1QhXxCqrDFfRiqAl7dBvf1PqxerAhCpCmFRFgpXfxnP+RszyQwCTtrj++us3a6yxRlk10cq/a665ZnFe2W5EqyVwgSzBXYiANeaTIkCVu3vBBReUVRK+8IUvlE4hgevcQevsiICWQU2bGwGBqpkSee3cK1YdMYMRMWtuHEd9t4f4NddcU+q6qTvgv13X6Q/mRrYOegxmUu9gbuy824DSwHDLLbcs/YHBooFmBoZzZ5lPhEAIhEAIhMA0EKiOqZ/85CfN1VdfXcQsP1deeWXjb0Qq7yFGVYHK+NaYo7qzOKcIXn6sKE+gUhpGquI973nPUseqpipOA9Mc43gIRMAaD8cSkLJhSnc79dRTS6Aq2EqBuTEBzmbmTIB4QkyVQ77WWms1e+yxR7PjjjtmJcc5k5z7B8xmecAff/zxRbwiYt/97ncvfUJExLnzzCdGI+D59Otf/7r58Y9/XJ5Vj33sY8sqjn4vFUGwiroR1UY71/l0CIRACIRACEyCgOd0Fav8NrlovCveqOmCjAdVwPLbT003NN6o7q1J7F+2OT0EImCN6VwTCg455JCyOhaFec899yzLlPrvpRIgjOlQs5mOEDArcsMNN5RCje95z3tKXvuuu+7avPnNb04BxAmeQw/ziy66qBQbN1O1xRZbNE9/+tObBzzgAcUVp0ZAWggsJAGDTrZ9KQEKpH7gAx9o7nznOzcHHHBA88xnPrO4sRa7uVeuuOKK5tGPfnSpf5EWAiEQAiEQAiEQAiEQAr0EImCN4ZogFLzxjW9sjjjiiLK853HHHdfc9773TXrGGNhmE6MTELzKX997772b8847r9lrr72KiGUWJG38BLgv1W+TPvzyl7+82W+//YpwlRYCS4EAgVV6u3pi7P8nn3xy88QnPnFRnYFmbt0rhPbTTjut2XbbbfP8XAoXS/YhBEIgBEIgBEIgBJYYgQhYI54QVslzzjmnOK4e/vCHN0cddVTJ700LgaVGwCofL33pS5vPfvazzbvf/e5mp512KtbetPERIA686lWvKqLAS17ykvIT8Wp8fLOl8RBQq4KI9eIXv7g8t/QH0owXq/3oRz8qq84SfdWK415OC4EQCIEQCIEQCIEQCIFeAhGwRrwmDLyf/exnN1/84hebE088sdlmm22SIjQi03x8MgSIK+ox7bLLLsXhcMwxx5RVPtLGR+ArX/lK6QM22WST5l3velf4jg9ttjRmAtU5rB84/PDDS428xWr/9V//Vfol+/Txj3+8FJxPC4EQCIEQCIEQCIEQCIEIWGO8BqRmcbPstttuzdprr92cddZZpVBzWggsVQIKOW+22WbNz372s+bMM88sq5GljYeA4FtqplTit7zlLc1znvOciNnjQZutTIiAmlPbb79984hHPKI56aSTFqUWlufoueeeWxxYUvAtgpL05gmd8Gw2BEIgBEIgBEIgBDpOIA6sEU6g9EGi1T777FPqCr3uda8rKy2khcBSJsAZ9MpXvrIsOMCJlTYeAr/4xS+KmP2lL32ppBAq3p4V1cbDNluZDIEbb7yxLDBgOWz18VZdddXJfNEMWyVgXXDBBc1hhx1W7h8LTWSlzgU/DfnCEAiBEAiBEAiBEOgEgQhYI5wmAtYpp5xSijQr4v7CF74wAesIPPPRhSFAYFFjxrX7rGc9a2G+dAq+5aabbmqe/OQnN9KKTz/99FJbKC0EljIBRdz1AfoEq5Xe8573XJTdtRy3hSY4mFMzblFOQb40BEIgBEIgBEIgBDpBIALWCKdJTSFpF/vvv39z5JFHlkLuaSGw1AmoN7PuuusWl9Bi1r1Z6pzmun8//elPm6233rq4WaRnbrDBBnPdRN4fAgtKQErx7rvv3lx88cVFxFpjjTUW9PvzZSEQAiEQAiEQAiEQAiEwFwIRsOZCq+e9EbBGgJePLhqBCFiTQR8BazJcs9XJEYiANTm22XIIhEAIhEAIhEAIhMD4CUTAGoFpBKwR4OWji0YgAtZk0EfAmgzXbHVyBCJgTY5tthwCIRACIRACIRACITB+AhGwRmAaAWsEePnoohGIgDUZ9BGwJsM1W50cgcUUsH73u981H/vYxxp1uCwmcac73WlyB5oth0AIhEAIhEAIhEAILAsCEbBGOI0RsEaAl48uGoEIWJNBHwFrMlyz1ckRWEwB64orrmie+9znNu6b//iP/2juf//7T+5As+UQCIEQCIEQCIEQCIFlQSAC1ginMQLWCPDy0UUjEAFrMugjYE2Ga7Y6OQKLJWD9/Oc/bw488MDmX/7lX5rXve51zfOf//zmtre97eQONFsOgRAIgRAIgRAIgRBYFgQiYI1wGiNgjQBviX30F7/4RVnGfdVVVy1Lua+00kpLbA/HtzsRsMbHsr2l5SpgSfX6zne+09zudrdr/vqv/7r8Xs7tz3/+c/PDH/6wIbLc6173au585zsv28NdDAHLc5Nw9dKXvrTZYostmve+973NHe94x2XLOAcWAiEQAiEQAiEQAiEwPgIRsEZg2WUB609/+lNZNv2GG264BQG1SKRzXHXVVc0f/vCHgYSIPeutt15z+9vffoX3EEhe//rXN9dff33zV3/1V0MJ25ff/OY3zfrrr98cddRRt3j/t771rSIu9TZC09/+7d82V199dfODH/xg4PesssoqzUMf+tCB++L73/3udzdHHnlk84IXvKDZd999BwpYhK3b3OY2Q49pKb8hAtZkzk6XBaxf/vKXzQc/+MHm97//ffOoRz2qWWuttW4WFS688MJyT/jb0Ucf3dzznvfsC/DWt751c4c73OHm177xjW805557brP11ls397vf/Rqvu9c+/vGPN0Si2bb73ve+zQMf+MDmVre6VUNMk3r2v//7vyt83GsPeMADyvdfdtllA/st77Mvf/M3fzPwHtdvOV7b0R9tvvnmA99re46rq20xBCzfecABBzSf/exnmze96U3NlltuuawnDLp6bWS/QyAEQiAEQiAEQmApEoiANcJZ6bKARTDaeeedS4DZTxg65JBDSopHb6BY30vI2WSTTZrjjjuuWXvttVfYxOc///nmGc94RnFrPO1pTxsanFx33XXNqaeeWt7/5S9/+Rbvf81rXtMcf/zxK3yH73/sYx/bHHvssUUsO/300weeyX/4h39o3vOe9zT3vve9b/EegfRXvvKVZs8992wIO34LhAe1NdZYo3nqU5/aaRdKBKzmUVRIAAAgAElEQVQRbvoZPtplAYsA/OpXv7r5t3/7tyJUPfnJT2723nvvImL5+4knnljcSE984hMHCjY+98pXvrIQcl+dfPLJRaggTL/sZS9rHve4xzX6zNVWW61soy1ue78+yW+COGGotuc85zmN/sj7f/zjHze77bZb88UvfnGFM8EV9trXvrZ8l77npptu6numbOMVr3hF85KXvGSF76hvJq68853vLN+nj9l///2bu971rgPP+t///d83j370oydzQS3AVhdDwHKOv/vd7zb6/Q033HBWkxwLgCJfEQIhEAIhEAIhEAIh0AECEbBGOEldF7C23377EkQceuihJTi99tprS3C35pprliDxn/7pn8rPE57whBUoCdRrYHfKKacUR0O7VQGL+EWUGtYErt/73veaddddt6+AJdi0WtWb3/zmIpZJ7xEY3+1udyupKAJsv4lx7WBTWqDAWW2VM888s7guetuPfvSjZrvttmsuueSSEjy3A+d++00Msy8zBbXDjnexX4+ANZkz0GUBy7UvZe6rX/1q88IXvrA4mTiy/vVf/7UhIBM6hjUCVVsQd/8dccQRxWUjDe9tb3tbo8/h8CSev+pVr7pZCPbe/fbbr/H7LW95ywr3Kgcl15d7kzuKgMwh6v0aR9Y+++zTHHTQQcU95n5+ylOeUtyU7bpKHKcHH3xwcVcR2vo5pz75yU82e+yxx82OzmH9gX7Q/na1LYaA1VVW2e8QCIEQCIEQCIEQCIHFJxABa4RzsBwELEEr8Ye4w6XEdcVVRXwiXh1zzDHF0dBu0g4tey44nEnAErRKDxnWbrzxxrIKFeGsnwOLgPWpT32q+cAHPtA86EEPav77v/+77BPXRRWwTjvttBJ0cnfU9pOf/KR5/OMf36y88srNGWec0XBP1SY1kmgl+Pzwhz/cCJIdE0dAu/6VAI8gZ/8cj30h8nW54PB8BSwspGv6/MMe9rDiVFvOtcKGXbe9r3dZwGofi3Tdb3/720Us2muvvZqHPOQhReSWhus+IhjvuOOO5W+ELvcGUYhQ5f3tRpzmxHrrW9/arLPOOsXdJO2XuOT9hGv34ve///0inBHDiUzEaW311VdfQQSvAhahyja1L3zhCyVN0X75O4HL6naKg7ddXoRnDkuitp967RLv9BUf/ehHmze84Q3l2PUzO+ywQ/n+dvP9jvfyyy8vPAh0Ugy72hZCwHJfSFG9z33u01VM2e8QCIEQCIEQCIEQCIElQiAC1ggnYjkJWPe4xz2K84BAcc455xQnBXeBFJne5c0FPZ/4xCdKIDqTgMW9sMEGGwwlTCwThApexylgEbQe/vCHN3/3d3/XELhqUOy8SYki1HGdOb5rrrmmCDKCZ2lS6lw5TrWx/Chi/c///M+FUVskG3pwS/ANcxWwBPicegRO1wYhgpuG4Jj2fwSWg4DlXHNhKay92WabNWeddVYRmzbeeOMi8nA6nX322c2mm25a7iGiMFeV+4PATNTpbcSLiy++uAhi3Jz6GtskWBG8vE7osg1iMzcodxSBqTpB6zZHEbD0AQqHSzn2/bVVF6rj0jdwiP3sZz8r4ru0RM5Q7corr2wOO+yw4sBUl4v4LY26y2L2pAUsbDln/SZeqluYFgIhEAIhEAIhEAIhEALzJRABa77kmqYEOyeddFIRehQAN7vflSZgFHhWB5aaMRwHAkzHwtnEpfDb3/72FvWeBLm/+tWvmkc+8pF9BSwOBmKHejVzaQQR6Uq9rh6uJ8KJlCF1rDjAFFcW6PY6sKT2+X7nRvFpn+XWEjzVla4EU/ad88MxvuhFLyr7KyCVnmhJd/W1BPFSijgHONN23XXXTger9VzMVsBScBsP7PH+5je/WTbx9re/vdRH6nLgPpfrcrbv7bqApYA7tyGRh7DrPLvm3Y9SbTmeiL7cmu6hxzzmMUXw1YjF3I7EH821Y1sEEu+rKxfqd7i2CEjEYM4p4pjU3Ha6nr6DILbLLrvc7LSy3SpgEUKIW5pFHt74xjcWsanXgeWYOMrsh2uYy0rdPLX5alP363nPe14RZmv6ouOSQklUl+qoeLzXiGzEO9/X69ac7XWylN43KQHL84RTDTPCnzph+tPZpJQvJT7ZlxAIgRAIgRAIgRAIgaVFIALWCOdjuQhYCqhLDRLYCVCl0nFWEeYEs1tttdUKlATqashwNFUHloDVNjio/LfAcS4rjfkCgbKUH0WcBbe1mDoRigDFuUE0sW0BrmC1V8Dyulo83CJENkExBwARqx0gc4TYziMe8YgSUHu/ej/SJn3OfqjH43WBseXee1dbHOHSWdSPDhOwBOtSughXzqkaQ5ho3Gzceb2pVYt6QEvky7ssYBGg3P9EBvcvgVKaICGCEOzeIGASbxQ450LiTHRPEajUnZJqyJEl1dbnnvnMZzZWIuSyIhLrLwji7qMqYKlVxdXlfm+v7kmEtg8E9Zoq2Bawvv71r9/sqLRN9y+HZK+AdemllxZB2r3M6cUhpo+zqmFtHKBWxPM3zirH7/u5DC0eQfj2N/19dYR5X5dXH6zHPgkBS78qPVT6OUHzWc96Vjm/6hcm5XiJdFbZjRAIgRAIgRAIgRDoKIEIWCOcuOUiYJklf/azn11ECWk2XE6EKWLO4YcfvoJbAS4OqJ122qkEdm0B613veldz3nnnjUD0Lx+1XXWmiCUaAUudqpe//OVl37gwBLVm89sCFqeFWlaEF44RIpSgicNDalK7cYIIsh3LZZddVlIY1cSyIqFA23a4j+yLNESBMdeWwNVrArOuBrCDBCxBOjcL1gQLdX4EuFWIXHXVVZv3ve99zZOe9KSRz/Fy3ECXBSwCjtX+OBi5EglV7jFpddLprDD4j//4j83Tn/70knLrurjgggvK9UAMJnq6N4lehG9C8qc//elSJ0tKIuHHPe0aajuwCFRSct3LvbXnOHeIT/0ELEXdiSLaVVddVdIC1byqApZj8W/iFCcQAfYud7lLSWkmVLXFMtc9gUt/oL6eFQ71B8QvNbo4MN0DRL7an0gd5MCqgp1j6qI4M6qAhR027b7Q3z7ykY80//mf/1kcdtLQe/vf5Xj/55hCIARCIARCIARCIAQmTyAC1giMl4uAxaEkUBTkcWMJzqoDS+AqMG03QY8AT2DSroElJc/sO+GDE2uuDixBrzQkqYH+uzqmahF3Kwk++MEPLkuwc3e0i7gLpIlwAsneZv+9JujlLCLOWJGMi0OqFGeGJjWKI4RAo77X1772tXJ8HCiCW84RAavXuMOkGUrDHLZS2QiX2EQ+2itgOU9EQW4rjhNOG+ey3RzjNttsUxw6BLy0WxLosoBFwCFicVERmdzHnEruYyKTelAE7rZQ4brhfuLQI1z74baRjud9XldTj/vqc5/7XEkP5ryS/sd1JT2QwCG9jMjcm0J4+umnF+dkPwGLmKyAuiZV0T1bi7i7hwlN0hJ7RWb/VnT9yU9+cvkskY2jUF/gONwHNc1xvfXWK0K9Pkl/RJR5//vfXxYxcH8QsaUd6g/0S5yfjqNLwvZcBayaPi71nPCPPdGw16XbT9hKnxECIRACIRACIRACIRACoxKIgDUCweUiYBF/BHCCS8Hq0Ucf3RCLODEEmxwS3E0cCGrCcChxG3BIqRXTXl1K4MJ1wdVF4GoLSlYbFPwJhLk4asDqM4qoSwskovQ6fAhY3B7cVtwTXBEcHRxW1YFFeJO6JCCzbftnuwQrYpPjEWhyWAmoOY2kJHJ+OA7BruDTNrk3pFHiQdSzz1ZBFOASvLi7uFIE4BxqXXNeVAFLCpigW0F+whSxgnDRrwnWCQTqvHUpQB/h9p7zR10TBA+uH9fbbBYwmPOXTPADxAnXt/vNdU+k8TfizaBr3OuEXfcMEcN/13pXdtXr+hYF3107HF5EH24saYeEJPcjgXkuKYRSewnvGuek+5VARkyxTSIUV5j+hzCtOSYClbRoqw06JnW+9Feub/2BfeO41Besv/76JVVSnUP9nFRJIiXHGeFGeqT+hYuTAPiOd7yjONS6JGhXAeszn/lMOVYMPNecN/0811q7cbOpJaa/lrapvyRGYp8WAiEQAiEQAiEQAiEQApMmEAFrBMLLRcAiAnFdCEQuuuiiRlFjYoYUQqk5gkNuCLVv/FsBZMGfIEYAI2isjWjkPQrBK3RcayUJiMzYq4vCPbH77rvfHLASTYhovlvh5uqOqNt88YtfXP4uPYmgRij40Ic+VMS0KmBxRggeuSmIBwIxAZagmRvD6/ZFoCm1RXBOvPI3QbWg2zHZR6sQCuIVb67NueY2IU4IWIlY0glrna4RLqMF/2gVsAiFnGWOWXA/k2MOH6ux4d81wW6hALuOCaSuqS4KWDhxT3IWOgbnu57r6rZyHVSBxt+4IfUDBCGrCvYr7O/eIYxxL3JkEYek93F1Eb30PVySs00hJHx5L2eURkSq/ZO+qNbjUsfKdolUBCpOSnWyDjjggGbfffe9uTi9v9s3zk/9hrRhYhoBjEjm8/obqzLW5jUiGUGLsE8Y02/0c4Au1PU3n++pAta///u/lwmHetzOMTed/rMtLJpgUI8QK/2qNEqCH+EvLQRCIARCIARCIARCIAQmTSAC1giEl5OAJVXQqlsCFivuCSoJWAQn6XpEDgEc55MCvcQhqTq1hpT3a1XAEtASt9puhCoCcfB4rTaBsIBQ8NtPwOLOkMrXDnB9xv60a2BxQAiM7b9gWi0b6UIcHnV/6ncqLN3PbSQYlVbElSWA79cIZxwk7WMY4TJa8I9WAUuwz1VGlEsbH4Hq+OuaA6stYHFUEaKreOGaIf5IIyUku1dr/2eRAz+DBCwCE7eiVEFs3I8cmoQmwrJ7X1O7Tg0qLjbpvu53Ylc7PU1dOvtAKGw3+0kwrzWwiOxEM+6vs846qwgt3JLq9FlxlPOwNsemYHvdj/p3x6d+l5RaztTax7W/V1+mH/TTRWdiFbCkVevPiHdWg3WsT33qU0sB/rajDiOf4bSrzrwI2uPrO7KlEAiBEAiBEAiBEAiBmQlEwBrhClluApZgTeCnnovgpS1gcT15TTCqxg3HlGDSe6Tk1CCmCljSTKTemKmvTdpNdV7st99+KziwpC1a4r6fgKVOjrRBAajgyj74Xm6gtoDFfaXQu33w3bbFCUb8qq6xui8C41r7qv6Nw0rQKxCVdtS76qDX7QfHwSc/+cnOuS3aATtxDiMii6CeK01apeC0X1P3Ss0hAmaXUqRGuL3n/FFuHK42v7vuwCJcEISIFMRix0NIlkrn3qsC1gknnFBSSwcJWO5FnyVu+Tynn/vS5whYrjnXEzejOnyuQ++XDoyjVQPbAopUZs4rLjGOUY2Y5bMcolXAUuCd0Gy1VKnQ/u3HPW/73EO1cZvav7rSZv27Ok8cZtxo/VbdlBIt7ZlgjkHbqTTni2eRPtBOIdT/Eg45UjnWIkwt0knJ14ZACIRACIRACIRACAwkEAFrhItjOQhYhCnuAwIFB5aCyVJ7BOJtAauuLMWZwbmk7tVBBx1U0mbaRb2rgMWtoRZVO/gUEBKABEjtVccEyNddd93NwW07hdCMP8GII0CdJgIWl4bizu0i7lZPlMoklUhAyZ3l377LSmocZu2mQHvbgWUfBM+OmbgjGO4tXi8lSfqRfVAvpn1sI1xGC/7R3iLuzouV3BTalh7EcdKbTkjUswod90pvXZwFP4Al+oVdLuJekdYUwraA5T6RTuvcE5p33XXXIvLq/4YJWASjvffeu6wEyM2pVh3Xn/v0QQ96UBFE9RPqUBG11ZcicCkof/LJJ5frkXuqNoKXPoeLizClWVCCyF2LuBPfn/vc55b3+PF9ama5Z4nt7uG2e1Jasb7C8dSmH9OH+Yx+zvbbzev6S+mFxDtCWReF3bkWcV+it152KwRCIARCIARCIARCYEoIRMAa4UQvBwGLi4rII3AUlPlvxb2llbUFLJgIHQSsj3/848UN1VsfxXtq4XTCWG8TlAoypeNIweutlyMA5NiqReJ93v5xS1kRTADNITBIwJL+xzVFAFNPiyOCICeIHRZccl5xdChoLlgXtPamCHKoqbOlkLx0p646FHoFrHqeiFbYcq0JztX5agf1HG9WYlPwPu2WBJargOXe2GGHHUqdJ45HxczdT7MRsC699NJSQ48YTOzigiJKu76IUeosEa6ISoSuKmDpf6QdSgHmEKz3ovvaZ6QEE79mErC4PRVat+/f+c53yiIOH/7wh8vvmZr6eGpCEfE4MaU5Wp2x3Ry7+4RYLh1SzbwutghYXTxr2ecQCIEQCIEQCIEQmF4CEbBGOPfLQcASKHJUXHnllUUcklImPUeaDQFLXSmOhy996UsluOScOvbYY0vqDIcCQUfdlNoE8UQuNbJ6m9d8j0LJ0nt6BSD/llZk9b9aDFnaITeYGjPcHwS2mQQsqS8EqOOOO64IWIQowpSUpH5NACco5qRwfMQvolc79bF+TrFnwbMaPdLputoGCVj1eKRSqR0kiFe8mjurClmuDUX+iYxpKxJYDgKWe4s4RDhybxOtXetcmv5GjOJo0k8o+u0+59zbYostirDZFopdR1anq84tzkUCFkflYYcdVu5TAhdXFsckQbwKWPoZhdaJ3hxZRGwCKzFLaqP011oba5ADi4BVVyzVj3B86RcIcP3qVdk+0VZ6NLGNYKeP05/1FmdXwJ0Y7332nzuxiy0CVhfPWvY5BEIgBEIgBEIgBKaXQASsEc79chCwBKhS86QECj4FdlxUXFhcEQQdgaj0OoKQNCDB2/77719cEVYIJOpI8fN32+PS6a0nAzNRRHAo8BXw9asZo8izAJdQRdCyb+rTCHb9+E4rmUkhXHnllVeogaUWjlQlQWf9PCcYAUvgrM6ObTpvxAZphJxUijxzXdgnATcW7YLzAltpRgQ0QpeAnIjV1TZMwHJctbA+RgQE9XGkWUknE7Rzv3Sx5s8kz1nXBSzXPHeUe8aP882xpMC3+9u1f8kllxRHkmMleEvv23TTTYvA5P5q143jWCSOu0+tXieVVw0t/YrtEYAIYrYrLVWNLNt3vUnjJQzpZ9TcU1Be44oiptuehRa0Cy64oNTss+1aA8v1SYAjvEkDJF5JjVX7SrqflMAqaqttp7ZWrb/1mc98pvQBHGG2Y/9d9/jU/oMQ73UCGWF7mKtrktfdKNuOgDUKvXw2BEIgBEIgBEIgBEJgoQlEwBqB+HIRsKQFtWtECWIJU4QaQoYaVwJEqTiPfOQji+NKUCj1h2PBKoVcGgJOhdQHNY4GQS13k5ScQWl9ts85ZZ8EmyeeeGKpmUP4IoBJFeQQEzR7jbDl79xBgluBKZGFa0L6oBSoTTbZpLzX34hihC6CGgeJfSFc1aDWMZ933nml+HtNXZKCZFVDge35559fnGhdbbMRsNrHRtwjGjoHBAGryeHbWyOsqzzGtd9dFrDUd3O/u7eIOYqXS98lRHMscWW59/2baOM+JlT7IVwTr9x/XFM13U5qHbeUhRWIULvvvntxWCma7h4ihvtO15YfdeykFbu3bcMKpxyZD3vYw0rKsjp5Vg8kRulr7Kd0ZtskYrk2iVrcmmussUYRnRwHIUtNO0IcIYxIv/POO5fVVKUxcnVxcdkHAhVxWkqgtGXv1R/oCwhV6t5hUFcntCIjQa+LKxC67iNgjevuz3ZCIARCIARCIARCIAQWgkAErBEod1nA4jqQGsNpoVCyWi+11eOSvkM0ksIn/addE4pLi1NBKhAHliDRdgSmM7VaHHym+lEELILSOuusU1xPHFIcQDfddFMJaO279wiW1cnxXu/hvtCIXlxcBDKBuSDacXKV+SzBS9qg1RaJVgS41VZbbYWURmlRVjbDwj47doKav+HR1fpX+MxVwKrnkyAg4Oek2WabbZr111+/0xxGuPX7frTLApbzyqnofpGGW9N8pQ1K1WvXpasHT/yQTkgA11c4fiIxRxYRnFjk74Qq/Yt6URxQXFVEUeIxxxaxWrqqe8r3uV+5u9x3RCyCNOGZGKUIO+GaeE5Q4s60LSnJVj61T1xf6rW516U26icIz/bJ99gfYhxRjuBNXNP0dVYrtQ/ttGivKShv+8Q6/QpXlsLwavnpG7vaImB19cxlv0MgBEIgBEIgBEJgOglEwBrhvHdZwCJASbkT5Kln01vjRcqcJlAb1ASOXBDcSJwTPmN7ozaBrKDVNgW5nBEbbbRR2baaOYQUryumLgAWRNsPaUeOQ/Dbbpa7V+tL8Cwotj3OMemKAvV+7gmBqvc5Rp8R1HOiEbq66raoTOYrYNXPc6BUJqOe6+X0+S4LWO4ttc5c965zKX1+t1MCB50rn+FydE8RkbmUXB/uO7XyuLPcy163vfaqpfpQohl3lZRUQldNZ+79vrrIgPdx/xGlpbjqy7g6fY/7nCglRZHo7G9tMcr9TAhzH9sP/77sssvKPusfBtXKI55///vfL30PAQsfItmg93fluo6A1ZUzlf0MgRAIgRAIgRAIgRBAIALWCNdBlwWsEQ47H+04gVEFrI4f/sR2v8sC1sSgZMNLmkAErCV9erJzIRACIRACIRACIRACPQQiYI1wSUTAGgFePrpoBCJgTQZ9BKzJcM1WJ0cgAtbk2GbLIRACIRACIRACIRAC4ycQAWsEphGwRoCXjy4agQhYk0EfAWsyXLPVyRGIgDU5ttlyCIRACIRACIRACITA+AlEwBqBaQSsEeDlo4tGIALWZNBHwJoM12x1cgQiYE2ObbYcAiEQAiEQAiEQAiEwfgIRsEZgGgFrBHj56KIRiIA1GfQRsCbDNVudHIEIWJNjmy2HQAiEQAiEQAiEQAiMn0AErBGYRsAaAV4+umgEImBNBn0ErMlwzVYnRyAC1uTYZsshEAIhEAIhEAIhEALjJxABawSmEbBGgJePLhqBCFiTQR8BazJcs9XJEYiANTm22XIIhEAIhEAIhEAIhMD4CUTAGoFpBKwR4OWji0YgAtZk0EfAmgzXbHVyBCJgTY5tthwCIRACIRACIRACITB+AhGwRmAaAWsEePnoohGIgDUZ9BGwJsM1W50cgQhYk2ObLYdACIRACIRACIRACIyfQASsEZgSsE4++eTmZS97WXP44Yc3z3/+80fYWj4aAgtD4Gtf+1qz/vrrl2t39913X5gvnYJvIWA96UlPam688cbmzDPPbDbYYIMpOOocYpcJ/OpXvyp9wOc///nmi1/8YrPGGmt0+XCy7yEQAiEQAiEQAiEQAsucQASsEU7wn/70pxKo7rvvvs3ee+/dHHzwwc1tb3vbEbaYj4bA5AmceuqpzT777NO8733va5761KdO/gun5Bt+/vOfN7vuumvz1a9+tcF40003bVZaaaUpOfocZhcJ/OQnP2me8YxnND/84Q+bCy64oFlttdW6eBjZ5xAIgRAIgRAIgRAIgSkhEAFrhBP95z//ufn0pz/d7LHHHs2DHvSg5rTTTmtWXXXVEbaYj4bAZAn85je/KS6h733ve80ZZ5zRbLjhhpP9wina+u9///vmDW94Q3PMMcc0RxxxRLPbbrs1t771raeIQA61awSuvPLKZvvtt2/WW2+95r3vfW9z+9vfvmuHkP0NgRAIgRAIgRAIgRCYIgIRsEY82f/zP//T7LLLLo26QgSsLbbYIq6LEZnm45MhQHA977zzSsC61VZbNccff3xzj3vcYzJfNqVblYq19dZbN9ttt11z7LHHNne6052mlEQOe6kT0B+84x3vaF772tc2hx12WPOCF7xgqe9y9i8EQiAEQiAEQiAEQmDKCUTAGvECkEb4/ve/v6QRbrnlls2RRx7ZrL322iNuNR8PgfET+M53vtPsv//+zcc+9rHm6KOPLrVvkvI6Xs5cWC960Yuas88+uznkkEOKO/OOd7zjeL8kWwuBEQn87ne/KymDz372s5sHPOABzUknndTc//73H3Gr+XgIhEAIhEAIhEAIhEAITJZABKwx8P3lL3/ZvPrVry4OrG222aY56KCDmrXWWqu5zW1uM4atZxMhMBqBP/zhD811111X0tsIK1IICa13v/vdR9twPt2XwOWXX15q4l1zzTXNa17zmuLQvNvd7hZnZq6XJUFAGvH555/fHHjggc0PfvCD5m1ve1uz4447RsxeEmcnOxECIRACIRACIRACITATgQhYY7o+fvSjHzUHHHBAKer+wAc+sNlrr72azTbbrFlnnXVSV2RMjLOZ2ROQHvTb3/624bq66KKLmhNOOKGkuQpUjzrqqOaud73r7DeWd86JAMHw3HPPbV7ykpc0+oVtt9222XnnncuqhFI243qbE868eQwEOIVvuumm0gd85CMfKa7hX//6183rX//6uATHwDebCIEQCIEQCIEQCIEQWBgCEbDGyNlKTpwtimP/4he/aFZeeeXmzne+c5xYY2ScTc2eACHFdWh1PGlsO+20U0khvPe97z37jeSd8yJAMPj6179enJlf+MIXGv9eZZVVmjvc4Q7NrW51q3ltMx8KgfkSqIL2z372s0b6oLRBDixuzCw0MF+q+VwIhEAIhEAIhEAIhMBCE4iANWbi0jMuvvji8mOFpxtuuKEEDAKItBBYKAIrrbRScfqsvvrqxRG48cYbN49+9KOLgJK2cAQs8nDhhRc2l156aXPttdc2BIQ//vGPC7cD+aYQaJoimlpQgHhtxcFNN920rJybNPdcHiEQAiEQAiEQAiEQAl0iEAFrAmeLWMX9Qrjym/siLQQWmkAVsW53u9uVQNW/0xaegPtfcXf9AfEqYvbCn4Np/0b3vh99gZ+4rqb9isjxh0AIhEAIhEAIhEA3CUTA6uZ5y16HQAiEQAiEQAiEQAiEQAiEQAiEQAiEwNQQiIA1Nac6BxoCIRACIRACIRACIRACIRACIRACIRAC3SQQAaub5y17HQIhEAIhEAIhEAIhEAIhEAIhEAIhEAJTQyAC1uQ3F3sAAAbZSURBVNSc6hxoCIRACIRACIRACIRACIRACIRACIRACHSTQASsbp637HUIhEAIhEAIhEAIhEAIhEAIhEAIhEAITA2BCFhTc6pzoCEQAiEQAiEQAiEQAiEQAiEQAiEQAiHQTQIRsLp53rLXIRACIRACIRACIRACIRACIRACIRACITA1BCJgTc2pzoGGQAiEQAiEQAiEQAiEQAiEQAiEQAiEQDcJRMDq5nnLXodACIRACIRACIRACIRACIRACIRACITA1BCIgDU1pzoHGgIhEAIhEAIhEAIhEAIhEAIhEAIhEALdJBABq5vnLXsdAiEQAiEQAiEQAiEQAiEQAiEQAiEQAlNDIALW1JzqHGgIhEAIhEAIhEAIhEAIhEAIhEAIhEAIdJNABKxunrfsdQiEQAiEQAiEQAiEQAiEQAiEQAiEQAhMDYEIWFNzqnOgIRACIRACIRACIRACIRACIRACIRACIdBNAhGwunnestchEAIhEAIhEAIhEAIhEAIhEAIhEAIhMDUEImBNzanOgYZACIRACIRACIRACIRACIRACIRACIRANwlEwOrmecteh0AIhEAIhEAIhEAIhEAIhEAIhEAIhMDUEIiANTWnOgcaAiEQAiEQAiEQAiEQAiEQAiEQAiEQAt0kEAGrm+ctex0CIRACIRACIRACIRACIRACIRACIRACU0MgAtbUnOocaAiEQAiEQAiEQAiEQAiEQAiEQAiEQAh0k0AErG6et+x1CIRACIRACIRACIRACIRACIRACIRACEwNgQhYU3Oqc6AhEAIhEAIhEAIhEAIhEAIhEAIhEAIh0E0CEbC6ed6y1yEQAiEQAiEQAiEQAiEQAiEQAiEQAiEwNQQiYE3Nqc6BhkAIhEAIhEAIhEAIhEAIhEAIhEAIhEA3CUTA6uZ5y16HQAiEQAiEQAiEQAiEQAiEQAiEQAiEwNQQiIA1Nac6BxoCIRACIRACIRACIRACIRACIRACIRAC3SQQAaub5y17HQIhEAIhEAIhEAIhEAIhEAIhEAIhEAJTQyAC1tSc6hxoCIRACIRACIRACIRACIRACIRACIRACHSTQASsbp637HUIhEAIhEAIhEAIhEAIhEAIhEAIhEAITA2BCFhTc6pzoCEQAiEQAiEQAiEQAiEQAiEQAiEQAiHQTQIRsLp53rLXIRACIRACIRACIRACIRACIRACIRACITA1BCJgTc2pzoGGQAiEQAiEQAiEQAiEQAiEQAiEQAiEQDcJRMDq5nnLXodACIRACIRACIRACIRACIRACIRACITA1BCIgDU1pzoHGgIhEAIhEAIhEAIhEAIhEAIhEAIhEALdJBABq5vnLXsdAiEQAiEQAiEQAiEQAiEQAiEQAiEQAlNDIALW1JzqHGgIhEAIhEAIhEAIhEAIhEAIhEAIhEAIdJNABKxunrfsdQiEQAiEQAiEQAiEQAiEQAiEQAiEQAhMDYEIWFNzqnOgIRACIRACIRACIRACIRACIRACIRACIdBNAhGwunnestchEAIhEAIhEAIhEAIhEAIhEAIhEAIhMDUEImBNzanOgYZACIRACIRACIRACIRACIRACIRACIRANwlEwOrmecteh0AIhEAIhEAIhEAIhEAIhEAIhEAIhMDUEIiANTWnOgcaAiEQAiEQAiEQAiEQAiEQAiEQAiEQAt0kEAGrm+ctex0CIRACIRACIRACIRACIRACIRACIRACU0MgAtbUnOocaAiEQAiEQAiEQAiEQAiEQAiEQAiEQAh0k0AErG6et+x1CIRACIRACIRACIRACIRACIRACIRACEwNgQhYU3Oqc6AhEAIhEAIhEAIhEAIhEAIhEAIhEAIh0E0CEbC6ed6y1yEQAiEQAiEQAiEQAiEQAiEQAiEQAiEwNQQiYE3Nqc6BhkAIhEAIhEAIhEAIhEAIhEAIhEAIhEA3CUTA6uZ5y16HQAiEQAiEQAiEQAiEQAiEQAiEQAiEwNQQiIA1Nac6BxoCIRACIRACIRACIRACIRACIRACIRAC3SQQAaub5y17HQIhEAIhEAIhEAIhEAIhEAIhEAIhEAJTQyAC1tSc6hxoCIRACIRACIRACIRACIRACIRACIRACHSTQASsbp637HUIhEAIhEAIhEAIhEAIhEAIhEAIhEAITA2BCFhTc6pzoCEQAiEQAiEQAiEQAiEQAiEQAiEQAiHQTQIRsLp53rLXIRACIRACIRACIRACIRACIRACIRACITA1BCJgTc2pzoGGQAiEQAiEQAiEQAiEQAiEQAiEQAiEQDcJRMDq5nnLXodACIRACIRACIRACIRACIRACIRACITA1BBoC1i3WulW5bhXWmkl/9f8P8oNTwpaWha1AAAAAElFTkSuQmCC;" vertex="1" parent="1">
          <mxGeometry x="-660" y="1110" width="1200" height="573" as="geometry" />
        </mxCell>
        <mxCell id="45SI-ryJiPIYLQKIN5sb-31" style="edgeStyle=orthogonalEdgeStyle;rounded=0;orthogonalLoop=1;jettySize=auto;html=1;exitX=1;exitY=0.5;exitDx=0;exitDy=0;" edge="1" parent="1" source="45SI-ryJiPIYLQKIN5sb-28" target="45SI-ryJiPIYLQKIN5sb-29">
          <mxGeometry relative="1" as="geometry" />
        </mxCell>
        <mxCell id="45SI-ryJiPIYLQKIN5sb-50" value="创建订单" style="edgeLabel;html=1;align=center;verticalAlign=middle;resizable=0;points=[];" vertex="1" connectable="0" parent="45SI-ryJiPIYLQKIN5sb-31">
          <mxGeometry x="-0.2235" relative="1" as="geometry">
            <mxPoint x="3" as="offset" />
          </mxGeometry>
        </mxCell>
        <mxCell id="45SI-ryJiPIYLQKIN5sb-38" style="edgeStyle=orthogonalEdgeStyle;rounded=0;orthogonalLoop=1;jettySize=auto;html=1;exitX=0.5;exitY=1;exitDx=0;exitDy=0;" edge="1" parent="1" source="45SI-ryJiPIYLQKIN5sb-28" target="45SI-ryJiPIYLQKIN5sb-34">
          <mxGeometry relative="1" as="geometry" />
        </mxCell>
        <mxCell id="45SI-ryJiPIYLQKIN5sb-52" value="库存检查" style="edgeLabel;html=1;align=center;verticalAlign=middle;resizable=0;points=[];" vertex="1" connectable="0" parent="45SI-ryJiPIYLQKIN5sb-38">
          <mxGeometry x="-0.0222" y="-3" relative="1" as="geometry">
            <mxPoint as="offset" />
          </mxGeometry>
        </mxCell>
        <mxCell id="45SI-ryJiPIYLQKIN5sb-28" value="商品服务" style="rounded=1;whiteSpace=wrap;html=1;" vertex="1" parent="1">
          <mxGeometry x="230" y="1960" width="120" height="40" as="geometry" />
        </mxCell>
        <mxCell id="45SI-ryJiPIYLQKIN5sb-32" style="edgeStyle=orthogonalEdgeStyle;rounded=0;orthogonalLoop=1;jettySize=auto;html=1;exitX=1;exitY=0.5;exitDx=0;exitDy=0;" edge="1" parent="1" source="45SI-ryJiPIYLQKIN5sb-29" target="45SI-ryJiPIYLQKIN5sb-30">
          <mxGeometry relative="1" as="geometry" />
        </mxCell>
        <mxCell id="45SI-ryJiPIYLQKIN5sb-55" value="支付" style="edgeLabel;html=1;align=center;verticalAlign=middle;resizable=0;points=[];" vertex="1" connectable="0" parent="45SI-ryJiPIYLQKIN5sb-32">
          <mxGeometry x="-0.0667" y="-1" relative="1" as="geometry">
            <mxPoint as="offset" />
          </mxGeometry>
        </mxCell>
        <mxCell id="45SI-ryJiPIYLQKIN5sb-39" style="edgeStyle=orthogonalEdgeStyle;rounded=0;orthogonalLoop=1;jettySize=auto;html=1;exitX=0.5;exitY=1;exitDx=0;exitDy=0;" edge="1" parent="1" source="45SI-ryJiPIYLQKIN5sb-29" target="45SI-ryJiPIYLQKIN5sb-36">
          <mxGeometry relative="1" as="geometry" />
        </mxCell>
        <mxCell id="45SI-ryJiPIYLQKIN5sb-54" value="发放" style="edgeLabel;html=1;align=center;verticalAlign=middle;resizable=0;points=[];" vertex="1" connectable="0" parent="45SI-ryJiPIYLQKIN5sb-39">
          <mxGeometry x="-0.0222" relative="1" as="geometry">
            <mxPoint as="offset" />
          </mxGeometry>
        </mxCell>
        <mxCell id="45SI-ryJiPIYLQKIN5sb-29" value="订单服务" style="rounded=1;whiteSpace=wrap;html=1;" vertex="1" parent="1">
          <mxGeometry x="435" y="1960" width="120" height="40" as="geometry" />
        </mxCell>
        <mxCell id="45SI-ryJiPIYLQKIN5sb-30" value="支付服务" style="rounded=1;whiteSpace=wrap;html=1;" vertex="1" parent="1">
          <mxGeometry x="645" y="1960" width="120" height="40" as="geometry" />
        </mxCell>
        <mxCell id="45SI-ryJiPIYLQKIN5sb-34" value="限量服务" style="rounded=1;whiteSpace=wrap;html=1;" vertex="1" parent="1">
          <mxGeometry x="230" y="2060" width="120" height="40" as="geometry" />
        </mxCell>
        <mxCell id="45SI-ryJiPIYLQKIN5sb-35" style="edgeStyle=orthogonalEdgeStyle;rounded=0;orthogonalLoop=1;jettySize=auto;html=1;exitX=1;exitY=0.5;exitDx=0;exitDy=0;" edge="1" parent="1" source="45SI-ryJiPIYLQKIN5sb-36" target="45SI-ryJiPIYLQKIN5sb-37">
          <mxGeometry relative="1" as="geometry" />
        </mxCell>
        <mxCell id="45SI-ryJiPIYLQKIN5sb-53" value="发放" style="edgeLabel;html=1;align=center;verticalAlign=middle;resizable=0;points=[];" vertex="1" connectable="0" parent="45SI-ryJiPIYLQKIN5sb-35">
          <mxGeometry x="-0.1111" y="-1" relative="1" as="geometry">
            <mxPoint as="offset" />
          </mxGeometry>
        </mxCell>
        <mxCell id="45SI-ryJiPIYLQKIN5sb-40" style="edgeStyle=orthogonalEdgeStyle;rounded=0;orthogonalLoop=1;jettySize=auto;html=1;exitX=0;exitY=0.5;exitDx=0;exitDy=0;" edge="1" parent="1" source="45SI-ryJiPIYLQKIN5sb-36" target="45SI-ryJiPIYLQKIN5sb-34">
          <mxGeometry relative="1" as="geometry" />
        </mxCell>
        <mxCell id="45SI-ryJiPIYLQKIN5sb-36" value="资源服务" style="rounded=1;whiteSpace=wrap;html=1;" vertex="1" parent="1">
          <mxGeometry x="435" y="2060" width="120" height="40" as="geometry" />
        </mxCell>
        <mxCell id="45SI-ryJiPIYLQKIN5sb-37" value="物品发放" style="rounded=1;whiteSpace=wrap;html=1;fillColor=#fff2cc;strokeColor=#d6b656;" vertex="1" parent="1">
          <mxGeometry x="645" y="2060" width="120" height="40" as="geometry" />
        </mxCell>
        <mxCell id="45SI-ryJiPIYLQKIN5sb-49" style="edgeStyle=orthogonalEdgeStyle;rounded=0;orthogonalLoop=1;jettySize=auto;html=1;exitX=0.5;exitY=1;exitDx=0;exitDy=0;" edge="1" parent="1" source="45SI-ryJiPIYLQKIN5sb-47" target="45SI-ryJiPIYLQKIN5sb-29">
          <mxGeometry relative="1" as="geometry" />
        </mxCell>
        <mxCell id="45SI-ryJiPIYLQKIN5sb-47" value="" style="rounded=0;whiteSpace=wrap;html=1;" vertex="1" parent="1">
          <mxGeometry x="435" y="1840" width="120" height="60" as="geometry" />
        </mxCell>
        <mxCell id="45SI-ryJiPIYLQKIN5sb-48" value="" style="curved=1;endArrow=classic;html=1;rounded=0;exitX=0.5;exitY=1;exitDx=0;exitDy=0;" edge="1" parent="1" source="45SI-ryJiPIYLQKIN5sb-47" target="45SI-ryJiPIYLQKIN5sb-28">
          <mxGeometry width="50" height="50" relative="1" as="geometry">
            <mxPoint x="300" y="1850" as="sourcePoint" />
            <mxPoint x="350" y="1800" as="targetPoint" />
            <Array as="points">
              <mxPoint x="480" y="1930" />
              <mxPoint x="330" y="1920" />
            </Array>
          </mxGeometry>
        </mxCell>
        <mxCell id="45SI-ryJiPIYLQKIN5sb-51" value="下单" style="edgeLabel;html=1;align=center;verticalAlign=middle;resizable=0;points=[];" vertex="1" connectable="0" parent="45SI-ryJiPIYLQKIN5sb-48">
          <mxGeometry x="0.17" y="1" relative="1" as="geometry">
            <mxPoint as="offset" />
          </mxGeometry>
        </mxCell>
        <mxCell id="45SI-ryJiPIYLQKIN5sb-56" value="" style="curved=1;endArrow=classic;html=1;rounded=0;exitX=0.5;exitY=0;exitDx=0;exitDy=0;entryX=0.75;entryY=0;entryDx=0;entryDy=0;" edge="1" parent="1" source="45SI-ryJiPIYLQKIN5sb-30" target="45SI-ryJiPIYLQKIN5sb-29">
          <mxGeometry width="50" height="50" relative="1" as="geometry">
            <mxPoint x="690" y="1850" as="sourcePoint" />
            <mxPoint x="740" y="1800" as="targetPoint" />
            <Array as="points">
              <mxPoint x="690" y="1930" />
              <mxPoint x="560" y="1930" />
            </Array>
          </mxGeometry>
        </mxCell>
        <mxCell id="45SI-ryJiPIYLQKIN5sb-58" value="" style="curved=1;endArrow=classic;html=1;rounded=0;exitX=0.5;exitY=1;exitDx=0;exitDy=0;entryX=0.5;entryY=0;entryDx=0;entryDy=0;" edge="1" parent="1" source="45SI-ryJiPIYLQKIN5sb-28" target="45SI-ryJiPIYLQKIN5sb-36">
          <mxGeometry width="50" height="50" relative="1" as="geometry">
            <mxPoint x="100" y="1910" as="sourcePoint" />
            <mxPoint x="150" y="1860" as="targetPoint" />
            <Array as="points">
              <mxPoint x="320" y="2040" />
              <mxPoint x="450" y="2030" />
            </Array>
          </mxGeometry>
        </mxCell>
        <mxCell id="45SI-ryJiPIYLQKIN5sb-59" value="" style="curved=1;endArrow=classic;html=1;rounded=0;exitX=1;exitY=0.5;exitDx=0;exitDy=0;entryX=0.5;entryY=1;entryDx=0;entryDy=0;" edge="1" parent="1" source="45SI-ryJiPIYLQKIN5sb-36" target="45SI-ryJiPIYLQKIN5sb-29">
          <mxGeometry width="50" height="50" relative="1" as="geometry">
            <mxPoint x="-10" y="1900" as="sourcePoint" />
            <mxPoint x="40" y="1850" as="targetPoint" />
            <Array as="points">
              <mxPoint x="600" y="2070" />
              <mxPoint x="600" y="2030" />
              <mxPoint x="550" y="2030" />
            </Array>
          </mxGeometry>
        </mxCell>
        <mxCell id="45SI-ryJiPIYLQKIN5sb-95" value="" style="group" vertex="1" connectable="0" parent="1">
          <mxGeometry x="-370" y="2278" width="850" height="134" as="geometry" />
        </mxCell>
        <mxCell id="45SI-ryJiPIYLQKIN5sb-60" value="预约" style="rounded=0;whiteSpace=wrap;html=1;" vertex="1" parent="45SI-ryJiPIYLQKIN5sb-95">
          <mxGeometry width="72.4321900018743" height="32" as="geometry" />
        </mxCell>
        <mxCell id="45SI-ryJiPIYLQKIN5sb-63" value="报名" style="rounded=0;whiteSpace=wrap;html=1;" vertex="1" parent="45SI-ryJiPIYLQKIN5sb-95">
          <mxGeometry y="52" width="72.4321900018743" height="32" as="geometry" />
        </mxCell>
        <mxCell id="45SI-ryJiPIYLQKIN5sb-64" value="..." style="rounded=0;whiteSpace=wrap;html=1;" vertex="1" parent="45SI-ryJiPIYLQKIN5sb-95">
          <mxGeometry y="102" width="72.4321900018743" height="32" as="geometry" />
        </mxCell>
        <mxCell id="45SI-ryJiPIYLQKIN5sb-66" value="组队" style="rounded=0;whiteSpace=wrap;html=1;" vertex="1" parent="45SI-ryJiPIYLQKIN5sb-95">
          <mxGeometry x="102.2983773797092" width="72.4321900018743" height="32" as="geometry" />
        </mxCell>
        <mxCell id="45SI-ryJiPIYLQKIN5sb-67" value="邀请" style="rounded=0;whiteSpace=wrap;html=1;" vertex="1" parent="45SI-ryJiPIYLQKIN5sb-95">
          <mxGeometry x="102.2983773797092" y="52" width="72.4321900018743" height="32" as="geometry" />
        </mxCell>
        <mxCell id="45SI-ryJiPIYLQKIN5sb-68" value="签到" style="rounded=0;whiteSpace=wrap;html=1;" vertex="1" parent="45SI-ryJiPIYLQKIN5sb-95">
          <mxGeometry x="102.2983773797092" y="102" width="72.4321900018743" height="32" as="geometry" />
        </mxCell>
        <mxCell id="45SI-ryJiPIYLQKIN5sb-70" value="集卡" style="rounded=0;whiteSpace=wrap;html=1;" vertex="1" parent="45SI-ryJiPIYLQKIN5sb-95">
          <mxGeometry x="193.7916700136557" width="72.4321900018743" height="32" as="geometry" />
        </mxCell>
        <mxCell id="45SI-ryJiPIYLQKIN5sb-71" value="换卡" style="rounded=0;whiteSpace=wrap;html=1;" vertex="1" parent="45SI-ryJiPIYLQKIN5sb-95">
          <mxGeometry x="193.7916700136557" y="52" width="72.4321900018743" height="32" as="geometry" />
        </mxCell>
        <mxCell id="45SI-ryJiPIYLQKIN5sb-72" value="..." style="rounded=0;whiteSpace=wrap;html=1;" vertex="1" parent="45SI-ryJiPIYLQKIN5sb-95">
          <mxGeometry x="193.7916700136557" y="102" width="72.4321900018743" height="32" as="geometry" />
        </mxCell>
        <mxCell id="45SI-ryJiPIYLQKIN5sb-74" value="赛事" style="rounded=0;whiteSpace=wrap;html=1;" vertex="1" parent="45SI-ryJiPIYLQKIN5sb-95">
          <mxGeometry x="297.2906123651163" width="72.4321900018743" height="32" as="geometry" />
        </mxCell>
        <mxCell id="45SI-ryJiPIYLQKIN5sb-75" value="打榜" style="rounded=0;whiteSpace=wrap;html=1;" vertex="1" parent="45SI-ryJiPIYLQKIN5sb-95">
          <mxGeometry x="297.2906123651163" y="52" width="72.4321900018743" height="32" as="geometry" />
        </mxCell>
        <mxCell id="45SI-ryJiPIYLQKIN5sb-76" value="约战" style="rounded=0;whiteSpace=wrap;html=1;" vertex="1" parent="45SI-ryJiPIYLQKIN5sb-95">
          <mxGeometry x="297.2906123651163" y="102" width="72.4321900018743" height="32" as="geometry" />
        </mxCell>
        <mxCell id="45SI-ryJiPIYLQKIN5sb-78" value="投票" style="rounded=0;whiteSpace=wrap;html=1;" vertex="1" parent="45SI-ryJiPIYLQKIN5sb-95">
          <mxGeometry x="388.7839049990628" width="72.4321900018743" height="32" as="geometry" />
        </mxCell>
        <mxCell id="45SI-ryJiPIYLQKIN5sb-79" value="激励" style="rounded=0;whiteSpace=wrap;html=1;" vertex="1" parent="45SI-ryJiPIYLQKIN5sb-95">
          <mxGeometry x="388.7839049990628" y="52" width="72.4321900018743" height="32" as="geometry" />
        </mxCell>
        <mxCell id="45SI-ryJiPIYLQKIN5sb-80" value="..." style="rounded=0;whiteSpace=wrap;html=1;" vertex="1" parent="45SI-ryJiPIYLQKIN5sb-95">
          <mxGeometry x="388.7839049990628" y="102" width="72.4321900018743" height="32" as="geometry" />
        </mxCell>
        <mxCell id="45SI-ryJiPIYLQKIN5sb-82" value="直购" style="rounded=0;whiteSpace=wrap;html=1;" vertex="1" parent="45SI-ryJiPIYLQKIN5sb-95">
          <mxGeometry x="492.2828473505234" width="72.4321900018743" height="32" as="geometry" />
        </mxCell>
        <mxCell id="45SI-ryJiPIYLQKIN5sb-83" value="买赠" style="rounded=0;whiteSpace=wrap;html=1;" vertex="1" parent="45SI-ryJiPIYLQKIN5sb-95">
          <mxGeometry x="492.2828473505234" y="52" width="72.4321900018743" height="32" as="geometry" />
        </mxCell>
        <mxCell id="45SI-ryJiPIYLQKIN5sb-84" value="满赠" style="rounded=0;whiteSpace=wrap;html=1;" vertex="1" parent="45SI-ryJiPIYLQKIN5sb-95">
          <mxGeometry x="492.2828473505234" y="102" width="72.4321900018743" height="32" as="geometry" />
        </mxCell>
        <mxCell id="45SI-ryJiPIYLQKIN5sb-85" value="返利" style="rounded=0;whiteSpace=wrap;html=1;" vertex="1" parent="45SI-ryJiPIYLQKIN5sb-95">
          <mxGeometry x="583.77613998447" width="72.4321900018743" height="32" as="geometry" />
        </mxCell>
        <mxCell id="45SI-ryJiPIYLQKIN5sb-86" value="团购" style="rounded=0;whiteSpace=wrap;html=1;" vertex="1" parent="45SI-ryJiPIYLQKIN5sb-95">
          <mxGeometry x="583.77613998447" y="52" width="72.4321900018743" height="32" as="geometry" />
        </mxCell>
        <mxCell id="45SI-ryJiPIYLQKIN5sb-87" value="..." style="rounded=0;whiteSpace=wrap;html=1;" vertex="1" parent="45SI-ryJiPIYLQKIN5sb-95">
          <mxGeometry x="583.77613998447" y="102" width="72.4321900018743" height="32" as="geometry" />
        </mxCell>
        <mxCell id="45SI-ryJiPIYLQKIN5sb-88" value="放回" style="rounded=0;whiteSpace=wrap;html=1;" vertex="1" parent="45SI-ryJiPIYLQKIN5sb-95">
          <mxGeometry x="686.0745173641791" width="72.4321900018743" height="32" as="geometry" />
        </mxCell>
        <mxCell id="45SI-ryJiPIYLQKIN5sb-89" value="不放回" style="rounded=0;whiteSpace=wrap;html=1;" vertex="1" parent="45SI-ryJiPIYLQKIN5sb-95">
          <mxGeometry x="686.0745173641791" y="52" width="72.4321900018743" height="32" as="geometry" />
        </mxCell>
        <mxCell id="45SI-ryJiPIYLQKIN5sb-90" value="轮次" style="rounded=0;whiteSpace=wrap;html=1;" vertex="1" parent="45SI-ryJiPIYLQKIN5sb-95">
          <mxGeometry x="686.0745173641791" y="102" width="72.4321900018743" height="32" as="geometry" />
        </mxCell>
        <mxCell id="45SI-ryJiPIYLQKIN5sb-91" value="自选礼" style="rounded=0;whiteSpace=wrap;html=1;" vertex="1" parent="45SI-ryJiPIYLQKIN5sb-95">
          <mxGeometry x="777.5678099981257" width="72.4321900018743" height="32" as="geometry" />
        </mxCell>
        <mxCell id="45SI-ryJiPIYLQKIN5sb-92" value="暴击" style="rounded=0;whiteSpace=wrap;html=1;" vertex="1" parent="45SI-ryJiPIYLQKIN5sb-95">
          <mxGeometry x="777.5678099981257" y="52" width="72.4321900018743" height="32" as="geometry" />
        </mxCell>
        <mxCell id="45SI-ryJiPIYLQKIN5sb-93" value="..." style="rounded=0;whiteSpace=wrap;html=1;" vertex="1" parent="45SI-ryJiPIYLQKIN5sb-95">
          <mxGeometry x="777.5678099981257" y="102" width="72.4321900018743" height="32" as="geometry" />
        </mxCell>
        <mxCell id="45SI-ryJiPIYLQKIN5sb-101" value="H5竖屏" style="rounded=0;whiteSpace=wrap;html=1;" vertex="1" parent="1">
          <mxGeometry x="-93.57" y="2120" width="80" height="40" as="geometry" />
        </mxCell>
        <mxCell id="45SI-ryJiPIYLQKIN5sb-102" value="H5竖屏" style="rounded=0;whiteSpace=wrap;html=1;" vertex="1" parent="1">
          <mxGeometry x="6.430000000000007" y="2120" width="80" height="40" as="geometry" />
        </mxCell>
        <mxCell id="45SI-ryJiPIYLQKIN5sb-103" value="H5竖屏" style="rounded=0;whiteSpace=wrap;html=1;" vertex="1" parent="1">
          <mxGeometry x="106.43" y="2120" width="80" height="40" as="geometry" />
        </mxCell>
        <mxCell id="45SI-ryJiPIYLQKIN5sb-120" value="" style="rounded=1;whiteSpace=wrap;html=1;dashed=1;" vertex="1" parent="1">
          <mxGeometry x="848.5" y="2740" width="100" height="40" as="geometry" />
        </mxCell>
        <mxCell id="45SI-ryJiPIYLQKIN5sb-121" value="" style="rounded=1;whiteSpace=wrap;html=1;dashed=1;" vertex="1" parent="1">
          <mxGeometry x="868.5" y="2760" width="100" height="40" as="geometry" />
        </mxCell>
        <mxCell id="45SI-ryJiPIYLQKIN5sb-122" value="组件" style="rounded=1;whiteSpace=wrap;html=1;" vertex="1" parent="1">
          <mxGeometry x="883.5" y="2780" width="100" height="40" as="geometry" />
        </mxCell>
        <mxCell id="45SI-ryJiPIYLQKIN5sb-123" value="" style="rounded=1;whiteSpace=wrap;html=1;dashed=1;" vertex="1" parent="1">
          <mxGeometry x="1086.5" y="2738" width="100" height="40" as="geometry" />
        </mxCell>
        <mxCell id="45SI-ryJiPIYLQKIN5sb-124" value="" style="rounded=1;whiteSpace=wrap;html=1;dashed=1;" vertex="1" parent="1">
          <mxGeometry x="1106.5" y="2758" width="100" height="40" as="geometry" />
        </mxCell>
        <mxCell id="45SI-ryJiPIYLQKIN5sb-125" value="条件" style="rounded=1;whiteSpace=wrap;html=1;" vertex="1" parent="1">
          <mxGeometry x="1121.5" y="2778" width="100" height="40" as="geometry" />
        </mxCell>
        <mxCell id="45SI-ryJiPIYLQKIN5sb-127" value="页面容器" style="text;html=1;align=center;verticalAlign=middle;whiteSpace=wrap;rounded=0;" vertex="1" parent="1">
          <mxGeometry x="886" y="2700" width="60" height="30" as="geometry" />
        </mxCell>
        <mxCell id="45SI-ryJiPIYLQKIN5sb-128" value="流程" style="rounded=1;whiteSpace=wrap;html=1;" vertex="1" parent="1">
          <mxGeometry x="950" y="2180" width="184" height="140" as="geometry" />
        </mxCell>
        <mxCell id="45SI-ryJiPIYLQKIN5sb-129" value="" style="rounded=1;whiteSpace=wrap;html=1;dashed=1;" vertex="1" parent="1">
          <mxGeometry x="974.5" y="2220" width="100" height="40" as="geometry" />
        </mxCell>
        <mxCell id="45SI-ryJiPIYLQKIN5sb-130" value="" style="rounded=1;whiteSpace=wrap;html=1;dashed=1;" vertex="1" parent="1">
          <mxGeometry x="994.5" y="2240" width="100" height="40" as="geometry" />
        </mxCell>
        <mxCell id="45SI-ryJiPIYLQKIN5sb-131" value="组件" style="rounded=1;whiteSpace=wrap;html=1;" vertex="1" parent="1">
          <mxGeometry x="1009.5" y="2260" width="100" height="40" as="geometry" />
        </mxCell>
        <mxCell id="45SI-ryJiPIYLQKIN5sb-132" value="页面容器" style="text;html=1;align=center;verticalAlign=middle;whiteSpace=wrap;rounded=0;" vertex="1" parent="1">
          <mxGeometry x="1012" y="2180" width="60" height="30" as="geometry" />
        </mxCell>
        <mxCell id="45SI-ryJiPIYLQKIN5sb-134" value="流程" style="text;html=1;align=center;verticalAlign=middle;whiteSpace=wrap;rounded=0;" vertex="1" parent="1">
          <mxGeometry x="1121.5" y="2700" width="60" height="30" as="geometry" />
        </mxCell>
        <mxCell id="45SI-ryJiPIYLQKIN5sb-141" style="edgeStyle=orthogonalEdgeStyle;rounded=0;orthogonalLoop=1;jettySize=auto;html=1;exitX=1;exitY=0.5;exitDx=0;exitDy=0;" edge="1" parent="1" source="45SI-ryJiPIYLQKIN5sb-135" target="45SI-ryJiPIYLQKIN5sb-137">
          <mxGeometry relative="1" as="geometry" />
        </mxCell>
        <mxCell id="45SI-ryJiPIYLQKIN5sb-135" value="组件" style="rounded=1;whiteSpace=wrap;html=1;" vertex="1" parent="1">
          <mxGeometry x="930" y="2400" width="100" height="40" as="geometry" />
        </mxCell>
        <mxCell id="45SI-ryJiPIYLQKIN5sb-136" value="组件" style="rounded=1;whiteSpace=wrap;html=1;" vertex="1" parent="1">
          <mxGeometry x="1070" y="2340" width="100" height="40" as="geometry" />
        </mxCell>
        <mxCell id="45SI-ryJiPIYLQKIN5sb-137" value="组件" style="rounded=1;whiteSpace=wrap;html=1;" vertex="1" parent="1">
          <mxGeometry x="1070" y="2400" width="100" height="40" as="geometry" />
        </mxCell>
        <mxCell id="45SI-ryJiPIYLQKIN5sb-138" value="组件" style="rounded=1;whiteSpace=wrap;html=1;" vertex="1" parent="1">
          <mxGeometry x="1070" y="2460" width="100" height="40" as="geometry" />
        </mxCell>
        <mxCell id="45SI-ryJiPIYLQKIN5sb-139" value="组件" style="rounded=1;whiteSpace=wrap;html=1;" vertex="1" parent="1">
          <mxGeometry x="930" y="2342" width="100" height="40" as="geometry" />
        </mxCell>
        <mxCell id="45SI-ryJiPIYLQKIN5sb-140" value="组件" style="rounded=1;whiteSpace=wrap;html=1;" vertex="1" parent="1">
          <mxGeometry x="930" y="2462" width="100" height="40" as="geometry" />
        </mxCell>
        <mxCell id="45SI-ryJiPIYLQKIN5sb-142" value="" style="curved=1;endArrow=classic;html=1;rounded=0;exitX=1;exitY=0.5;exitDx=0;exitDy=0;entryX=0;entryY=0.5;entryDx=0;entryDy=0;" edge="1" parent="1" source="45SI-ryJiPIYLQKIN5sb-139" target="45SI-ryJiPIYLQKIN5sb-137">
          <mxGeometry width="50" height="50" relative="1" as="geometry">
            <mxPoint x="1030" y="2310" as="sourcePoint" />
            <mxPoint x="1080" y="2260" as="targetPoint" />
            <Array as="points">
              <mxPoint x="1050" y="2362" />
              <mxPoint x="1060" y="2400" />
            </Array>
          </mxGeometry>
        </mxCell>
        <mxCell id="45SI-ryJiPIYLQKIN5sb-143" value="" style="curved=1;endArrow=classic;html=1;rounded=0;exitX=1;exitY=0.5;exitDx=0;exitDy=0;entryX=0;entryY=0.75;entryDx=0;entryDy=0;" edge="1" parent="1" source="45SI-ryJiPIYLQKIN5sb-140" target="45SI-ryJiPIYLQKIN5sb-137">
          <mxGeometry width="50" height="50" relative="1" as="geometry">
            <mxPoint x="1020" y="2620" as="sourcePoint" />
            <mxPoint x="1070" y="2570" as="targetPoint" />
            <Array as="points">
              <mxPoint x="1050" y="2470" />
            </Array>
          </mxGeometry>
        </mxCell>
        <mxCell id="45SI-ryJiPIYLQKIN5sb-144" value="JSON schema" style="text;html=1;align=center;verticalAlign=middle;whiteSpace=wrap;rounded=0;" vertex="1" parent="1">
          <mxGeometry x="342" y="590" width="126" height="30" as="geometry" />
        </mxCell>
        <mxCell id="45SI-ryJiPIYLQKIN5sb-145" value="插件" style="rounded=0;whiteSpace=wrap;html=1;dashed=1;fillColor=#ffe6cc;strokeColor=#d79b00;" vertex="1" parent="1">
          <mxGeometry x="60" y="340" width="90" height="30" as="geometry" />
        </mxCell>
        <mxCell id="45SI-ryJiPIYLQKIN5sb-146" value="插件" style="rounded=0;whiteSpace=wrap;html=1;dashed=1;fillColor=#ffe6cc;strokeColor=#d79b00;" vertex="1" parent="1">
          <mxGeometry x="60" y="390" width="90" height="30" as="geometry" />
        </mxCell>
        <mxCell id="45SI-ryJiPIYLQKIN5sb-17" value="文本输入框" style="rounded=0;whiteSpace=wrap;html=1;dashed=1;fillColor=#ffe6cc;strokeColor=#d79b00;" vertex="1" parent="1">
          <mxGeometry x="63.5" y="660" width="90" height="30" as="geometry" />
        </mxCell>
        <mxCell id="45SI-ryJiPIYLQKIN5sb-18" value="数字输入框" style="rounded=0;whiteSpace=wrap;html=1;dashed=1;fillColor=#ffe6cc;strokeColor=#d79b00;" vertex="1" parent="1">
          <mxGeometry x="183.5" y="660" width="90" height="30" as="geometry" />
        </mxCell>
        <mxCell id="45SI-ryJiPIYLQKIN5sb-19" value="选择框" style="rounded=0;whiteSpace=wrap;html=1;dashed=1;fillColor=#ffe6cc;strokeColor=#d79b00;" vertex="1" parent="1">
          <mxGeometry x="303.5" y="660" width="90" height="30" as="geometry" />
        </mxCell>
        <mxCell id="45SI-ryJiPIYLQKIN5sb-20" value="图片" style="rounded=0;whiteSpace=wrap;html=1;dashed=1;fillColor=#ffe6cc;strokeColor=#d79b00;" vertex="1" parent="1">
          <mxGeometry x="545.5" y="660" width="90" height="30" as="geometry" />
        </mxCell>
        <mxCell id="45SI-ryJiPIYLQKIN5sb-22" value="..." style="rounded=0;whiteSpace=wrap;html=1;dashed=1;fillColor=#ffe6cc;strokeColor=#d79b00;" vertex="1" parent="1">
          <mxGeometry x="666.5" y="660" width="90" height="30" as="geometry" />
        </mxCell>
        <mxCell id="45SI-ryJiPIYLQKIN5sb-23" value="开关" style="rounded=0;whiteSpace=wrap;html=1;dashed=1;fillColor=#ffe6cc;strokeColor=#d79b00;" vertex="1" parent="1">
          <mxGeometry x="423.5" y="660" width="90" height="30" as="geometry" />
        </mxCell>
        <mxCell id="45SI-ryJiPIYLQKIN5sb-154" value="页面容器" style="rounded=0;whiteSpace=wrap;html=1;dashed=1;fillColor=#ffe6cc;strokeColor=#d79b00;" vertex="1" parent="1">
          <mxGeometry x="458.5" y="270" width="80" height="130" as="geometry" />
        </mxCell>
        <mxCell id="45SI-ryJiPIYLQKIN5sb-6" value="投票" style="rounded=0;whiteSpace=wrap;html=1;dashed=1;fillColor=#ffe6cc;strokeColor=#d79b00;container=0;" vertex="1" parent="1">
          <mxGeometry x="700" y="310" width="70" height="60" as="geometry" />
        </mxCell>
        <mxCell id="45SI-ryJiPIYLQKIN5sb-164" value="轮播" style="rounded=0;whiteSpace=wrap;html=1;dashed=1;fillColor=#ffe6cc;strokeColor=#d79b00;container=0;" vertex="1" parent="1">
          <mxGeometry x="700" y="380" width="70" height="60" as="geometry" />
        </mxCell>
        <mxCell id="45SI-ryJiPIYLQKIN5sb-165" value="组队" style="rounded=0;whiteSpace=wrap;html=1;dashed=1;fillColor=#ffe6cc;strokeColor=#d79b00;container=0;" vertex="1" parent="1">
          <mxGeometry x="700" y="450" width="70" height="60" as="geometry" />
        </mxCell>
        <mxCell id="45SI-ryJiPIYLQKIN5sb-166" value="" style="rounded=0;whiteSpace=wrap;html=1;dashed=1;fillColor=#ffe6cc;strokeColor=#d79b00;container=0;" vertex="1" parent="1">
          <mxGeometry x="850" y="325" width="70" height="60" as="geometry" />
        </mxCell>
        <mxCell id="45SI-ryJiPIYLQKIN5sb-167" value="" style="rounded=0;whiteSpace=wrap;html=1;dashed=1;fillColor=#ffe6cc;strokeColor=#d79b00;container=0;" vertex="1" parent="1">
          <mxGeometry x="890" y="370" width="70" height="60" as="geometry" />
        </mxCell>
        <mxCell id="45SI-ryJiPIYLQKIN5sb-168" value="" style="rounded=0;whiteSpace=wrap;html=1;dashed=1;fillColor=#ffe6cc;strokeColor=#d79b00;container=0;" vertex="1" parent="1">
          <mxGeometry x="860" y="420" width="70" height="60" as="geometry" />
        </mxCell>
        <mxCell id="45SI-ryJiPIYLQKIN5sb-169" value="组件" style="rounded=0;whiteSpace=wrap;html=1;" vertex="1" parent="1">
          <mxGeometry x="-357" y="2533" width="72.4321900018743" height="32" as="geometry" />
        </mxCell>
        <mxCell id="45SI-ryJiPIYLQKIN5sb-170" value="插件" style="rounded=0;whiteSpace=wrap;html=1;" vertex="1" parent="1">
          <mxGeometry x="-278.43" y="2533" width="72.4321900018743" height="32" as="geometry" />
        </mxCell>
        <mxCell id="45SI-ryJiPIYLQKIN5sb-171" value="页面容器" style="rounded=0;whiteSpace=wrap;html=1;" vertex="1" parent="1">
          <mxGeometry x="-199.22000000000003" y="2533" width="72.4321900018743" height="32" as="geometry" />
        </mxCell>
        <mxCell id="45SI-ryJiPIYLQKIN5sb-173" value="参数" style="rounded=0;whiteSpace=wrap;html=1;" vertex="1" parent="1">
          <mxGeometry x="-26.22" y="2533" width="72.4321900018743" height="32" as="geometry" />
        </mxCell>
        <mxCell id="45SI-ryJiPIYLQKIN5sb-174" value="动作" style="rounded=0;whiteSpace=wrap;html=1;" vertex="1" parent="1">
          <mxGeometry x="54" y="2533" width="72.4321900018743" height="32" as="geometry" />
        </mxCell>
        <mxCell id="45SI-ryJiPIYLQKIN5sb-175" value="资源" style="rounded=0;whiteSpace=wrap;html=1;" vertex="1" parent="1">
          <mxGeometry x="238.5" y="2534" width="72.4321900018743" height="32" as="geometry" />
        </mxCell>
        <mxCell id="45SI-ryJiPIYLQKIN5sb-176" value="云积分" style="rounded=0;whiteSpace=wrap;html=1;" vertex="1" parent="1">
          <mxGeometry x="316.5" y="2534" width="72.4321900018743" height="32" as="geometry" />
        </mxCell>
        <mxCell id="45SI-ryJiPIYLQKIN5sb-177" value="商品" style="rounded=0;whiteSpace=wrap;html=1;" vertex="1" parent="1">
          <mxGeometry x="396" y="2534" width="72.4321900018743" height="32" as="geometry" />
        </mxCell>
        <mxCell id="45SI-ryJiPIYLQKIN5sb-181" value="前端物料" style="text;html=1;align=center;verticalAlign=middle;whiteSpace=wrap;rounded=0;" vertex="1" parent="1">
          <mxGeometry x="-272.21" y="2490" width="60" height="30" as="geometry" />
        </mxCell>
        <mxCell id="45SI-ryJiPIYLQKIN5sb-182" value="后端物料" style="text;html=1;align=center;verticalAlign=middle;whiteSpace=wrap;rounded=0;" vertex="1" parent="1">
          <mxGeometry x="22.220000000000027" y="2490" width="60" height="30" as="geometry" />
        </mxCell>
        <mxCell id="45SI-ryJiPIYLQKIN5sb-184" value="运营物料" style="text;html=1;align=center;verticalAlign=middle;whiteSpace=wrap;rounded=0;" vertex="1" parent="1">
          <mxGeometry x="316.5" y="2490" width="60" height="30" as="geometry" />
        </mxCell>
        <mxCell id="45SI-ryJiPIYLQKIN5sb-185" value="编排 &amp;amp; 组合" style="text;html=1;align=center;verticalAlign=middle;whiteSpace=wrap;rounded=0;" vertex="1" parent="1">
          <mxGeometry x="4.43" y="2440" width="84" height="30" as="geometry" />
        </mxCell>
        <mxCell id="45SI-ryJiPIYLQKIN5sb-202" style="edgeStyle=orthogonalEdgeStyle;rounded=0;orthogonalLoop=1;jettySize=auto;html=1;exitX=1;exitY=0.5;exitDx=0;exitDy=0;" edge="1" parent="1" source="45SI-ryJiPIYLQKIN5sb-193" target="45SI-ryJiPIYLQKIN5sb-200">
          <mxGeometry relative="1" as="geometry" />
        </mxCell>
        <mxCell id="45SI-ryJiPIYLQKIN5sb-204" value="打包" style="edgeLabel;html=1;align=center;verticalAlign=middle;resizable=0;points=[];" vertex="1" connectable="0" parent="45SI-ryJiPIYLQKIN5sb-202">
          <mxGeometry x="-0.1647" relative="1" as="geometry">
            <mxPoint as="offset" />
          </mxGeometry>
        </mxCell>
        <mxCell id="45SI-ryJiPIYLQKIN5sb-193" value="UI编排" style="rounded=0;whiteSpace=wrap;html=1;" vertex="1" parent="1">
          <mxGeometry x="19" y="2790" width="120" height="40" as="geometry" />
        </mxCell>
        <mxCell id="45SI-ryJiPIYLQKIN5sb-203" style="edgeStyle=orthogonalEdgeStyle;rounded=0;orthogonalLoop=1;jettySize=auto;html=1;exitX=1;exitY=0.5;exitDx=0;exitDy=0;" edge="1" parent="1" source="45SI-ryJiPIYLQKIN5sb-194" target="45SI-ryJiPIYLQKIN5sb-201">
          <mxGeometry relative="1" as="geometry" />
        </mxCell>
        <mxCell id="45SI-ryJiPIYLQKIN5sb-205" value="发布" style="edgeLabel;html=1;align=center;verticalAlign=middle;resizable=0;points=[];" vertex="1" connectable="0" parent="45SI-ryJiPIYLQKIN5sb-203">
          <mxGeometry x="-0.1454" y="2" relative="1" as="geometry">
            <mxPoint as="offset" />
          </mxGeometry>
        </mxCell>
        <mxCell id="45SI-ryJiPIYLQKIN5sb-194" value="逻辑编排" style="rounded=0;whiteSpace=wrap;html=1;" vertex="1" parent="1">
          <mxGeometry x="19" y="2910" width="120" height="40" as="geometry" />
        </mxCell>
        <mxCell id="45SI-ryJiPIYLQKIN5sb-195" value="" style="endArrow=classic;html=1;rounded=0;" edge="1" parent="1">
          <mxGeometry width="50" height="50" relative="1" as="geometry">
            <mxPoint x="-90" y="2810" as="sourcePoint" />
            <mxPoint x="10" y="2810" as="targetPoint" />
          </mxGeometry>
        </mxCell>
        <mxCell id="45SI-ryJiPIYLQKIN5sb-196" value="JSON Schema" style="edgeLabel;html=1;align=center;verticalAlign=middle;resizable=0;points=[];" vertex="1" connectable="0" parent="45SI-ryJiPIYLQKIN5sb-195">
          <mxGeometry x="-0.075" relative="1" as="geometry">
            <mxPoint as="offset" />
          </mxGeometry>
        </mxCell>
        <mxCell id="45SI-ryJiPIYLQKIN5sb-198" value="" style="endArrow=classic;html=1;rounded=0;" edge="1" parent="1">
          <mxGeometry width="50" height="50" relative="1" as="geometry">
            <mxPoint x="-90" y="2930" as="sourcePoint" />
            <mxPoint x="10" y="2930" as="targetPoint" />
          </mxGeometry>
        </mxCell>
        <mxCell id="45SI-ryJiPIYLQKIN5sb-199" value="DSL Schema" style="edgeLabel;html=1;align=center;verticalAlign=middle;resizable=0;points=[];" vertex="1" connectable="0" parent="45SI-ryJiPIYLQKIN5sb-198">
          <mxGeometry x="-0.075" relative="1" as="geometry">
            <mxPoint as="offset" />
          </mxGeometry>
        </mxCell>
        <mxCell id="45SI-ryJiPIYLQKIN5sb-200" value="渲染引擎" style="rounded=0;whiteSpace=wrap;html=1;" vertex="1" parent="1">
          <mxGeometry x="222" y="2790" width="120" height="40" as="geometry" />
        </mxCell>
        <mxCell id="45SI-ryJiPIYLQKIN5sb-201" value="流程引擎" style="rounded=0;whiteSpace=wrap;html=1;" vertex="1" parent="1">
          <mxGeometry x="222" y="2910" width="120" height="40" as="geometry" />
        </mxCell>
        <mxCell id="45SI-ryJiPIYLQKIN5sb-216" value="前端物料" style="rounded=0;whiteSpace=wrap;html=1;" vertex="1" parent="1">
          <mxGeometry x="-218.22000000000003" y="2790" width="120" height="40" as="geometry" />
        </mxCell>
        <mxCell id="45SI-ryJiPIYLQKIN5sb-217" value="后端物料" style="rounded=0;whiteSpace=wrap;html=1;" vertex="1" parent="1">
          <mxGeometry x="-218.22000000000003" y="2910" width="120" height="40" as="geometry" />
        </mxCell>
        <mxCell id="45SI-ryJiPIYLQKIN5sb-218" value="" style="shape=actor;whiteSpace=wrap;html=1;" vertex="1" parent="1">
          <mxGeometry x="-166.79" y="2680" width="40" height="60" as="geometry" />
        </mxCell>
        <mxCell id="45SI-ryJiPIYLQKIN5sb-219" value="开发" style="text;html=1;align=center;verticalAlign=middle;whiteSpace=wrap;rounded=0;" vertex="1" parent="1">
          <mxGeometry x="-176.79" y="2740" width="60" height="30" as="geometry" />
        </mxCell>
        <mxCell id="45SI-ryJiPIYLQKIN5sb-228" value="运营" style="text;html=1;align=center;verticalAlign=middle;whiteSpace=wrap;rounded=0;" vertex="1" parent="1">
          <mxGeometry x="46.21" y="2740" width="60" height="20" as="geometry" />
        </mxCell>
        <mxCell id="45SI-ryJiPIYLQKIN5sb-229" value="" style="shape=actor;whiteSpace=wrap;html=1;" vertex="1" parent="1">
          <mxGeometry x="56.21" y="2680" width="40" height="60" as="geometry" />
        </mxCell>
      </root>
    </mxGraphModel>
  </diagram>
</mxfile>
